<?xml version="1.0" encoding="UTF-8" standalone="no"?>
<svg
   height="24px"
   viewBox="0 -960 960 960"
   width="24px"
   fill="#000000"
   version="1.1"
   id="svg1"
   sodipodi:docname="THUNDERSTORM.svg"
   inkscape:version="1.3 (0e150ed6c4, 2023-07-21)"
   xmlns:inkscape="http://www.inkscape.org/namespaces/inkscape"
   xmlns:sodipodi="http://sodipodi.sourceforge.net/DTD/sodipodi-0.dtd"
   xmlns="http://www.w3.org/2000/svg"
   xmlns:svg="http://www.w3.org/2000/svg">
  <defs
     id="defs1" />
  <sodipodi:namedview
     id="namedview1"
     pagecolor="#ffffff"
     bordercolor="#000000"
     borderopacity="0.25"
     inkscape:showpageshadow="2"
     inkscape:pageopacity="0.0"
     inkscape:pagecheckerboard="0"
     inkscape:deskcolor="#d1d1d1"
     inkscape:zoom="32.375"
     inkscape:cx="11.984556"
     inkscape:cy="12"
     inkscape:window-width="1920"
     inkscape:window-height="991"
     inkscape:window-x="-9"
     inkscape:window-y="-9"
     inkscape:window-maximized="1"
     inkscape:current-layer="svg1" />
  <path
     d="M327-40q-10 0-15.5-8T309-65l27-75h-62q-5 0-8-4t-1-9l38-107q3-9 10.5-14.5T331-280h49q11 0 17 9t1 19l-31 72h62q6 0 9 5.5t-1 10.5L346-47q-3 4-7 5.5T327-40Zm270-40q-10 0-15.5-8t-2.5-17l19-55h-64q-5 0-8-4t-1-9l31-87q3-9 10.5-14.5T584-280h48q11 0 17.5 9t1.5 19l-23 52h61q6 0 8.5 5.5T696-184l-80 97q-1 1-19 7ZM300-320q-91 0-155.5-64.5T80-540q0-83 55-145t136-73q32-57 87.5-89.5T480-880q90 0 156.5 57.5T717-679q69 6 116 57t47 122q0 75-52.5 127.5T700-320H300Z"
     id="path1"
     style="fill:#ffffff" />
</svg>
