<?xml version="1.0" encoding="UTF-8" standalone="no"?>
<svg
   height="24px"
   viewBox="0 -960 960 960"
   width="24px"
   fill="fffff"
   version="1.1"
   id="svg1"
   sodipodi:docname="wind-warning.svg"
   inkscape:version="1.3 (0e150ed6c4, 2023-07-21)"
   xmlns:inkscape="http://www.inkscape.org/namespaces/inkscape"
   xmlns:sodipodi="http://sodipodi.sourceforge.net/DTD/sodipodi-0.dtd"
   xmlns="http://www.w3.org/2000/svg"
   xmlns:svg="http://www.w3.org/2000/svg">
  <defs
     id="defs1" />
  <sodipodi:namedview
     id="namedview1"
     pagecolor="#ffffff"
     bordercolor="#000000"
     borderopacity="0.25"
     inkscape:showpageshadow="2"
     inkscape:pageopacity="0.0"
     inkscape:pagecheckerboard="0"
     inkscape:deskcolor="#d1d1d1"
     inkscape:zoom="32.375"
     inkscape:cx="11.984556"
     inkscape:cy="12"
     inkscape:window-width="1920"
     inkscape:window-height="991"
     inkscape:window-x="-9"
     inkscape:window-y="-9"
     inkscape:window-maximized="1"
     inkscape:current-layer="svg1" />
  <path
     d="M460-160q-32 0-59.5-16T356-220q-11-20-.5-40t32.5-20q13 0 23 8t18 18q5 7 13.5 10.5T460-240q17 0 28.5-11.5T500-280q0-17-11.5-28.5T460-320H120q-17 0-28.5-11.5T80-360q0-17 11.5-28.5T120-400h340q50 0 85 35t35 85q0 50-35 85t-85 35ZM120-560q-17 0-28.5-11.5T80-600q0-17 11.5-28.5T120-640h500q25 0 42.5-17.5T680-700q0-25-17.5-42.5T620-760q-16 0-30 7.5T568-731q-7 12-17 21.5t-24 9.5q-20 0-32.5-15t-6.5-32q14-42 50.5-67.5T620-840q58 0 99 41t41 99q0 58-41 99t-99 41H120Zm678 308q-20 9-39-2.5T740-288q0-14 9.5-23.5T771-328q14-8 21.5-22t7.5-30q0-25-17.5-42.5T740-440H120q-17 0-28.5-11.5T80-480q0-17 11.5-28.5T120-520h620q58 0 99 41t41 99q0 42-22 76.5T798-252Z"
     id="path1"
     style="fill:#ffffff" />
</svg>
