<svg width="184" height="184" viewBox="0 0 184 184" fill="none" xmlns="http://www.w3.org/2000/svg">
<g clip-path="url(#clip0_73_139)">
<path d="M275.992 95.3485H163.93L144.838 102.404L162.27 112.78H275.992V95.3485Z" fill="#1F1F1F" fill-opacity="0.5"/>
<path d="M228.834 21.058C206.298 20.7831 183.96 25.3018 163.303 34.3158L155.678 37.6439C136.31 46.0956 119.37 59.27 106.41 75.9613L99.4331 84.9457C98.9908 85.5154 98.6053 86.1277 98.2827 86.7728C95.1287 93.0814 98.6446 100.686 105.494 102.37L115.502 104.832C116.794 105.15 118.115 105.332 119.444 105.377L166.42 106.97L178.457 97.8392H637.08V26.0365L228.834 21.058Z" fill="url(#paint0_linear_73_139)"/>
<path d="M179.544 28.1331L182.765 27.2814C190.145 25.5138 193.865 35.8268 187.055 39.1775L185.927 39.7327L167.224 48.3462C158.794 52.2284 149.537 53.9741 140.272 53.4291L130.091 52.599L132.491 50.813C137.948 46.752 143.698 43.1006 149.693 39.8886C159.152 34.8215 169.17 30.8762 179.544 28.1331Z" fill="url(#paint1_radial_73_139)" fill-opacity="0.5"/>
<path d="M216.64 50.5238C198.679 50.796 181.087 55.6698 165.546 64.6791L160.61 67.5404L160.619 67.5492C159.938 68.0557 159.859 69.0506 160.461 69.6566L167.211 76.4486C167.653 76.8925 168.261 77.0849 168.848 77.0131L168.911 77.0863C181.34 74.6004 193.956 73.1558 206.625 72.7679L228.261 72.1058H283.123C284.227 72.1058 285.123 71.2104 285.123 70.1058V52.5238C285.123 51.4192 284.227 50.5238 283.123 50.5238H216.64Z" fill="url(#paint2_radial_73_139)" fill-opacity="0.5"/>
<path d="M364.811 77.0867H205.019V77.0867C192.866 77.3629 180.756 78.647 168.814 80.9259L132.387 87.8778L97.1909 90.3681L97.156 90.7469C97.0527 91.8707 97.1289 93.0037 97.3818 94.1034V94.1034V94.1034C116.796 94.6555 136.218 93.2734 155.358 89.9776L173.699 86.8196C184.051 85.0371 194.518 84.0037 205.019 83.7274V83.7274H364.811V77.0867Z" fill="#DDDDDD" fill-opacity="0.6"/>
<path d="M121.246 76.7945L120.983 76.8837C117.24 78.1498 113.868 80.3196 111.165 83.2006C110.983 83.3941 110.729 83.5039 110.464 83.5039H106.028C105.111 83.5039 104.579 82.4675 105.113 81.7226C107.745 78.0491 111.223 75.0636 115.253 73.0184L116.359 72.4572C116.782 72.2423 117.288 72.2698 117.686 72.5293L121.473 75.0005C122.176 75.459 122.041 76.5256 121.246 76.7945Z" fill="#FF2727" fill-opacity="0.5"/>
<path d="M88.9026 275.992L88.9026 163.93L81.8469 144.838L71.4708 162.27L71.4708 275.992L88.9026 275.992Z" fill="#1F1F1F" fill-opacity="0.5"/>
<path d="M163.193 228.835C163.468 206.298 158.949 183.96 149.935 163.303L146.607 155.678C138.156 136.31 124.981 119.37 108.29 106.41L99.3055 99.4332C98.7358 98.9909 98.1234 98.6054 97.4783 98.2828C91.1698 95.1288 83.565 98.6447 81.8807 105.494L79.4188 115.503C79.1012 116.794 78.9189 118.115 78.8738 119.444L77.2811 166.421L86.4119 178.457L86.4119 637.08L158.215 637.08L163.193 228.835Z" fill="url(#paint3_linear_73_139)"/>
<path d="M156.118 179.544L156.97 182.765C158.737 190.145 148.424 193.865 145.074 187.056L144.518 185.927L135.905 167.224C132.023 158.794 130.277 149.537 130.822 140.273L131.652 130.092L133.438 132.491C137.499 137.948 141.151 143.698 144.363 149.694C149.43 159.152 153.375 169.17 156.118 179.544Z" fill="url(#paint4_radial_73_139)" fill-opacity="0.5"/>
<path d="M133.727 216.64C133.455 198.679 128.581 181.087 119.572 165.547L116.711 160.61L116.702 160.619C116.195 159.938 115.2 159.859 114.594 160.462L107.802 167.212C107.359 167.653 107.166 168.261 107.238 168.848L107.165 168.911C109.651 181.34 111.095 193.956 111.483 206.626L112.145 228.261L112.145 283.123C112.145 284.227 113.041 285.123 114.145 285.123L131.727 285.123C132.832 285.123 133.727 284.227 133.727 283.123L133.727 216.64Z" fill="url(#paint5_radial_73_139)" fill-opacity="0.5"/>
<path d="M107.164 364.811L107.164 205.019V205.019C106.888 192.866 105.604 180.756 103.325 168.815L96.3734 132.387L93.8831 97.191L93.5042 97.1562C92.3805 97.0528 91.2475 97.129 90.1477 97.3819V97.3819V97.3819C89.5957 116.796 90.9778 136.218 94.2735 155.359L97.4316 173.699C99.214 184.051 100.247 194.519 100.524 205.019V205.019L100.524 364.811L107.164 364.811Z" fill="#DDDDDD" fill-opacity="0.6"/>
<path d="M107.457 121.246L107.367 120.983C106.101 117.24 103.932 113.868 101.051 111.165C100.857 110.983 100.747 110.73 100.747 110.464L100.747 106.028C100.747 105.112 101.784 104.579 102.529 105.113C106.202 107.745 109.188 111.223 111.233 115.253L111.794 116.359C112.009 116.782 111.981 117.288 111.722 117.686L109.251 121.473C108.792 122.176 107.726 122.041 107.457 121.246Z" fill="#0870BA" fill-opacity="0.5"/>
<path d="M-91.912 88.9026L20.1497 88.9026L39.2417 81.8469L21.8099 71.4708L-91.912 71.4708L-91.912 88.9026Z" fill="#1F1F1F" fill-opacity="0.5"/>
<path d="M-44.7549 163.193C-22.2185 163.468 0.119355 158.949 20.7764 149.935L28.4014 146.607C47.7698 138.156 64.7097 124.981 77.6699 108.29L84.6465 99.3055C85.0888 98.7358 85.4743 98.1234 85.7969 97.4783C88.9509 91.1697 85.435 83.565 78.5859 81.8807L68.5772 79.4187C67.2858 79.1012 65.9647 78.9189 64.6357 78.8738L17.6592 77.281L5.62305 86.4119L-453 86.4119L-453 158.215L-44.7549 163.193Z" fill="url(#paint6_linear_73_139)"/>
<path d="M4.5358 156.118L1.31504 156.97C-6.06563 158.737 -9.78543 148.424 -2.97582 145.074L-1.84759 144.518L16.856 135.905C25.2859 132.023 34.5423 130.277 43.8072 130.822L53.9882 131.652L51.5884 133.438C46.1317 137.499 40.3819 141.151 34.3861 144.363C24.9275 149.43 14.9096 153.375 4.5358 156.118Z" fill="url(#paint7_radial_73_139)" fill-opacity="0.5"/>
<path d="M-32.5605 133.727C-14.5991 133.455 2.99226 128.581 18.5332 119.572L23.4697 116.711L23.4609 116.702C24.1414 116.195 24.2204 115.2 23.6182 114.594L16.8682 107.803C16.427 107.359 15.8188 107.166 15.2314 107.238L15.1689 107.165C2.73942 109.651 -9.87615 111.095 -22.5459 111.483L-44.1816 112.145L-99.043 112.145C-100.148 112.145 -101.043 113.041 -101.043 114.145L-101.043 131.727C-101.043 132.832 -100.148 133.727 -99.043 133.727L-32.5605 133.727Z" fill="url(#paint8_radial_73_139)" fill-opacity="0.5"/>
<path d="M-180.731 107.165L-20.9396 107.165V107.165C-8.78591 106.888 3.32387 105.604 15.2652 103.325L51.693 96.3734L86.8887 93.8832L86.9236 93.5043C87.027 92.3806 86.9508 91.2476 86.6978 90.1478V90.1478V90.1478C67.2833 89.5958 47.862 90.9779 28.7212 94.2736L10.3804 97.4316C0.0283159 99.2141 -10.4388 100.248 -20.9396 100.524V100.524L-180.731 100.524L-180.731 107.165Z" fill="#DDDDDD" fill-opacity="0.6"/>
<path d="M62.8334 107.457L63.0971 107.368C66.8394 106.101 70.2116 103.932 72.9149 101.051C73.0965 100.857 73.3501 100.747 73.6155 100.747L78.0518 100.747C78.9681 100.747 79.5005 101.784 78.9668 102.529C76.3346 106.202 72.8566 109.188 68.8267 111.233L67.7209 111.794C67.2974 112.009 66.7913 111.981 66.3936 111.722L62.6063 109.251C61.9036 108.792 62.0387 107.726 62.8334 107.457Z" fill="#07AE07" fill-opacity="0.5"/>
<path d="M95.177 -91.912L95.177 20.1497L102.233 39.2417L112.609 21.8099L112.609 -91.912L95.177 -91.912Z" fill="#1F1F1F" fill-opacity="0.5"/>
<path d="M20.8864 -44.7549C20.6116 -22.2185 25.1303 0.119355 34.1442 20.7764L37.4724 28.4014C45.9241 47.7698 59.0985 64.7097 75.7897 77.6699L84.7741 84.6465C85.3438 85.0888 85.9562 85.4743 86.6013 85.7969C92.9098 88.9509 100.515 85.435 102.199 78.5859L104.661 68.5772C104.978 67.2858 105.161 65.9647 105.206 64.6358L106.799 17.6592L97.6677 5.62305L97.6677 -453L25.865 -453L20.8864 -44.7549Z" fill="url(#paint9_linear_73_139)"/>
<path d="M27.9616 4.5358L27.1099 1.31504C25.3423 -6.06563 35.6553 -9.78543 39.006 -2.97582L39.5612 -1.84759L48.1747 16.856C52.0569 25.2859 53.8026 34.5423 53.2576 43.8072L52.4275 53.9882L50.6415 51.5884C46.5805 46.1317 42.9291 40.3819 39.717 34.3861C34.6499 24.9275 30.7047 14.9096 27.9616 4.5358Z" fill="url(#paint10_radial_73_139)" fill-opacity="0.5"/>
<path d="M50.3523 -32.5605C50.6245 -14.5991 55.4984 2.99226 64.5076 18.5332L67.3689 23.4697L67.3777 23.4609C67.8843 24.1414 68.8792 24.2204 69.4852 23.6182L76.2771 16.8682C76.7211 16.427 76.9134 15.8188 76.8416 15.2314L76.9148 15.1689C74.429 2.73942 72.9843 -9.87615 72.5965 -22.5459L71.9344 -44.1816L71.9344 -99.043C71.9344 -100.148 71.039 -101.043 69.9344 -101.043L52.3524 -101.043C51.2478 -101.043 50.3524 -100.148 50.3524 -99.043L50.3523 -32.5605Z" fill="url(#paint11_radial_73_139)" fill-opacity="0.5"/>
<path d="M76.9152 -180.731L76.9151 -20.9396V-20.9396C77.1914 -8.78594 78.4755 3.32384 80.7544 15.2651L87.7063 51.693L90.1965 86.8887L90.5754 86.9235C91.6991 87.0269 92.8321 86.9507 93.9319 86.6978V86.6978V86.6978C94.4839 67.2832 93.1018 47.8619 89.8061 28.7212L86.6481 10.3803C84.8656 0.0282855 83.8322 -10.4388 83.5558 -20.9396V-20.9396L83.5559 -180.731L76.9152 -180.731Z" fill="#DDDDDD" fill-opacity="0.6"/>
<path d="M76.623 62.8335L76.7122 63.0971C77.9783 66.8394 80.1481 70.2117 83.0291 72.915C83.2226 73.0966 83.3324 73.3502 83.3324 73.6156L83.3324 78.0518C83.3324 78.9682 82.296 79.5006 81.5511 78.9669C77.8776 76.3347 74.8921 72.8566 72.8469 68.8267L72.2857 67.7209C72.0708 67.2974 72.0983 66.7914 72.3578 66.3936L74.829 62.6063C75.2875 61.9037 76.3541 62.0388 76.623 62.8335Z" fill="#FFA01C" fill-opacity="0.5"/>
</g>
<defs>
<linearGradient id="paint0_linear_73_139" x1="367.098" y1="21.0463" x2="367.098" y2="104.638" gradientUnits="userSpaceOnUse">
<stop stop-color="#FF3131"/>
<stop offset="1" stop-color="#B70000"/>
</linearGradient>
<radialGradient id="paint1_radial_73_139" cx="0" cy="0" r="1" gradientUnits="userSpaceOnUse" gradientTransform="translate(166.42 21.4708) rotate(61.7209) scale(37.2321 100.181)">
<stop/>
<stop offset="1" stop-color="#565656"/>
</radialGradient>
<radialGradient id="paint2_radial_73_139" cx="0" cy="0" r="1" gradientUnits="userSpaceOnUse" gradientTransform="translate(154.288 50.5238) rotate(90) scale(24.205 311.991)">
<stop/>
<stop offset="1" stop-color="#565656"/>
</radialGradient>
<linearGradient id="paint3_linear_73_139" x1="163.205" y1="367.098" x2="79.6135" y2="367.098" gradientUnits="userSpaceOnUse">
<stop stop-color="#269EC2"/>
<stop offset="1" stop-color="#0A3D4F"/>
</linearGradient>
<radialGradient id="paint4_radial_73_139" cx="0" cy="0" r="1" gradientUnits="userSpaceOnUse" gradientTransform="translate(162.78 166.42) rotate(151.721) scale(37.2321 100.181)">
<stop/>
<stop offset="1" stop-color="#565656"/>
</radialGradient>
<radialGradient id="paint5_radial_73_139" cx="0" cy="0" r="1" gradientUnits="userSpaceOnUse" gradientTransform="translate(133.727 154.288) rotate(180) scale(24.205 311.991)">
<stop/>
<stop offset="1" stop-color="#565656"/>
</radialGradient>
<linearGradient id="paint6_linear_73_139" x1="-183.018" y1="163.205" x2="-183.018" y2="79.6135" gradientUnits="userSpaceOnUse">
<stop stop-color="#3CD428"/>
<stop offset="1" stop-color="#0F7413"/>
</linearGradient>
<radialGradient id="paint7_radial_73_139" cx="0" cy="0" r="1" gradientUnits="userSpaceOnUse" gradientTransform="translate(17.6594 162.78) rotate(-118.279) scale(37.2321 100.181)">
<stop/>
<stop offset="1" stop-color="#565656"/>
</radialGradient>
<radialGradient id="paint8_radial_73_139" cx="0" cy="0" r="1" gradientUnits="userSpaceOnUse" gradientTransform="translate(29.7919 133.727) rotate(-90) scale(24.205 311.991)">
<stop/>
<stop offset="1" stop-color="#565656"/>
</radialGradient>
<linearGradient id="paint9_linear_73_139" x1="20.8747" y1="-183.018" x2="104.466" y2="-183.018" gradientUnits="userSpaceOnUse">
<stop stop-color="#F7BB4B"/>
<stop offset="1" stop-color="#8F7408"/>
</linearGradient>
<radialGradient id="paint10_radial_73_139" cx="0" cy="0" r="1" gradientUnits="userSpaceOnUse" gradientTransform="translate(21.2993 17.6594) rotate(-28.2791) scale(37.2321 100.181)">
<stop/>
<stop offset="1" stop-color="#565656"/>
</radialGradient>
<radialGradient id="paint11_radial_73_139" cx="0" cy="0" r="1" gradientUnits="userSpaceOnUse" gradientTransform="translate(50.3523 29.7919) scale(24.205 311.991)">
<stop/>
<stop offset="1" stop-color="#565656"/>
</radialGradient>
<clipPath id="clip0_73_139">
<rect width="184" height="184" fill="white"/>
</clipPath>
</defs>
</svg>
