<svg width="109" height="109" viewBox="0 0 109 109" fill="none" xmlns="http://www.w3.org/2000/svg">
<g clip-path="url(#clip0_1057_39)">
<rect width="109" height="109" fill="#C72730"/>
<path fill-rule="evenodd" clip-rule="evenodd" d="M29.2739 24.7954C29.4718 17.8864 35.13 12.3887 42.0407 12.3887H66.9522C73.8628 12.3887 79.5211 17.8864 79.719 24.7954L80.9015 65.9253C81.0362 70.6022 78.6429 74.7511 74.9739 77.0821L80.1165 96.7046H72.4774L70.6894 89.8825H38.3034L36.5155 96.7046H28.8764L34.019 77.0821C30.35 74.7511 27.9566 70.6022 28.0913 65.9253L29.2739 24.7954ZM67.8537 79.0654L69.289 84.5432H39.7039L41.1392 79.0654H67.8537ZM49.2041 15.8627C47.8586 15.8627 46.7675 16.9538 46.7675 18.2997C46.7675 19.6452 47.8586 20.7363 49.2041 20.7363H59.7888C61.1343 20.7363 62.2254 19.6452 62.2254 18.2997C62.2254 16.9538 61.1343 15.8627 59.7888 15.8627H49.2041ZM69.0711 59.9539C65.6067 59.9539 62.7992 62.7614 62.7992 66.2251C62.7992 69.6887 65.6067 72.4962 69.0711 72.4962C72.5339 72.4962 75.3414 69.6887 75.3414 66.2251C75.3414 62.7614 72.5339 59.9539 69.0711 59.9539ZM33.6514 66.2251C33.6514 62.7614 36.4589 59.9539 39.9217 59.9539C43.3862 59.9539 46.1937 62.7614 46.1937 66.2251C46.1937 69.6887 43.3862 72.4962 39.9217 72.4962C36.4589 72.4962 33.6514 69.6887 33.6514 66.2251ZM38.9271 24.5405C36.6219 24.5405 34.7359 26.375 34.671 28.679L34.2718 42.9555C34.2036 45.353 36.1296 47.3327 38.528 47.3327H70.4666C72.8649 47.3327 74.7909 45.353 74.7227 42.9555L74.3235 28.679C74.2587 26.375 72.3726 24.5405 70.0674 24.5405H38.9271Z" fill="white"/>
</g>
<defs>
<clipPath id="clip0_1057_39">
<rect width="109" height="109" rx="15" fill="white"/>
</clipPath>
</defs>
</svg>
