<svg width="84" height="84" viewBox="0 0 84 84" fill="none" xmlns="http://www.w3.org/2000/svg">
<path d="M21 26L23.6923 19.4615C26.3008 13.1265 32.4178 9 39.2 9H84L81.3077 15.5385C78.6991 21.8735 72.5822 26 65.8 26H21Z" fill="url(#paint0_radial_36_232)"/>
<path d="M73.5 34.5H28.7C21.9178 34.5 15.8008 38.6265 13.1923 44.9615L10.5 51.5H55.3C62.0822 51.5 68.1992 47.3735 70.8077 41.0385L73.5 34.5Z" fill="url(#paint1_radial_36_232)"/>
<path d="M0 77L2.69231 70.4615C5.30084 64.1265 11.4178 60 18.2 60H35L32.3077 66.5385C29.6992 72.8735 23.5822 77 16.8 77H0Z" fill="url(#paint2_radial_36_232)"/>
<defs>
<radialGradient id="paint0_radial_36_232" cx="0" cy="0" r="1" gradientUnits="userSpaceOnUse" gradientTransform="translate(21.5 9) rotate(64.113) scale(75.5844 93.369)">
<stop stop-color="#D25301"/>
<stop offset="1" stop-color="#F70E01"/>
</radialGradient>
<radialGradient id="paint1_radial_36_232" cx="0" cy="0" r="1" gradientUnits="userSpaceOnUse" gradientTransform="translate(21.5 9) rotate(64.113) scale(75.5844 93.369)">
<stop stop-color="#D25301"/>
<stop offset="1" stop-color="#F70E01"/>
</radialGradient>
<radialGradient id="paint2_radial_36_232" cx="0" cy="0" r="1" gradientUnits="userSpaceOnUse" gradientTransform="translate(21.5 9) rotate(64.113) scale(75.5844 93.369)">
<stop stop-color="#D25301"/>
<stop offset="1" stop-color="#F70E01"/>
</radialGradient>
</defs>
</svg>
