<?xml version="1.0" encoding="UTF-8" standalone="no"?>
<svg
   height="24px"
   viewBox="0 -960 960 960"
   width="24px"
   fill="#34c759"
   version="1.1"
   id="svg1"
   sodipodi:docname="easy.svg"
   inkscape:version="1.3 (0e150ed6c4, 2023-07-21)"
   xmlns:inkscape="http://www.inkscape.org/namespaces/inkscape"
   xmlns:sodipodi="http://sodipodi.sourceforge.net/DTD/sodipodi-0.dtd"
   xmlns="http://www.w3.org/2000/svg"
   xmlns:svg="http://www.w3.org/2000/svg">
  <defs
     id="defs1" />
  <sodipodi:namedview
     id="namedview1"
     pagecolor="#ffffff"
     bordercolor="#000000"
     borderopacity="0.25"
     inkscape:showpageshadow="2"
     inkscape:pageopacity="0.0"
     inkscape:pagecheckerboard="0"
     inkscape:deskcolor="#d1d1d1"
     inkscape:zoom="32.375"
     inkscape:cx="11.984556"
     inkscape:cy="12"
     inkscape:window-width="1920"
     inkscape:window-height="991"
     inkscape:window-x="1130"
     inkscape:window-y="1341"
     inkscape:window-maximized="1"
     inkscape:current-layer="svg1" />
  <path
     d="M436-364 371-72q-3 14-14.5 23T330-40q-20 0-32-15t-8-34l102-515-72 28v96q0 17-11.5 28.5T280-440q-17 0-28.5-11.5T240-480v-122q0-12 6.5-21.5T264-638l178-76q14-6 29.5-7t29.5 4q14 5 26.5 14t20.5 23l40 64q13 20 30.5 38t39.5 31q14 8 31 14.5t34 9.5q16 3 26.5 14.5T760-480q0 17-12 28t-29 9q-56-8-100.5-35T541-543l-25 123 72 68q6 6 9 13.5t3 15.5v243q0 17-11.5 28.5T560-40q-17 0-28.5-11.5T520-80v-220l-84-64Zm47.5-399.5Q460-787 460-820t23.5-56.5Q507-900 540-900t56.5 23.5Q620-853 620-820t-23.5 56.5Q573-740 540-740t-56.5-23.5Z"
     id="path1"
     style="fill:#008000;fill-opacity:1;stroke:none;stroke-opacity:1" />
</svg>
