<?xml version="1.0" encoding="UTF-8" standalone="no"?>
<svg
   height="24px"
   viewBox="0 -960 960 960"
   width="24px"
   fill="#5a5a5a"
   version="1.1"
   id="svg1"
   sodipodi:docname="metro_station.svg"
   inkscape:version="1.3 (0e150ed6c4, 2023-07-21)"
   xmlns:inkscape="http://www.inkscape.org/namespaces/inkscape"
   xmlns:sodipodi="http://sodipodi.sourceforge.net/DTD/sodipodi-0.dtd"
   xmlns="http://www.w3.org/2000/svg"
   xmlns:svg="http://www.w3.org/2000/svg">
  <defs
     id="defs1" />
  <sodipodi:namedview
     id="namedview1"
     pagecolor="#ffffff"
     bordercolor="#000000"
     borderopacity="0.25"
     inkscape:showpageshadow="2"
     inkscape:pageopacity="0.0"
     inkscape:pagecheckerboard="0"
     inkscape:deskcolor="#d1d1d1"
     inkscape:zoom="43.625"
     inkscape:cx="11.988539"
     inkscape:cy="12"
     inkscape:window-width="2400"
     inkscape:window-height="1261"
     inkscape:window-x="-9"
     inkscape:window-y="-9"
     inkscape:window-maximized="1"
     inkscape:current-layer="svg1" />
  <path
     d="M80-160v-446q0-85 44-147.5T248-848q54-21 115-26.5t117-5.5q56 0 117 5.5T712-848q80 32 124 94.5T880-606v446q0 33-23.5 56.5T800-80H160q-33 0-56.5-23.5T80-160Zm220-280v-160h360v160H300Zm291.5 128.5Q580-323 580-340t11.5-28.5Q603-380 620-380t28.5 11.5Q660-357 660-340t-11.5 28.5Q637-300 620-300t-28.5-11.5Zm-280 0Q300-323 300-340t11.5-28.5Q323-380 340-380t28.5 11.5Q380-357 380-340t-11.5 28.5Q357-300 340-300t-28.5-11.5ZM424-220h110l51 51q5 5 10.5 7t11.5 2q20 0 27.5-19t-6.5-33l-10-10q44-6 73-39.5t29-78.5v-260q0-78-70-99t-170-21q-91 0-165.5 21T240-600v260q0 45 29 78.5t73 39.5l-11 11q-14 14-6.5 32.5T352-160q6 0 11-2t10-7l51-51Z"
     id="path1"
     style="fill:#848484;fill-opacity:1" />
</svg>
