<?xml version="1.0" encoding="UTF-8" standalone="no"?>
<svg
   height="24px"
   viewBox="0 -960 960 960"
   width="24px"
   fill="#FFFFFF"
   version="1.1"
   id="svg1"
   sodipodi:docname="search-dark.svg"
   inkscape:version="1.3 (0e150ed6c4, 2023-07-21)"
   xmlns:inkscape="http://www.inkscape.org/namespaces/inkscape"
   xmlns:sodipodi="http://sodipodi.sourceforge.net/DTD/sodipodi-0.dtd"
   xmlns="http://www.w3.org/2000/svg"
   xmlns:svg="http://www.w3.org/2000/svg">
  <defs
     id="defs1" />
  <sodipodi:namedview
     id="namedview1"
     pagecolor="#ffffff"
     bordercolor="#000000"
     borderopacity="0.25"
     inkscape:showpageshadow="2"
     inkscape:pageopacity="0.0"
     inkscape:pagecheckerboard="0"
     inkscape:deskcolor="#d1d1d1"
     inkscape:zoom="43.625"
     inkscape:cx="12.011461"
     inkscape:cy="12"
     inkscape:window-width="2400"
     inkscape:window-height="1261"
     inkscape:window-x="-9"
     inkscape:window-y="-9"
     inkscape:window-maximized="1"
     inkscape:current-layer="svg1" />
  <path
     d="M380-320q-109 0-184.5-75.5T120-580q0-109 75.5-184.5T380-840q109 0 184.5 75.5T640-580q0 44-14 83t-38 69l224 224q11 11 11 28t-11 28q-11 11-28 11t-28-11L532-372q-30 24-69 38t-83 14Zm0-80q75 0 127.5-52.5T560-580q0-75-52.5-127.5T380-760q-75 0-127.5 52.5T200-580q0 75 52.5 127.5T380-400Z"
     id="path1"
     style="fill:#ffffff;fill-opacity:1" />
</svg>
