<?xml version="1.0" encoding="UTF-8" standalone="no"?>
<svg
   height="24px"
   viewBox="0 -960 960 960"
   width="24px"
   fill="#5a5a5a"
   version="1.1"
   id="svg1"
   sodipodi:docname="train_station.svg"
   inkscape:version="1.3 (0e150ed6c4, 2023-07-21)"
   xmlns:inkscape="http://www.inkscape.org/namespaces/inkscape"
   xmlns:sodipodi="http://sodipodi.sourceforge.net/DTD/sodipodi-0.dtd"
   xmlns="http://www.w3.org/2000/svg"
   xmlns:svg="http://www.w3.org/2000/svg">
  <defs
     id="defs1" />
  <sodipodi:namedview
     id="namedview1"
     pagecolor="#ffffff"
     bordercolor="#000000"
     borderopacity="0.25"
     inkscape:showpageshadow="2"
     inkscape:pageopacity="0.0"
     inkscape:pagecheckerboard="0"
     inkscape:deskcolor="#d1d1d1"
     inkscape:zoom="43.625"
     inkscape:cx="11.988539"
     inkscape:cy="12"
     inkscape:window-width="2400"
     inkscape:window-height="1261"
     inkscape:window-x="-9"
     inkscape:window-y="-9"
     inkscape:window-maximized="1"
     inkscape:current-layer="svg1" />
  <path
     d="M300-200q-59 0-99.5-40.5T160-340v-380q0-83 77-121.5T480-880q172 0 246 37t74 123v380q0 59-40.5 99.5T660-200l65 43q12 8 8 22.5T714-120H246q-15 0-19-14.5t8-22.5l65-43Zm-60-360h200v-120H240v120Zm280 0h200v-120H520v120ZM382.5-337.5Q400-355 400-380t-17.5-42.5Q365-440 340-440t-42.5 17.5Q280-405 280-380t17.5 42.5Q315-320 340-320t42.5-17.5Zm280 0Q680-355 680-380t-17.5-42.5Q645-440 620-440t-42.5 17.5Q560-405 560-380t17.5 42.5Q595-320 620-320t42.5-17.5Z"
     id="path1"
     style="fill:#848484;fill-opacity:1" />
</svg>
