<svg width="628" height="286" viewBox="0 0 628 286" fill="none" xmlns="http://www.w3.org/2000/svg">
<g clip-path="url(#clip0_3_139)">
<rect x="-35" width="663" height="286" fill="url(#paint0_linear_3_139)"/>
<rect x="469" y="217" width="10" height="67" fill="#1C1C1C"/>
<rect x="534" y="217" width="10" height="67" fill="#1C1C1C"/>
<path d="M103 49.5L0 138.5L-47.5 204.5L27.5 403L605 235L648.5 197V144L610 77L599.5 113H579.5L556 153.5L521 94L445.5 161L363 44.5L326 94L282 113L250.5 173L202.5 113L145.5 153.5L103 49.5Z" fill="url(#paint1_linear_3_139)"/>
<path d="M498.284 127.891L601.432 197.155L649 248.519L573.892 403L-4.4375 272.255L-48 242.682V201.435L-9.44464 149.293L1.07043 177.31H21.0992L44.6329 208.828L79.6832 162.523L155.292 214.665L237.91 124L274.963 162.523L319.027 177.31L350.572 214.665L386.624 177.31L455.723 208.828L498.284 127.891Z" fill="url(#paint2_linear_3_139)"/>
<path d="M402.483 160.362L435.845 173.397V307L402.483 257.034V160.362Z" fill="#1D2D32"/>
<path d="M390.069 139.724L423.431 152.759V236.397H390.069V139.724Z" fill="#1D2D32"/>
<path d="M395.888 118L416.448 125.603V209.241H383.086L395.888 118Z" fill="#1D2D32"/>
<path d="M328 160.362L361.362 173.397V259.5H328V160.362Z" fill="#1D2D32"/>
<rect x="361.362" y="144.069" width="41.1207" height="112.966" fill="#3A4960"/>
<rect x="366.793" y="118" width="29.4828" height="112.966" fill="#3A4960"/>
<path d="M289.121 243.362L322.483 256.397V390L289.121 340.034V243.362Z" fill="#3A4960"/>
<path d="M276.707 222.724L310.069 235.759V319.397H276.707V222.724Z" fill="#3A4960"/>
<path d="M282.526 201L303.086 208.603V292.241H269.724L282.526 201Z" fill="#3A4960"/>
<rect x="248" y="227.069" width="41.1207" height="112.966" fill="#3A4960"/>
<rect x="253.431" y="201" width="29.4828" height="112.966" fill="#3A4960"/>
<path d="M321.483 177.362L354.845 190.397V324L321.483 274.034V177.362Z" fill="#1D2D32"/>
<path d="M309.069 156.724L342.431 169.759V253.397H309.069V156.724Z" fill="#1D2D32"/>
<path d="M314.888 135L335.448 142.603V226.241H302.086L314.888 135Z" fill="#1D2D32"/>
<rect x="280.362" y="161.069" width="41.1207" height="112.966" fill="#3A4960"/>
<rect x="285.793" y="135" width="29.4828" height="112.966" fill="#3A4960"/>
<path d="M469.483 191.362L502.845 204.397V338L469.483 288.034V191.362Z" fill="#1D2D32"/>
<path d="M457.069 170.724L490.431 183.759V267.397H457.069V170.724Z" fill="#1D2D32"/>
<path d="M462.888 149L483.448 156.603V240.241H450.086L462.888 149Z" fill="#1D2D32"/>
<rect x="428.362" y="175.069" width="41.1207" height="112.966" fill="#3A4960"/>
<rect x="433.793" y="149" width="29.4828" height="112.966" fill="#3A4960"/>
<path d="M-100 217H637V228H-100V217Z" fill="#1C1C1C"/>
<rect x="409" y="217" width="10" height="67" fill="#1C1C1C"/>
<rect x="275" y="217" width="10" height="67" fill="#1C1C1C"/>
<rect x="342" y="217" width="10" height="67" fill="#1C1C1C"/>
<path d="M328 208C328 206.895 328.895 206 330 206H362C363.105 206 364 206.895 364 208V217H328V208Z" fill="#081F43"/>
<rect x="329" y="208" width="6" height="4" rx="1" fill="url(#paint3_radial_3_139)"/>
<rect x="336" y="208" width="6" height="4" rx="1" fill="url(#paint4_radial_3_139)"/>
<rect x="343" y="208" width="6" height="4" rx="1" fill="url(#paint5_radial_3_139)"/>
<rect x="350" y="208" width="6" height="4" rx="1" fill="url(#paint6_radial_3_139)"/>
<rect x="357" y="208" width="6" height="4" rx="1" fill="url(#paint7_radial_3_139)"/>
<rect x="328" y="213" width="36" height="1" fill="#F40000"/>
<path d="M366.161 207.581C366.359 206.659 367.174 206 368.117 206H397.883C398.826 206 399.641 206.659 399.839 207.581L401 213V217H365V213L366.161 207.581Z" fill="#081F43"/>
<path d="M384 209C384 208.448 384.448 208 385 208H392C392.552 208 393 208.448 393 209V211C393 211.552 392.552 212 392 212H385C384.448 212 384 211.552 384 211V209Z" fill="#222239"/>
<rect x="373" y="208" width="9" height="4" rx="1" fill="#222239"/>
<path d="M367.311 208.757C367.422 208.312 367.822 208 368.281 208H369.5C370.052 208 370.5 208.448 370.5 209V211C370.5 211.552 370.052 212 369.5 212H367.781C367.13 212 366.653 211.389 366.811 210.757L367.311 208.757Z" fill="url(#paint8_radial_3_139)"/>
<path d="M395 209C395 208.448 395.448 208 396 208H397.219C397.678 208 398.078 208.312 398.189 208.757L398.689 210.757C398.847 211.389 398.37 212 397.719 212H396C395.448 212 395 211.552 395 211V209Z" fill="url(#paint9_radial_3_139)"/>
<path d="M365 214H386.474C388.814 214 391.122 214.547 393.212 215.598L394.87 216.432C395.153 216.574 395.052 217 394.735 217H384.984L389.26 216.612C389.605 216.581 389.689 216.114 389.376 215.965V215.965C387.69 215.164 385.857 214.717 383.991 214.653L365 214Z" fill="#636363"/>
<path d="M365 213H388.754C391.53 213 394.252 213.77 396.616 215.225L398.597 216.445C398.855 216.603 398.743 217 398.44 217H387.5L392.523 216.581C392.836 216.555 392.935 216.147 392.669 215.981V215.981C390.598 214.686 388.205 214 385.763 214H365V213Z" fill="#F40000"/>
<path d="M291 208C291 206.895 291.895 206 293 206H325C326.105 206 327 206.895 327 208V217H291V208Z" fill="#081F43"/>
<rect x="292" y="208" width="6" height="4" rx="1" fill="url(#paint10_radial_3_139)"/>
<rect x="299" y="208" width="6" height="4" rx="1" fill="url(#paint11_radial_3_139)"/>
<rect x="306" y="208" width="6" height="4" rx="1" fill="url(#paint12_radial_3_139)"/>
<rect x="313" y="208" width="6" height="4" rx="1" fill="url(#paint13_radial_3_139)"/>
<rect x="320" y="208" width="6" height="4" rx="1" fill="url(#paint14_radial_3_139)"/>
<rect x="291" y="213" width="36" height="1" fill="#F40000"/>
<path d="M254 208C254 206.895 254.895 206 256 206H288C289.105 206 290 206.895 290 208V217H254V208Z" fill="#081F43"/>
<rect x="255" y="208" width="6" height="4" rx="1" fill="url(#paint15_radial_3_139)"/>
<rect x="262" y="208" width="6" height="4" rx="1" fill="url(#paint16_radial_3_139)"/>
<rect x="269" y="208" width="6" height="4" rx="1" fill="url(#paint17_radial_3_139)"/>
<rect x="276" y="208" width="6" height="4" rx="1" fill="url(#paint18_radial_3_139)"/>
<rect x="283" y="208" width="6" height="4" rx="1" fill="url(#paint19_radial_3_139)"/>
<rect x="254" y="213" width="36" height="1" fill="#F40000"/>
<path d="M217 208C217 206.895 217.895 206 219 206H251C252.105 206 253 206.895 253 208V217H217V208Z" fill="#081F43"/>
<rect x="218" y="208" width="6" height="4" rx="1" fill="url(#paint20_radial_3_139)"/>
<rect x="225" y="208" width="6" height="4" rx="1" fill="url(#paint21_radial_3_139)"/>
<rect x="232" y="208" width="6" height="4" rx="1" fill="url(#paint22_radial_3_139)"/>
<rect x="239" y="208" width="6" height="4" rx="1" fill="url(#paint23_radial_3_139)"/>
<rect x="246" y="208" width="6" height="4" rx="1" fill="url(#paint24_radial_3_139)"/>
<rect x="217" y="213" width="36" height="1" fill="#F40000"/>
<path d="M180 208C180 206.895 180.895 206 182 206H214C215.105 206 216 206.895 216 208V217H180V208Z" fill="#081F43"/>
<rect x="181" y="208" width="6" height="4" rx="1" fill="url(#paint25_radial_3_139)"/>
<rect x="188" y="208" width="6" height="4" rx="1" fill="url(#paint26_radial_3_139)"/>
<rect x="195" y="208" width="6" height="4" rx="1" fill="url(#paint27_radial_3_139)"/>
<rect x="202" y="208" width="6" height="4" rx="1" fill="url(#paint28_radial_3_139)"/>
<rect x="209" y="208" width="6" height="4" rx="1" fill="url(#paint29_radial_3_139)"/>
<rect x="180" y="213" width="36" height="1" fill="#F40000"/>
<path d="M143 208C143 206.895 143.895 206 145 206H177C178.105 206 179 206.895 179 208V217H143V208Z" fill="#081F43"/>
<rect x="144" y="208" width="6" height="4" rx="1" fill="url(#paint30_radial_3_139)"/>
<rect x="151" y="208" width="6" height="4" rx="1" fill="url(#paint31_radial_3_139)"/>
<rect x="158" y="208" width="6" height="4" rx="1" fill="url(#paint32_radial_3_139)"/>
<rect x="165" y="208" width="6" height="4" rx="1" fill="url(#paint33_radial_3_139)"/>
<rect x="172" y="208" width="6" height="4" rx="1" fill="url(#paint34_radial_3_139)"/>
<rect x="143" y="213" width="36" height="1" fill="#F40000"/>
<path d="M106 208C106 206.895 106.895 206 108 206H140C141.105 206 142 206.895 142 208V217H106V208Z" fill="#081F43"/>
<rect x="107" y="208" width="6" height="4" rx="1" fill="url(#paint35_radial_3_139)"/>
<rect x="114" y="208" width="6" height="4" rx="1" fill="url(#paint36_radial_3_139)"/>
<rect x="121" y="208" width="6" height="4" rx="1" fill="url(#paint37_radial_3_139)"/>
<rect x="128" y="208" width="6" height="4" rx="1" fill="url(#paint38_radial_3_139)"/>
<rect x="135" y="208" width="6" height="4" rx="1" fill="url(#paint39_radial_3_139)"/>
<rect x="106" y="213" width="36" height="1" fill="#F40000"/>
<ellipse cx="551.5" cy="306" rx="232.5" ry="89" fill="#24434D"/>
<ellipse cx="615.5" cy="308.5" rx="197.5" ry="102.5" fill="url(#paint40_linear_3_139)"/>
<ellipse cx="645.5" cy="332" rx="128.5" ry="98" fill="url(#paint41_linear_3_139)"/>
<ellipse cx="501.5" cy="355" rx="140.5" ry="98" fill="url(#paint42_linear_3_139)"/>
<ellipse cx="232.5" cy="89" rx="232.5" ry="89" transform="matrix(-1 0 0 1 375 217)" fill="#272E42"/>
<ellipse cx="197.5" cy="102.5" rx="197.5" ry="102.5" transform="matrix(-1 0 0 1 276 206)" fill="url(#paint43_linear_3_139)"/>
<ellipse cx="128.5" cy="98" rx="128.5" ry="98" transform="matrix(-1 0 0 1 177 234)" fill="url(#paint44_linear_3_139)"/>
<ellipse cx="128.5" cy="98" rx="128.5" ry="98" transform="matrix(-1 0 0 1 309 257)" fill="url(#paint45_linear_3_139)"/>
<rect x="476" y="200" width="20" height="16" rx="8" fill="url(#paint46_radial_3_139)"/>
<path d="M486 222.5V215M486 205V210.5M481 205.5L486 210.5M486 210.5V215M486 215L491.5 209.5" stroke="#7E7676"/>
<rect x="537" y="198" width="20" height="16" rx="8" fill="url(#paint47_radial_3_139)"/>
<path d="M547 220.5V213M547 203V208.5M542 203.5L547 208.5M547 208.5V213M547 213L552.5 207.5" stroke="#7E7676"/>
<rect x="500" y="208" width="20" height="16" rx="8" fill="url(#paint48_radial_3_139)"/>
<path d="M510 230.5V223M510 213V218.5M505 213.5L510 218.5M510 218.5V223M510 223L515.5 217.5" stroke="#7E7676"/>
<rect x="453" y="234" width="20" height="16" rx="8" fill="url(#paint49_radial_3_139)"/>
<path d="M463 256.5V249M463 239V244.5M458 239.5L463 244.5M463 244.5V249M463 249L468.5 243.5" stroke="#7E7676"/>
<rect x="295" y="223" width="20" height="16" rx="8" fill="url(#paint50_radial_3_139)"/>
<path d="M305 245.5V238M305 228V233.5M300 228.5L305 233.5M305 233.5V238M305 238L310.5 232.5" stroke="#7E7676"/>
<rect x="226" y="204" width="20" height="16" rx="8" fill="url(#paint51_radial_3_139)"/>
<path d="M236 226.5V219M236 209V214.5M231 209.5L236 214.5M236 214.5V219M236 219L241.5 213.5" stroke="#7E7676"/>
<rect x="187" y="236" width="20" height="16" rx="8" fill="url(#paint52_radial_3_139)"/>
<path d="M197 258.5V251M197 241V246.5M192 241.5L197 246.5M197 246.5V251M197 251L202.5 245.5" stroke="#7E7676"/>
<rect x="28" y="205" width="20" height="16" rx="8" fill="url(#paint53_radial_3_139)"/>
<path d="M38 227.5V220M38 210V215.5M33 210.5L38 215.5M38 215.5V220M38 220L43.5 214.5" stroke="#7E7676"/>
<rect x="398" y="50" width="36" height="36" rx="18" fill="url(#paint54_radial_3_139)"/>
<rect x="468" y="82" width="36" height="36" rx="18" fill="url(#paint55_radial_3_139)"/>
<rect x="521" y="32" width="36" height="36" rx="18" fill="url(#paint56_radial_3_139)"/>
<rect x="461" y="26" width="36" height="36" rx="18" fill="url(#paint57_radial_3_139)"/>
<rect x="240" y="22" width="36" height="36" rx="18" fill="url(#paint58_radial_3_139)"/>
<rect x="20" y="50" width="36" height="36" rx="18" fill="url(#paint59_radial_3_139)"/>
<rect x="141" y="91" width="36" height="36" rx="18" fill="url(#paint60_radial_3_139)"/>
<rect x="331" width="36" height="36" rx="18" fill="url(#paint61_radial_3_139)"/>
<rect x="574" y="65" width="36" height="36" rx="18" fill="url(#paint62_radial_3_139)"/>
<rect x="237" y="73" width="36" height="36" rx="18" fill="url(#paint63_radial_3_139)"/>
<rect x="194" y="-14" width="36" height="36" rx="18" fill="url(#paint64_radial_3_139)"/>
<rect x="186" y="60" width="26" height="26" rx="13" fill="url(#paint65_radial_3_139)"/>
<rect x="-11" y="23" width="26" height="26" rx="13" fill="url(#paint66_radial_3_139)"/>
<rect x="303" y="68" width="26" height="26" rx="13" fill="url(#paint67_radial_3_139)"/>
<rect x="290" y="18" width="26" height="26" rx="13" fill="url(#paint68_radial_3_139)"/>
<rect x="180" y="18" width="26" height="26" rx="13" fill="url(#paint69_radial_3_139)"/>
<rect x="49" y="19" width="26" height="26" rx="13" fill="url(#paint70_radial_3_139)"/>
<rect x="406" y="27" width="26" height="26" rx="13" fill="url(#paint71_radial_3_139)"/>
<rect x="428" y="98" width="26" height="26" rx="13" fill="url(#paint72_radial_3_139)"/>
<rect x="510" y="58" width="26" height="26" rx="13" fill="url(#paint73_radial_3_139)"/>
<rect x="537" y="5" width="26" height="26" rx="13" fill="url(#paint74_radial_3_139)"/>
<rect x="537" y="109" width="26" height="26" rx="13" fill="url(#paint75_radial_3_139)"/>
<rect x="579" y="14" width="26" height="26" rx="13" fill="url(#paint76_radial_3_139)"/>
<rect x="485" y="-13" width="26" height="26" rx="13" fill="url(#paint77_radial_3_139)"/>
<rect x="134" y="22" width="36" height="36" rx="18" fill="url(#paint78_radial_3_139)"/>
<rect x="74" y="-14" width="36" height="36" rx="18" fill="url(#paint79_radial_3_139)"/>
<rect x="610" y="28" width="36" height="36" rx="18" fill="url(#paint80_radial_3_139)"/>
</g>
<defs>
<linearGradient id="paint0_linear_3_139" x1="296.5" y1="0" x2="296.5" y2="286" gradientUnits="userSpaceOnUse">
<stop stop-color="#240D26"/>
<stop offset="1" stop-color="#130431"/>
</linearGradient>
<linearGradient id="paint1_linear_3_139" x1="300.5" y1="44.5" x2="300.5" y2="403" gradientUnits="userSpaceOnUse">
<stop stop-color="#CBCBC8" stop-opacity="0"/>
<stop offset="0.573946" stop-color="#CBCBCB" stop-opacity="0.3"/>
</linearGradient>
<linearGradient id="paint2_linear_3_139" x1="300.5" y1="124" x2="300.5" y2="403" gradientUnits="userSpaceOnUse">
<stop stop-color="#CBCBC8" stop-opacity="0"/>
<stop offset="0.573946" stop-color="#CBCBCB" stop-opacity="0.3"/>
</linearGradient>
<radialGradient id="paint3_radial_3_139" cx="0" cy="0" r="1" gradientUnits="userSpaceOnUse" gradientTransform="translate(330 209.5) rotate(32.4712) scale(6.5192 9.7788)">
<stop stop-color="#ACACAC"/>
<stop offset="1" stop-color="#92984A"/>
</radialGradient>
<radialGradient id="paint4_radial_3_139" cx="0" cy="0" r="1" gradientUnits="userSpaceOnUse" gradientTransform="translate(337 209.5) rotate(32.4712) scale(6.5192 9.7788)">
<stop stop-color="#ACACAC"/>
<stop offset="1" stop-color="#92984A"/>
</radialGradient>
<radialGradient id="paint5_radial_3_139" cx="0" cy="0" r="1" gradientUnits="userSpaceOnUse" gradientTransform="translate(344 209.5) rotate(32.4712) scale(6.5192 9.7788)">
<stop stop-color="#ACACAC"/>
<stop offset="1" stop-color="#92984A"/>
</radialGradient>
<radialGradient id="paint6_radial_3_139" cx="0" cy="0" r="1" gradientUnits="userSpaceOnUse" gradientTransform="translate(351 209.5) rotate(32.4712) scale(6.5192 9.7788)">
<stop stop-color="#ACACAC"/>
<stop offset="1" stop-color="#92984A"/>
</radialGradient>
<radialGradient id="paint7_radial_3_139" cx="0" cy="0" r="1" gradientUnits="userSpaceOnUse" gradientTransform="translate(358 209.5) rotate(32.4712) scale(6.5192 9.7788)">
<stop stop-color="#ACACAC"/>
<stop offset="1" stop-color="#92984A"/>
</radialGradient>
<radialGradient id="paint8_radial_3_139" cx="0" cy="0" r="1" gradientUnits="userSpaceOnUse" gradientTransform="translate(367 209.5) rotate(32.4712) scale(6.5192 9.7788)">
<stop stop-color="#ACACAC"/>
<stop offset="1" stop-color="#92984A"/>
</radialGradient>
<radialGradient id="paint9_radial_3_139" cx="0" cy="0" r="1" gradientUnits="userSpaceOnUse" gradientTransform="translate(394 209.5) rotate(32.4712) scale(6.5192 9.7788)">
<stop stop-color="#ACACAC"/>
<stop offset="1" stop-color="#92984A"/>
</radialGradient>
<radialGradient id="paint10_radial_3_139" cx="0" cy="0" r="1" gradientUnits="userSpaceOnUse" gradientTransform="translate(293 209.5) rotate(32.4712) scale(6.5192 9.7788)">
<stop stop-color="#ACACAC"/>
<stop offset="1" stop-color="#92984A"/>
</radialGradient>
<radialGradient id="paint11_radial_3_139" cx="0" cy="0" r="1" gradientUnits="userSpaceOnUse" gradientTransform="translate(300 209.5) rotate(32.4712) scale(6.5192 9.7788)">
<stop stop-color="#ACACAC"/>
<stop offset="1" stop-color="#92984A"/>
</radialGradient>
<radialGradient id="paint12_radial_3_139" cx="0" cy="0" r="1" gradientUnits="userSpaceOnUse" gradientTransform="translate(307 209.5) rotate(32.4712) scale(6.5192 9.7788)">
<stop stop-color="#ACACAC"/>
<stop offset="1" stop-color="#92984A"/>
</radialGradient>
<radialGradient id="paint13_radial_3_139" cx="0" cy="0" r="1" gradientUnits="userSpaceOnUse" gradientTransform="translate(314 209.5) rotate(32.4712) scale(6.5192 9.7788)">
<stop stop-color="#ACACAC"/>
<stop offset="1" stop-color="#92984A"/>
</radialGradient>
<radialGradient id="paint14_radial_3_139" cx="0" cy="0" r="1" gradientUnits="userSpaceOnUse" gradientTransform="translate(321 209.5) rotate(32.4712) scale(6.5192 9.7788)">
<stop stop-color="#ACACAC"/>
<stop offset="1" stop-color="#92984A"/>
</radialGradient>
<radialGradient id="paint15_radial_3_139" cx="0" cy="0" r="1" gradientUnits="userSpaceOnUse" gradientTransform="translate(256 209.5) rotate(32.4712) scale(6.5192 9.7788)">
<stop stop-color="#ACACAC"/>
<stop offset="1" stop-color="#92984A"/>
</radialGradient>
<radialGradient id="paint16_radial_3_139" cx="0" cy="0" r="1" gradientUnits="userSpaceOnUse" gradientTransform="translate(263 209.5) rotate(32.4712) scale(6.5192 9.7788)">
<stop stop-color="#ACACAC"/>
<stop offset="1" stop-color="#92984A"/>
</radialGradient>
<radialGradient id="paint17_radial_3_139" cx="0" cy="0" r="1" gradientUnits="userSpaceOnUse" gradientTransform="translate(270 209.5) rotate(32.4712) scale(6.5192 9.7788)">
<stop stop-color="#ACACAC"/>
<stop offset="1" stop-color="#92984A"/>
</radialGradient>
<radialGradient id="paint18_radial_3_139" cx="0" cy="0" r="1" gradientUnits="userSpaceOnUse" gradientTransform="translate(277 209.5) rotate(32.4712) scale(6.5192 9.7788)">
<stop stop-color="#ACACAC"/>
<stop offset="1" stop-color="#92984A"/>
</radialGradient>
<radialGradient id="paint19_radial_3_139" cx="0" cy="0" r="1" gradientUnits="userSpaceOnUse" gradientTransform="translate(284 209.5) rotate(32.4712) scale(6.5192 9.7788)">
<stop stop-color="#ACACAC"/>
<stop offset="1" stop-color="#92984A"/>
</radialGradient>
<radialGradient id="paint20_radial_3_139" cx="0" cy="0" r="1" gradientUnits="userSpaceOnUse" gradientTransform="translate(219 209.5) rotate(32.4712) scale(6.5192 9.7788)">
<stop stop-color="#ACACAC"/>
<stop offset="1" stop-color="#92984A"/>
</radialGradient>
<radialGradient id="paint21_radial_3_139" cx="0" cy="0" r="1" gradientUnits="userSpaceOnUse" gradientTransform="translate(226 209.5) rotate(32.4712) scale(6.5192 9.7788)">
<stop stop-color="#ACACAC"/>
<stop offset="1" stop-color="#92984A"/>
</radialGradient>
<radialGradient id="paint22_radial_3_139" cx="0" cy="0" r="1" gradientUnits="userSpaceOnUse" gradientTransform="translate(233 209.5) rotate(32.4712) scale(6.5192 9.7788)">
<stop stop-color="#ACACAC"/>
<stop offset="1" stop-color="#92984A"/>
</radialGradient>
<radialGradient id="paint23_radial_3_139" cx="0" cy="0" r="1" gradientUnits="userSpaceOnUse" gradientTransform="translate(240 209.5) rotate(32.4712) scale(6.5192 9.7788)">
<stop stop-color="#ACACAC"/>
<stop offset="1" stop-color="#92984A"/>
</radialGradient>
<radialGradient id="paint24_radial_3_139" cx="0" cy="0" r="1" gradientUnits="userSpaceOnUse" gradientTransform="translate(247 209.5) rotate(32.4712) scale(6.5192 9.7788)">
<stop stop-color="#ACACAC"/>
<stop offset="1" stop-color="#92984A"/>
</radialGradient>
<radialGradient id="paint25_radial_3_139" cx="0" cy="0" r="1" gradientUnits="userSpaceOnUse" gradientTransform="translate(182 209.5) rotate(32.4712) scale(6.5192 9.7788)">
<stop stop-color="#ACACAC"/>
<stop offset="1" stop-color="#92984A"/>
</radialGradient>
<radialGradient id="paint26_radial_3_139" cx="0" cy="0" r="1" gradientUnits="userSpaceOnUse" gradientTransform="translate(189 209.5) rotate(32.4712) scale(6.5192 9.7788)">
<stop stop-color="#ACACAC"/>
<stop offset="1" stop-color="#92984A"/>
</radialGradient>
<radialGradient id="paint27_radial_3_139" cx="0" cy="0" r="1" gradientUnits="userSpaceOnUse" gradientTransform="translate(196 209.5) rotate(32.4712) scale(6.5192 9.7788)">
<stop stop-color="#ACACAC"/>
<stop offset="1" stop-color="#92984A"/>
</radialGradient>
<radialGradient id="paint28_radial_3_139" cx="0" cy="0" r="1" gradientUnits="userSpaceOnUse" gradientTransform="translate(203 209.5) rotate(32.4712) scale(6.5192 9.7788)">
<stop stop-color="#ACACAC"/>
<stop offset="1" stop-color="#92984A"/>
</radialGradient>
<radialGradient id="paint29_radial_3_139" cx="0" cy="0" r="1" gradientUnits="userSpaceOnUse" gradientTransform="translate(210 209.5) rotate(32.4712) scale(6.5192 9.7788)">
<stop stop-color="#ACACAC"/>
<stop offset="1" stop-color="#92984A"/>
</radialGradient>
<radialGradient id="paint30_radial_3_139" cx="0" cy="0" r="1" gradientUnits="userSpaceOnUse" gradientTransform="translate(145 209.5) rotate(32.4712) scale(6.5192 9.7788)">
<stop stop-color="#ACACAC"/>
<stop offset="1" stop-color="#92984A"/>
</radialGradient>
<radialGradient id="paint31_radial_3_139" cx="0" cy="0" r="1" gradientUnits="userSpaceOnUse" gradientTransform="translate(152 209.5) rotate(32.4712) scale(6.5192 9.7788)">
<stop stop-color="#ACACAC"/>
<stop offset="1" stop-color="#92984A"/>
</radialGradient>
<radialGradient id="paint32_radial_3_139" cx="0" cy="0" r="1" gradientUnits="userSpaceOnUse" gradientTransform="translate(159 209.5) rotate(32.4712) scale(6.5192 9.7788)">
<stop stop-color="#ACACAC"/>
<stop offset="1" stop-color="#92984A"/>
</radialGradient>
<radialGradient id="paint33_radial_3_139" cx="0" cy="0" r="1" gradientUnits="userSpaceOnUse" gradientTransform="translate(166 209.5) rotate(32.4712) scale(6.5192 9.7788)">
<stop stop-color="#ACACAC"/>
<stop offset="1" stop-color="#92984A"/>
</radialGradient>
<radialGradient id="paint34_radial_3_139" cx="0" cy="0" r="1" gradientUnits="userSpaceOnUse" gradientTransform="translate(173 209.5) rotate(32.4712) scale(6.5192 9.7788)">
<stop stop-color="#ACACAC"/>
<stop offset="1" stop-color="#92984A"/>
</radialGradient>
<radialGradient id="paint35_radial_3_139" cx="0" cy="0" r="1" gradientUnits="userSpaceOnUse" gradientTransform="translate(108 209.5) rotate(32.4712) scale(6.5192 9.7788)">
<stop stop-color="#ACACAC"/>
<stop offset="1" stop-color="#92984A"/>
</radialGradient>
<radialGradient id="paint36_radial_3_139" cx="0" cy="0" r="1" gradientUnits="userSpaceOnUse" gradientTransform="translate(115 209.5) rotate(32.4712) scale(6.5192 9.7788)">
<stop stop-color="#ACACAC"/>
<stop offset="1" stop-color="#92984A"/>
</radialGradient>
<radialGradient id="paint37_radial_3_139" cx="0" cy="0" r="1" gradientUnits="userSpaceOnUse" gradientTransform="translate(122 209.5) rotate(32.4712) scale(6.5192 9.7788)">
<stop stop-color="#ACACAC"/>
<stop offset="1" stop-color="#92984A"/>
</radialGradient>
<radialGradient id="paint38_radial_3_139" cx="0" cy="0" r="1" gradientUnits="userSpaceOnUse" gradientTransform="translate(129 209.5) rotate(32.4712) scale(6.5192 9.7788)">
<stop stop-color="#ACACAC"/>
<stop offset="1" stop-color="#92984A"/>
</radialGradient>
<radialGradient id="paint39_radial_3_139" cx="0" cy="0" r="1" gradientUnits="userSpaceOnUse" gradientTransform="translate(136 209.5) rotate(32.4712) scale(6.5192 9.7788)">
<stop stop-color="#ACACAC"/>
<stop offset="1" stop-color="#92984A"/>
</radialGradient>
<linearGradient id="paint40_linear_3_139" x1="444.726" y1="269" x2="591.416" y2="253.037" gradientUnits="userSpaceOnUse">
<stop stop-color="#15262B"/>
<stop offset="1" stop-color="#103E41"/>
</linearGradient>
<linearGradient id="paint41_linear_3_139" x1="534.389" y1="294.234" x2="697.659" y2="432.179" gradientUnits="userSpaceOnUse">
<stop stop-color="#1B2A50"/>
<stop offset="1" stop-color="#376B52"/>
</linearGradient>
<linearGradient id="paint42_linear_3_139" x1="380.013" y1="317.234" x2="545.089" y2="469.729" gradientUnits="userSpaceOnUse">
<stop stop-color="#1B2A50"/>
<stop offset="1" stop-color="#376B52"/>
</linearGradient>
<linearGradient id="paint43_linear_3_139" x1="26.7259" y1="63" x2="173.416" y2="47.0374" gradientUnits="userSpaceOnUse">
<stop stop-color="#15262B"/>
<stop offset="1" stop-color="#103E41"/>
</linearGradient>
<linearGradient id="paint44_linear_3_139" x1="17.3888" y1="60.2341" x2="180.659" y2="198.179" gradientUnits="userSpaceOnUse">
<stop stop-color="#1B2A50"/>
<stop offset="1" stop-color="#376B52"/>
</linearGradient>
<linearGradient id="paint45_linear_3_139" x1="17.3888" y1="60.2341" x2="180.659" y2="198.179" gradientUnits="userSpaceOnUse">
<stop stop-color="#1B2A50"/>
<stop offset="1" stop-color="#376B52"/>
</linearGradient>
<radialGradient id="paint46_radial_3_139" cx="0" cy="0" r="1" gradientUnits="userSpaceOnUse" gradientTransform="translate(492.25 202.5) rotate(114.842) scale(14.8766 17.4141)">
<stop stop-color="#305F49"/>
<stop offset="1" stop-color="#2E4339"/>
</radialGradient>
<radialGradient id="paint47_radial_3_139" cx="0" cy="0" r="1" gradientUnits="userSpaceOnUse" gradientTransform="translate(553.25 200.5) rotate(114.842) scale(14.8766 17.4141)">
<stop stop-color="#305F49"/>
<stop offset="1" stop-color="#2E4339"/>
</radialGradient>
<radialGradient id="paint48_radial_3_139" cx="0" cy="0" r="1" gradientUnits="userSpaceOnUse" gradientTransform="translate(516.25 210.5) rotate(114.842) scale(14.8766 17.4141)">
<stop stop-color="#305F49"/>
<stop offset="1" stop-color="#2E4339"/>
</radialGradient>
<radialGradient id="paint49_radial_3_139" cx="0" cy="0" r="1" gradientUnits="userSpaceOnUse" gradientTransform="translate(469.25 236.5) rotate(114.842) scale(14.8766 17.4141)">
<stop stop-color="#305F49"/>
<stop offset="1" stop-color="#2E4339"/>
</radialGradient>
<radialGradient id="paint50_radial_3_139" cx="0" cy="0" r="1" gradientUnits="userSpaceOnUse" gradientTransform="translate(311.25 225.5) rotate(114.842) scale(14.8766 17.4141)">
<stop stop-color="#305F49"/>
<stop offset="1" stop-color="#2E4339"/>
</radialGradient>
<radialGradient id="paint51_radial_3_139" cx="0" cy="0" r="1" gradientUnits="userSpaceOnUse" gradientTransform="translate(242.25 206.5) rotate(114.842) scale(14.8766 17.4141)">
<stop stop-color="#305F49"/>
<stop offset="1" stop-color="#2E4339"/>
</radialGradient>
<radialGradient id="paint52_radial_3_139" cx="0" cy="0" r="1" gradientUnits="userSpaceOnUse" gradientTransform="translate(203.25 238.5) rotate(114.842) scale(14.8766 17.4141)">
<stop stop-color="#305F49"/>
<stop offset="1" stop-color="#2E4339"/>
</radialGradient>
<radialGradient id="paint53_radial_3_139" cx="0" cy="0" r="1" gradientUnits="userSpaceOnUse" gradientTransform="translate(44.25 207.5) rotate(114.842) scale(14.8766 17.4141)">
<stop stop-color="#305F49"/>
<stop offset="1" stop-color="#2E4339"/>
</radialGradient>
<radialGradient id="paint54_radial_3_139" cx="0" cy="0" r="1" gradientUnits="userSpaceOnUse" gradientTransform="translate(416 68) rotate(90) scale(18)">
<stop stop-color="white" stop-opacity="0.2"/>
<stop offset="0.246667" stop-color="white" stop-opacity="0.04"/>
<stop offset="0.401667" stop-color="white" stop-opacity="0"/>
</radialGradient>
<radialGradient id="paint55_radial_3_139" cx="0" cy="0" r="1" gradientUnits="userSpaceOnUse" gradientTransform="translate(486 100) rotate(90) scale(18)">
<stop stop-color="white" stop-opacity="0.2"/>
<stop offset="0.246667" stop-color="white" stop-opacity="0.04"/>
<stop offset="0.401667" stop-color="white" stop-opacity="0"/>
</radialGradient>
<radialGradient id="paint56_radial_3_139" cx="0" cy="0" r="1" gradientUnits="userSpaceOnUse" gradientTransform="translate(539 50) rotate(90) scale(18)">
<stop stop-color="white" stop-opacity="0.2"/>
<stop offset="0.246667" stop-color="white" stop-opacity="0.04"/>
<stop offset="0.401667" stop-color="white" stop-opacity="0"/>
</radialGradient>
<radialGradient id="paint57_radial_3_139" cx="0" cy="0" r="1" gradientUnits="userSpaceOnUse" gradientTransform="translate(479 44) rotate(90) scale(18)">
<stop stop-color="white" stop-opacity="0.2"/>
<stop offset="0.246667" stop-color="white" stop-opacity="0.04"/>
<stop offset="0.401667" stop-color="white" stop-opacity="0"/>
</radialGradient>
<radialGradient id="paint58_radial_3_139" cx="0" cy="0" r="1" gradientUnits="userSpaceOnUse" gradientTransform="translate(258 40) rotate(90) scale(18)">
<stop stop-color="white" stop-opacity="0.2"/>
<stop offset="0.246667" stop-color="white" stop-opacity="0.04"/>
<stop offset="0.401667" stop-color="white" stop-opacity="0"/>
</radialGradient>
<radialGradient id="paint59_radial_3_139" cx="0" cy="0" r="1" gradientUnits="userSpaceOnUse" gradientTransform="translate(38 68) rotate(90) scale(18)">
<stop stop-color="white" stop-opacity="0.2"/>
<stop offset="0.246667" stop-color="white" stop-opacity="0.04"/>
<stop offset="0.401667" stop-color="white" stop-opacity="0"/>
</radialGradient>
<radialGradient id="paint60_radial_3_139" cx="0" cy="0" r="1" gradientUnits="userSpaceOnUse" gradientTransform="translate(159 109) rotate(90) scale(18)">
<stop stop-color="white" stop-opacity="0.2"/>
<stop offset="0.246667" stop-color="white" stop-opacity="0.04"/>
<stop offset="0.401667" stop-color="white" stop-opacity="0"/>
</radialGradient>
<radialGradient id="paint61_radial_3_139" cx="0" cy="0" r="1" gradientUnits="userSpaceOnUse" gradientTransform="translate(349 18) rotate(90) scale(18)">
<stop stop-color="white" stop-opacity="0.2"/>
<stop offset="0.246667" stop-color="white" stop-opacity="0.04"/>
<stop offset="0.401667" stop-color="white" stop-opacity="0"/>
</radialGradient>
<radialGradient id="paint62_radial_3_139" cx="0" cy="0" r="1" gradientUnits="userSpaceOnUse" gradientTransform="translate(592 83) rotate(90) scale(18)">
<stop stop-color="white" stop-opacity="0.2"/>
<stop offset="0.246667" stop-color="white" stop-opacity="0.04"/>
<stop offset="0.401667" stop-color="white" stop-opacity="0"/>
</radialGradient>
<radialGradient id="paint63_radial_3_139" cx="0" cy="0" r="1" gradientUnits="userSpaceOnUse" gradientTransform="translate(255 91) rotate(90) scale(18)">
<stop stop-color="white" stop-opacity="0.2"/>
<stop offset="0.246667" stop-color="white" stop-opacity="0.04"/>
<stop offset="0.401667" stop-color="white" stop-opacity="0"/>
</radialGradient>
<radialGradient id="paint64_radial_3_139" cx="0" cy="0" r="1" gradientUnits="userSpaceOnUse" gradientTransform="translate(212 4) rotate(90) scale(18)">
<stop stop-color="white" stop-opacity="0.2"/>
<stop offset="0.246667" stop-color="white" stop-opacity="0.04"/>
<stop offset="0.401667" stop-color="white" stop-opacity="0"/>
</radialGradient>
<radialGradient id="paint65_radial_3_139" cx="0" cy="0" r="1" gradientUnits="userSpaceOnUse" gradientTransform="translate(199 73) rotate(90) scale(13)">
<stop stop-color="white" stop-opacity="0.2"/>
<stop offset="0.246667" stop-color="white" stop-opacity="0.04"/>
<stop offset="0.401667" stop-color="white" stop-opacity="0"/>
</radialGradient>
<radialGradient id="paint66_radial_3_139" cx="0" cy="0" r="1" gradientUnits="userSpaceOnUse" gradientTransform="translate(2 36) rotate(90) scale(13)">
<stop stop-color="white" stop-opacity="0.2"/>
<stop offset="0.246667" stop-color="white" stop-opacity="0.04"/>
<stop offset="0.401667" stop-color="white" stop-opacity="0"/>
</radialGradient>
<radialGradient id="paint67_radial_3_139" cx="0" cy="0" r="1" gradientUnits="userSpaceOnUse" gradientTransform="translate(316 81) rotate(90) scale(13)">
<stop stop-color="white" stop-opacity="0.2"/>
<stop offset="0.246667" stop-color="white" stop-opacity="0.04"/>
<stop offset="0.401667" stop-color="white" stop-opacity="0"/>
</radialGradient>
<radialGradient id="paint68_radial_3_139" cx="0" cy="0" r="1" gradientUnits="userSpaceOnUse" gradientTransform="translate(303 31) rotate(90) scale(13)">
<stop stop-color="white" stop-opacity="0.2"/>
<stop offset="0.246667" stop-color="white" stop-opacity="0.04"/>
<stop offset="0.401667" stop-color="white" stop-opacity="0"/>
</radialGradient>
<radialGradient id="paint69_radial_3_139" cx="0" cy="0" r="1" gradientUnits="userSpaceOnUse" gradientTransform="translate(193 31) rotate(90) scale(13)">
<stop stop-color="white" stop-opacity="0.2"/>
<stop offset="0.246667" stop-color="white" stop-opacity="0.04"/>
<stop offset="0.401667" stop-color="white" stop-opacity="0"/>
</radialGradient>
<radialGradient id="paint70_radial_3_139" cx="0" cy="0" r="1" gradientUnits="userSpaceOnUse" gradientTransform="translate(62 32) rotate(90) scale(13)">
<stop stop-color="white" stop-opacity="0.2"/>
<stop offset="0.246667" stop-color="white" stop-opacity="0.04"/>
<stop offset="0.401667" stop-color="white" stop-opacity="0"/>
</radialGradient>
<radialGradient id="paint71_radial_3_139" cx="0" cy="0" r="1" gradientUnits="userSpaceOnUse" gradientTransform="translate(419 40) rotate(90) scale(13)">
<stop stop-color="white" stop-opacity="0.2"/>
<stop offset="0.246667" stop-color="white" stop-opacity="0.04"/>
<stop offset="0.401667" stop-color="white" stop-opacity="0"/>
</radialGradient>
<radialGradient id="paint72_radial_3_139" cx="0" cy="0" r="1" gradientUnits="userSpaceOnUse" gradientTransform="translate(441 111) rotate(90) scale(13)">
<stop stop-color="white" stop-opacity="0.2"/>
<stop offset="0.246667" stop-color="white" stop-opacity="0.04"/>
<stop offset="0.401667" stop-color="white" stop-opacity="0"/>
</radialGradient>
<radialGradient id="paint73_radial_3_139" cx="0" cy="0" r="1" gradientUnits="userSpaceOnUse" gradientTransform="translate(523 71) rotate(90) scale(13)">
<stop stop-color="white" stop-opacity="0.2"/>
<stop offset="0.246667" stop-color="white" stop-opacity="0.04"/>
<stop offset="0.401667" stop-color="white" stop-opacity="0"/>
</radialGradient>
<radialGradient id="paint74_radial_3_139" cx="0" cy="0" r="1" gradientUnits="userSpaceOnUse" gradientTransform="translate(550 18) rotate(90) scale(13)">
<stop stop-color="white" stop-opacity="0.2"/>
<stop offset="0.246667" stop-color="white" stop-opacity="0.04"/>
<stop offset="0.401667" stop-color="white" stop-opacity="0"/>
</radialGradient>
<radialGradient id="paint75_radial_3_139" cx="0" cy="0" r="1" gradientUnits="userSpaceOnUse" gradientTransform="translate(550 122) rotate(90) scale(13)">
<stop stop-color="white" stop-opacity="0.2"/>
<stop offset="0.246667" stop-color="white" stop-opacity="0.04"/>
<stop offset="0.401667" stop-color="white" stop-opacity="0"/>
</radialGradient>
<radialGradient id="paint76_radial_3_139" cx="0" cy="0" r="1" gradientUnits="userSpaceOnUse" gradientTransform="translate(592 27) rotate(90) scale(13)">
<stop stop-color="white" stop-opacity="0.2"/>
<stop offset="0.246667" stop-color="white" stop-opacity="0.04"/>
<stop offset="0.401667" stop-color="white" stop-opacity="0"/>
</radialGradient>
<radialGradient id="paint77_radial_3_139" cx="0" cy="0" r="1" gradientUnits="userSpaceOnUse" gradientTransform="translate(498) rotate(90) scale(13)">
<stop stop-color="white" stop-opacity="0.2"/>
<stop offset="0.246667" stop-color="white" stop-opacity="0.04"/>
<stop offset="0.401667" stop-color="white" stop-opacity="0"/>
</radialGradient>
<radialGradient id="paint78_radial_3_139" cx="0" cy="0" r="1" gradientUnits="userSpaceOnUse" gradientTransform="translate(152 40) rotate(90) scale(18)">
<stop stop-color="white" stop-opacity="0.2"/>
<stop offset="0.246667" stop-color="white" stop-opacity="0.04"/>
<stop offset="0.401667" stop-color="white" stop-opacity="0"/>
</radialGradient>
<radialGradient id="paint79_radial_3_139" cx="0" cy="0" r="1" gradientUnits="userSpaceOnUse" gradientTransform="translate(92 4) rotate(90) scale(18)">
<stop stop-color="white" stop-opacity="0.2"/>
<stop offset="0.246667" stop-color="white" stop-opacity="0.04"/>
<stop offset="0.401667" stop-color="white" stop-opacity="0"/>
</radialGradient>
<radialGradient id="paint80_radial_3_139" cx="0" cy="0" r="1" gradientUnits="userSpaceOnUse" gradientTransform="translate(628 46) rotate(90) scale(18)">
<stop stop-color="white" stop-opacity="0.2"/>
<stop offset="0.246667" stop-color="white" stop-opacity="0.04"/>
<stop offset="0.401667" stop-color="white" stop-opacity="0"/>
</radialGradient>
<clipPath id="clip0_3_139">
<rect width="628" height="286" fill="white"/>
</clipPath>
</defs>
</svg>
