<svg width="628" height="286" viewBox="0 0 628 286" fill="none" xmlns="http://www.w3.org/2000/svg">
<g clip-path="url(#clip0_10_582)">
<rect x="-35" width="663" height="286" fill="url(#paint0_linear_10_582)"/>
<path d="M103 49.5L0 138.5L-47.5 204.5L27.5 403L605 235L648.5 197V144L610 77L599.5 113H579.5L556 153.5L521 94L445.5 161L363 44.5L326 94L282 113L238.5 173L214.5 113L145.5 153.5L103 49.5Z" fill="url(#paint1_linear_10_582)"/>
<path d="M498.284 127.891L601.432 197.155L649 248.519L573.892 403L-4.4375 272.255L-48 242.682V201.435L-9.44464 149.293L1.07043 177.31H21.0992L44.6329 208.828L79.6832 162.523L155.292 214.665L237.91 124L274.963 162.523L319.027 177.31L350.572 214.665L386.624 177.31L455.723 208.828L498.284 127.891Z" fill="url(#paint2_linear_10_582)"/>
<g filter="url(#filter0_d_10_582)">
<rect x="193.078" y="115" width="67.0588" height="66.1274" rx="33.0637" fill="#D9D9D9"/>
</g>
<g filter="url(#filter1_d_10_582)">
<rect x="216.363" y="146.667" width="64.2647" height="63.3333" rx="31.6667" fill="#D9D9D9"/>
</g>
<g filter="url(#filter2_d_10_582)">
<rect x="167" y="143.873" width="64.2647" height="63.3333" rx="31.6667" fill="#D9D9D9"/>
</g>
<rect x="469" y="217" width="10" height="67" fill="#727070"/>
<rect x="534" y="217" width="10" height="67" fill="#727070"/>
<g filter="url(#filter3_d_10_582)">
<rect x="482.392" y="125" width="83.2941" height="82.1373" rx="41.0686" fill="#D9D9D9"/>
</g>
<g filter="url(#filter4_d_10_582)">
<rect x="511.314" y="164.333" width="79.8235" height="78.6667" rx="39.3333" fill="#D9D9D9"/>
</g>
<g filter="url(#filter5_d_10_582)">
<rect x="417.147" y="127" width="91.3235" height="90" rx="45" fill="#D9D9D9"/>
</g>
<g filter="url(#filter6_d_10_582)">
<rect x="384.059" y="82" width="95.2941" height="93.9706" rx="46.9853" fill="#D9D9D9"/>
</g>
<g filter="url(#filter7_d_10_582)">
<rect x="450" y="160.863" width="79.8235" height="78.6667" rx="39.3333" fill="#D9D9D9"/>
</g>
<g filter="url(#filter8_d_10_582)">
<rect x="347" y="123.029" width="91.3235" height="90" rx="45" fill="#D9D9D9"/>
</g>
<g filter="url(#filter9_d_10_582)">
<rect x="237.059" y="147" width="95.2941" height="93.9706" rx="46.9853" fill="#D9D9D9"/>
</g>
<g filter="url(#filter10_d_10_582)">
<rect x="200" y="188.029" width="91.3235" height="90" rx="45" fill="#D9D9D9"/>
</g>
<g filter="url(#filter11_d_10_582)">
<rect x="270.147" y="192" width="91.3235" height="90" rx="45" fill="#D9D9D9"/>
</g>
<g filter="url(#filter12_d_10_582)">
<rect x="129.078" y="142" width="67.0588" height="66.1274" rx="33.0637" fill="#D9D9D9"/>
</g>
<g filter="url(#filter13_d_10_582)">
<rect x="152.363" y="173.667" width="64.2647" height="63.3333" rx="31.6667" fill="#D9D9D9"/>
</g>
<g filter="url(#filter14_d_10_582)">
<rect x="103" y="170.873" width="64.2647" height="63.3333" rx="31.6667" fill="#D9D9D9"/>
</g>
<g filter="url(#filter15_d_10_582)">
<rect x="577.078" y="142" width="67.0588" height="66.1274" rx="33.0637" fill="#D9D9D9"/>
</g>
<g filter="url(#filter16_d_10_582)">
<rect x="600.363" y="173.667" width="64.2647" height="63.3333" rx="31.6667" fill="#D9D9D9"/>
</g>
<g filter="url(#filter17_d_10_582)">
<rect x="551" y="170.873" width="64.2647" height="63.3333" rx="31.6667" fill="#D9D9D9"/>
</g>
<g filter="url(#filter18_d_10_582)">
<rect x="5.05884" y="125" width="95.2941" height="93.9706" rx="46.9853" fill="#D9D9D9"/>
</g>
<g filter="url(#filter19_d_10_582)">
<rect x="-32" y="166.029" width="91.3235" height="90" rx="45" fill="#D9D9D9"/>
</g>
<g filter="url(#filter20_d_10_582)">
<rect x="38.1471" y="170" width="91.3235" height="90" rx="45" fill="#D9D9D9"/>
</g>
<path d="M402.483 160.362L435.845 173.397V307L402.483 257.034V160.362Z" fill="#6D7F84"/>
<path d="M390.069 139.724L423.431 152.759V236.397H390.069V139.724Z" fill="#6D7F84"/>
<path d="M395.888 118L416.448 125.603V209.241H383.086L395.888 118Z" fill="#6D7F84"/>
<path d="M328 160.362L361.362 173.397V261.5H328V160.362Z" fill="#6D7F84"/>
<rect x="361.362" y="144.069" width="41.1207" height="112.966" fill="#989A9D"/>
<rect x="366.793" y="118" width="29.4828" height="112.966" fill="#989A9D"/>
<path d="M289.121 243.362L322.483 256.397V390L289.121 340.034V243.362Z" fill="#989A9D"/>
<path d="M276.707 222.724L310.069 235.759V319.397H276.707V222.724Z" fill="#989A9D"/>
<path d="M282.526 201L303.086 208.603V292.241H269.724L282.526 201Z" fill="#989A9D"/>
<rect x="248" y="227.069" width="41.1207" height="112.966" fill="#989A9D"/>
<rect x="253.431" y="201" width="29.4828" height="112.966" fill="#989A9D"/>
<path d="M321.483 177.362L354.845 190.397V324L321.483 274.034V177.362Z" fill="#6D7F84"/>
<path d="M309.069 156.724L342.431 169.759V253.397H309.069V156.724Z" fill="#6D7F84"/>
<path d="M314.888 135L335.448 142.603V226.241H302.086L314.888 135Z" fill="#6D7F84"/>
<rect x="280.362" y="161.069" width="41.1207" height="112.966" fill="#989A9D"/>
<rect x="285.793" y="135" width="29.4828" height="112.966" fill="#989A9D"/>
<path d="M469.483 191.362L502.845 204.397V338L469.483 288.034V191.362Z" fill="#6D7F84"/>
<path d="M457.069 170.724L490.431 183.759V267.397H457.069V170.724Z" fill="#6D7F84"/>
<path d="M462.888 149L483.448 156.603V240.241H450.086L462.888 149Z" fill="#6D7F84"/>
<rect x="428.362" y="175.069" width="41.1207" height="112.966" fill="#989A9D"/>
<rect x="433.793" y="149" width="29.4828" height="112.966" fill="#989A9D"/>
<path d="M-100 217H637V228H-100V217Z" fill="#727070"/>
<rect x="409" y="217" width="10" height="67" fill="#727070"/>
<rect x="275" y="217" width="10" height="67" fill="#727070"/>
<rect x="342" y="217" width="10" height="67" fill="#727070"/>
<path d="M314 206C314 204.895 314.895 204 316 204H350C351.105 204 352 204.895 352 206V217H314V206Z" fill="white"/>
<path d="M322.5 207C322.5 206.172 323.172 205.5 324 205.5H342C342.828 205.5 343.5 206.172 343.5 207V209C343.5 209.828 342.828 210.5 342 210.5H324C323.172 210.5 322.5 209.828 322.5 209V207Z" fill="#105B04"/>
<rect x="315" y="209" width="6" height="4" rx="1" fill="url(#paint3_radial_10_582)"/>
<rect x="323" y="211" width="6" height="4" rx="1" fill="url(#paint4_radial_10_582)"/>
<rect x="330" y="211" width="6" height="4" rx="1" fill="url(#paint5_radial_10_582)"/>
<rect x="337" y="211" width="6" height="4" rx="1" fill="url(#paint6_radial_10_582)"/>
<rect x="323" y="206" width="6" height="4" rx="1" fill="url(#paint7_radial_10_582)"/>
<rect x="330" y="206" width="6" height="4" rx="1" fill="url(#paint8_radial_10_582)"/>
<rect x="337" y="206" width="6" height="4" rx="1" fill="url(#paint9_radial_10_582)"/>
<rect x="345" y="209" width="6" height="4" rx="1" fill="url(#paint10_radial_10_582)"/>
<rect x="314" y="216" width="38" height="1" fill="#105B04"/>
<path d="M353 206C353 204.895 353.895 204 355 204H389C390.105 204 391 204.895 391 206V217H353V206Z" fill="white"/>
<path d="M361.5 207C361.5 206.172 362.172 205.5 363 205.5H381C381.828 205.5 382.5 206.172 382.5 207V209C382.5 209.828 381.828 210.5 381 210.5H363C362.172 210.5 361.5 209.828 361.5 209V207Z" fill="#105B04"/>
<rect x="354" y="209" width="6" height="4" rx="1" fill="url(#paint11_radial_10_582)"/>
<rect x="362" y="211" width="6" height="4" rx="1" fill="url(#paint12_radial_10_582)"/>
<rect x="369" y="211" width="6" height="4" rx="1" fill="url(#paint13_radial_10_582)"/>
<rect x="376" y="211" width="6" height="4" rx="1" fill="url(#paint14_radial_10_582)"/>
<rect x="362" y="206" width="6" height="4" rx="1" fill="url(#paint15_radial_10_582)"/>
<rect x="369" y="206" width="6" height="4" rx="1" fill="url(#paint16_radial_10_582)"/>
<rect x="376" y="206" width="6" height="4" rx="1" fill="url(#paint17_radial_10_582)"/>
<rect x="384" y="209" width="6" height="4" rx="1" fill="url(#paint18_radial_10_582)"/>
<rect x="353" y="216" width="38" height="1" fill="#105B04"/>
<path d="M353 206C353 204.895 353.895 204 355 204H389C390.105 204 391 204.895 391 206V217H353V206Z" fill="white"/>
<path d="M361.5 207C361.5 206.172 362.172 205.5 363 205.5H381C381.828 205.5 382.5 206.172 382.5 207V209C382.5 209.828 381.828 210.5 381 210.5H363C362.172 210.5 361.5 209.828 361.5 209V207Z" fill="#105B04"/>
<rect x="354" y="209" width="6" height="4" rx="1" fill="url(#paint19_radial_10_582)"/>
<rect x="362" y="211" width="6" height="4" rx="1" fill="url(#paint20_radial_10_582)"/>
<rect x="369" y="211" width="6" height="4" rx="1" fill="url(#paint21_radial_10_582)"/>
<rect x="376" y="211" width="6" height="4" rx="1" fill="url(#paint22_radial_10_582)"/>
<rect x="362" y="206" width="6" height="4" rx="1" fill="url(#paint23_radial_10_582)"/>
<rect x="369" y="206" width="6" height="4" rx="1" fill="url(#paint24_radial_10_582)"/>
<rect x="376" y="206" width="6" height="4" rx="1" fill="url(#paint25_radial_10_582)"/>
<rect x="384" y="209" width="6" height="4" rx="1" fill="url(#paint26_radial_10_582)"/>
<rect x="353" y="216" width="38" height="1" fill="#105B04"/>
<path d="M392 206C392 204.895 392.895 204 394 204H428C429.105 204 430 204.895 430 206V217H392V206Z" fill="white"/>
<path d="M400.5 207C400.5 206.172 401.172 205.5 402 205.5H420C420.828 205.5 421.5 206.172 421.5 207V209C421.5 209.828 420.828 210.5 420 210.5H402C401.172 210.5 400.5 209.828 400.5 209V207Z" fill="#105B04"/>
<rect x="393" y="209" width="6" height="4" rx="1" fill="url(#paint27_radial_10_582)"/>
<rect x="401" y="211" width="6" height="4" rx="1" fill="url(#paint28_radial_10_582)"/>
<rect x="408" y="211" width="6" height="4" rx="1" fill="url(#paint29_radial_10_582)"/>
<rect x="415" y="211" width="6" height="4" rx="1" fill="url(#paint30_radial_10_582)"/>
<rect x="401" y="206" width="6" height="4" rx="1" fill="url(#paint31_radial_10_582)"/>
<rect x="408" y="206" width="6" height="4" rx="1" fill="url(#paint32_radial_10_582)"/>
<rect x="415" y="206" width="6" height="4" rx="1" fill="url(#paint33_radial_10_582)"/>
<rect x="423" y="209" width="6" height="4" rx="1" fill="url(#paint34_radial_10_582)"/>
<rect x="392" y="216" width="38" height="1" fill="#105B04"/>
<path d="M275.608 211.743C275.859 209.987 276.797 208.402 278.216 207.338V207.338C279.374 206.469 280.782 206 282.23 206H311C312.105 206 313 206.895 313 208V216H275L275.608 211.743Z" fill="white"/>
<rect x="275" y="216" width="38" height="1" fill="#105B04"/>
<path d="M275.608 211.743C275.859 209.987 276.797 208.402 278.216 207.338V207.338C279.374 206.469 280.782 206 282.23 206H289V206C289 207.105 288.105 208 287 208H283C281.895 208 281 208.895 281 210V210H286V210C286 211.105 285.105 212 284 212H283C281.895 212 281 212.895 281 214V214H283V214C283 215.105 282.105 216 281 216V216H275L275.608 211.743Z" fill="#FF7A00"/>
<rect x="285" y="210" width="6" height="4" rx="1" fill="url(#paint35_radial_10_582)"/>
<rect x="292" y="210" width="6" height="4" rx="1" fill="url(#paint36_radial_10_582)"/>
<rect x="299" y="210" width="6" height="4" rx="1" fill="url(#paint37_radial_10_582)"/>
<rect x="306" y="209" width="6" height="4" rx="1" fill="url(#paint38_radial_10_582)"/>
<path d="M277.257 209.649C277.403 209.259 277.776 209 278.193 209H281C281.552 209 282 209.448 282 210V212C282 212.552 281.552 213 281 213H277.443C276.745 213 276.262 212.303 276.507 211.649L277.257 209.649Z" fill="url(#paint39_radial_10_582)"/>
<path d="M468.392 211.743C468.141 209.987 467.203 208.402 465.784 207.338V207.338C464.626 206.469 463.218 206 461.77 206H433C431.895 206 431 206.895 431 208V216H469L468.392 211.743Z" fill="white"/>
<rect width="38" height="1" transform="matrix(-1 0 0 1 469 216)" fill="#105B04"/>
<path d="M468.392 211.743C468.141 209.987 467.203 208.402 465.784 207.338V207.338C464.626 206.469 463.218 206 461.77 206H455V206C455 207.105 455.895 208 457 208H461C462.105 208 463 208.895 463 210V210H458V210C458 211.105 458.895 212 460 212H461C462.105 212 463 212.895 463 214V214H461V214C461 215.105 461.895 216 463 216V216H469L468.392 211.743Z" fill="#FF7A00"/>
<rect width="6" height="4" rx="1" transform="matrix(-1 0 0 1 459 210)" fill="url(#paint40_radial_10_582)"/>
<rect width="6" height="4" rx="1" transform="matrix(-1 0 0 1 452 210)" fill="url(#paint41_radial_10_582)"/>
<rect width="6" height="4" rx="1" transform="matrix(-1 0 0 1 445 210)" fill="url(#paint42_radial_10_582)"/>
<rect width="6" height="4" rx="1" transform="matrix(-1 0 0 1 438 209)" fill="url(#paint43_radial_10_582)"/>
<path d="M466.743 209.649C466.597 209.259 466.224 209 465.807 209H463C462.448 209 462 209.448 462 210V212C462 212.552 462.448 213 463 213H466.557C467.255 213 467.738 212.303 467.493 211.649L466.743 209.649Z" fill="url(#paint44_radial_10_582)"/>
<ellipse cx="551.5" cy="306" rx="232.5" ry="89" fill="#315D48"/>
<ellipse cx="615.5" cy="308.5" rx="197.5" ry="102.5" fill="url(#paint45_linear_10_582)"/>
<ellipse cx="645.5" cy="332" rx="128.5" ry="98" fill="url(#paint46_linear_10_582)"/>
<ellipse cx="501.5" cy="355" rx="140.5" ry="98" fill="url(#paint47_linear_10_582)"/>
<ellipse cx="232.5" cy="89" rx="232.5" ry="89" transform="matrix(-1 0 0 1 375 217)" fill="#315D48"/>
<ellipse cx="197.5" cy="102.5" rx="197.5" ry="102.5" transform="matrix(-1 0 0 1 276 206)" fill="url(#paint48_linear_10_582)"/>
<ellipse cx="128.5" cy="98" rx="128.5" ry="98" transform="matrix(-1 0 0 1 177 234)" fill="url(#paint49_linear_10_582)"/>
<ellipse cx="140.5" cy="98" rx="140.5" ry="98" transform="matrix(-1 0 0 1 333 257)" fill="url(#paint50_linear_10_582)"/>
<rect x="476" y="200" width="20" height="16" rx="8" fill="url(#paint51_radial_10_582)"/>
<path d="M486 222.5V215M486 205V210.5M481 205.5L486 210.5M486 210.5V215M486 215L491.5 209.5" stroke="#5A1B1B"/>
<rect x="537" y="198" width="20" height="16" rx="8" fill="url(#paint52_radial_10_582)"/>
<path d="M547 220.5V213M547 203V208.5M542 203.5L547 208.5M547 208.5V213M547 213L552.5 207.5" stroke="#5A1B1B"/>
<rect x="500" y="208" width="20" height="16" rx="8" fill="url(#paint53_radial_10_582)"/>
<path d="M510 230.5V223M510 213V218.5M505 213.5L510 218.5M510 218.5V223M510 223L515.5 217.5" stroke="#5A1B1B"/>
<rect x="453" y="234" width="20" height="16" rx="8" fill="url(#paint54_radial_10_582)"/>
<path d="M463 256.5V249M463 239V244.5M458 239.5L463 244.5M463 244.5V249M463 249L468.5 243.5" stroke="#5A1B1B"/>
<rect x="295" y="223" width="20" height="16" rx="8" fill="url(#paint55_radial_10_582)"/>
<path d="M305 245.5V238M305 228V233.5M300 228.5L305 233.5M305 233.5V238M305 238L310.5 232.5" stroke="#5A1B1B"/>
<rect x="226" y="204" width="20" height="16" rx="8" fill="url(#paint56_radial_10_582)"/>
<path d="M236 226.5V219M236 209V214.5M231 209.5L236 214.5M236 214.5V219M236 219L241.5 213.5" stroke="#5A1B1B"/>
<rect x="187" y="236" width="20" height="16" rx="8" fill="url(#paint57_radial_10_582)"/>
<path d="M197 258.5V251M197 241V246.5M192 241.5L197 246.5M197 246.5V251M197 251L202.5 245.5" stroke="#5A1B1B"/>
<rect x="28" y="205" width="20" height="16" rx="8" fill="url(#paint58_radial_10_582)"/>
<path d="M38 227.5V220M38 210V215.5M33 210.5L38 215.5M38 215.5V220M38 220L43.5 214.5" stroke="#5A1B1B"/>
</g>
<defs>
<filter id="filter0_d_10_582" x="156.478" y="78.4" width="140.259" height="139.327" filterUnits="userSpaceOnUse" color-interpolation-filters="sRGB">
<feFlood flood-opacity="0" result="BackgroundImageFix"/>
<feColorMatrix in="SourceAlpha" type="matrix" values="0 0 0 0 0 0 0 0 0 0 0 0 0 0 0 0 0 0 127 0" result="hardAlpha"/>
<feMorphology radius="12" operator="dilate" in="SourceAlpha" result="effect1_dropShadow_10_582"/>
<feOffset/>
<feGaussianBlur stdDeviation="12.3"/>
<feComposite in2="hardAlpha" operator="out"/>
<feColorMatrix type="matrix" values="0 0 0 0 0 0 0 0 0 0 0 0 0 0 0 0 0 0 0.1 0"/>
<feBlend mode="normal" in2="BackgroundImageFix" result="effect1_dropShadow_10_582"/>
<feBlend mode="normal" in="SourceGraphic" in2="effect1_dropShadow_10_582" result="shape"/>
</filter>
<filter id="filter1_d_10_582" x="179.763" y="110.067" width="137.465" height="136.533" filterUnits="userSpaceOnUse" color-interpolation-filters="sRGB">
<feFlood flood-opacity="0" result="BackgroundImageFix"/>
<feColorMatrix in="SourceAlpha" type="matrix" values="0 0 0 0 0 0 0 0 0 0 0 0 0 0 0 0 0 0 127 0" result="hardAlpha"/>
<feMorphology radius="12" operator="dilate" in="SourceAlpha" result="effect1_dropShadow_10_582"/>
<feOffset/>
<feGaussianBlur stdDeviation="12.3"/>
<feComposite in2="hardAlpha" operator="out"/>
<feColorMatrix type="matrix" values="0 0 0 0 0 0 0 0 0 0 0 0 0 0 0 0 0 0 0.1 0"/>
<feBlend mode="normal" in2="BackgroundImageFix" result="effect1_dropShadow_10_582"/>
<feBlend mode="normal" in="SourceGraphic" in2="effect1_dropShadow_10_582" result="shape"/>
</filter>
<filter id="filter2_d_10_582" x="130.4" y="107.273" width="137.465" height="136.533" filterUnits="userSpaceOnUse" color-interpolation-filters="sRGB">
<feFlood flood-opacity="0" result="BackgroundImageFix"/>
<feColorMatrix in="SourceAlpha" type="matrix" values="0 0 0 0 0 0 0 0 0 0 0 0 0 0 0 0 0 0 127 0" result="hardAlpha"/>
<feMorphology radius="12" operator="dilate" in="SourceAlpha" result="effect1_dropShadow_10_582"/>
<feOffset/>
<feGaussianBlur stdDeviation="12.3"/>
<feComposite in2="hardAlpha" operator="out"/>
<feColorMatrix type="matrix" values="0 0 0 0 0 0 0 0 0 0 0 0 0 0 0 0 0 0 0.1 0"/>
<feBlend mode="normal" in2="BackgroundImageFix" result="effect1_dropShadow_10_582"/>
<feBlend mode="normal" in="SourceGraphic" in2="effect1_dropShadow_10_582" result="shape"/>
</filter>
<filter id="filter3_d_10_582" x="445.792" y="88.4" width="156.494" height="155.337" filterUnits="userSpaceOnUse" color-interpolation-filters="sRGB">
<feFlood flood-opacity="0" result="BackgroundImageFix"/>
<feColorMatrix in="SourceAlpha" type="matrix" values="0 0 0 0 0 0 0 0 0 0 0 0 0 0 0 0 0 0 127 0" result="hardAlpha"/>
<feMorphology radius="12" operator="dilate" in="SourceAlpha" result="effect1_dropShadow_10_582"/>
<feOffset/>
<feGaussianBlur stdDeviation="12.3"/>
<feComposite in2="hardAlpha" operator="out"/>
<feColorMatrix type="matrix" values="0 0 0 0 0 0 0 0 0 0 0 0 0 0 0 0 0 0 0.1 0"/>
<feBlend mode="normal" in2="BackgroundImageFix" result="effect1_dropShadow_10_582"/>
<feBlend mode="normal" in="SourceGraphic" in2="effect1_dropShadow_10_582" result="shape"/>
</filter>
<filter id="filter4_d_10_582" x="474.714" y="127.733" width="153.024" height="151.867" filterUnits="userSpaceOnUse" color-interpolation-filters="sRGB">
<feFlood flood-opacity="0" result="BackgroundImageFix"/>
<feColorMatrix in="SourceAlpha" type="matrix" values="0 0 0 0 0 0 0 0 0 0 0 0 0 0 0 0 0 0 127 0" result="hardAlpha"/>
<feMorphology radius="12" operator="dilate" in="SourceAlpha" result="effect1_dropShadow_10_582"/>
<feOffset/>
<feGaussianBlur stdDeviation="12.3"/>
<feComposite in2="hardAlpha" operator="out"/>
<feColorMatrix type="matrix" values="0 0 0 0 0 0 0 0 0 0 0 0 0 0 0 0 0 0 0.1 0"/>
<feBlend mode="normal" in2="BackgroundImageFix" result="effect1_dropShadow_10_582"/>
<feBlend mode="normal" in="SourceGraphic" in2="effect1_dropShadow_10_582" result="shape"/>
</filter>
<filter id="filter5_d_10_582" x="380.547" y="90.4" width="164.524" height="163.2" filterUnits="userSpaceOnUse" color-interpolation-filters="sRGB">
<feFlood flood-opacity="0" result="BackgroundImageFix"/>
<feColorMatrix in="SourceAlpha" type="matrix" values="0 0 0 0 0 0 0 0 0 0 0 0 0 0 0 0 0 0 127 0" result="hardAlpha"/>
<feMorphology radius="12" operator="dilate" in="SourceAlpha" result="effect1_dropShadow_10_582"/>
<feOffset/>
<feGaussianBlur stdDeviation="12.3"/>
<feComposite in2="hardAlpha" operator="out"/>
<feColorMatrix type="matrix" values="0 0 0 0 0 0 0 0 0 0 0 0 0 0 0 0 0 0 0.1 0"/>
<feBlend mode="normal" in2="BackgroundImageFix" result="effect1_dropShadow_10_582"/>
<feBlend mode="normal" in="SourceGraphic" in2="effect1_dropShadow_10_582" result="shape"/>
</filter>
<filter id="filter6_d_10_582" x="347.459" y="45.4" width="168.494" height="167.171" filterUnits="userSpaceOnUse" color-interpolation-filters="sRGB">
<feFlood flood-opacity="0" result="BackgroundImageFix"/>
<feColorMatrix in="SourceAlpha" type="matrix" values="0 0 0 0 0 0 0 0 0 0 0 0 0 0 0 0 0 0 127 0" result="hardAlpha"/>
<feMorphology radius="12" operator="dilate" in="SourceAlpha" result="effect1_dropShadow_10_582"/>
<feOffset/>
<feGaussianBlur stdDeviation="12.3"/>
<feComposite in2="hardAlpha" operator="out"/>
<feColorMatrix type="matrix" values="0 0 0 0 0 0 0 0 0 0 0 0 0 0 0 0 0 0 0.1 0"/>
<feBlend mode="normal" in2="BackgroundImageFix" result="effect1_dropShadow_10_582"/>
<feBlend mode="normal" in="SourceGraphic" in2="effect1_dropShadow_10_582" result="shape"/>
</filter>
<filter id="filter7_d_10_582" x="413.4" y="124.263" width="153.024" height="151.867" filterUnits="userSpaceOnUse" color-interpolation-filters="sRGB">
<feFlood flood-opacity="0" result="BackgroundImageFix"/>
<feColorMatrix in="SourceAlpha" type="matrix" values="0 0 0 0 0 0 0 0 0 0 0 0 0 0 0 0 0 0 127 0" result="hardAlpha"/>
<feMorphology radius="12" operator="dilate" in="SourceAlpha" result="effect1_dropShadow_10_582"/>
<feOffset/>
<feGaussianBlur stdDeviation="12.3"/>
<feComposite in2="hardAlpha" operator="out"/>
<feColorMatrix type="matrix" values="0 0 0 0 0 0 0 0 0 0 0 0 0 0 0 0 0 0 0.1 0"/>
<feBlend mode="normal" in2="BackgroundImageFix" result="effect1_dropShadow_10_582"/>
<feBlend mode="normal" in="SourceGraphic" in2="effect1_dropShadow_10_582" result="shape"/>
</filter>
<filter id="filter8_d_10_582" x="310.4" y="86.4294" width="164.524" height="163.2" filterUnits="userSpaceOnUse" color-interpolation-filters="sRGB">
<feFlood flood-opacity="0" result="BackgroundImageFix"/>
<feColorMatrix in="SourceAlpha" type="matrix" values="0 0 0 0 0 0 0 0 0 0 0 0 0 0 0 0 0 0 127 0" result="hardAlpha"/>
<feMorphology radius="12" operator="dilate" in="SourceAlpha" result="effect1_dropShadow_10_582"/>
<feOffset/>
<feGaussianBlur stdDeviation="12.3"/>
<feComposite in2="hardAlpha" operator="out"/>
<feColorMatrix type="matrix" values="0 0 0 0 0 0 0 0 0 0 0 0 0 0 0 0 0 0 0.1 0"/>
<feBlend mode="normal" in2="BackgroundImageFix" result="effect1_dropShadow_10_582"/>
<feBlend mode="normal" in="SourceGraphic" in2="effect1_dropShadow_10_582" result="shape"/>
</filter>
<filter id="filter9_d_10_582" x="200.459" y="110.4" width="168.494" height="167.171" filterUnits="userSpaceOnUse" color-interpolation-filters="sRGB">
<feFlood flood-opacity="0" result="BackgroundImageFix"/>
<feColorMatrix in="SourceAlpha" type="matrix" values="0 0 0 0 0 0 0 0 0 0 0 0 0 0 0 0 0 0 127 0" result="hardAlpha"/>
<feMorphology radius="12" operator="dilate" in="SourceAlpha" result="effect1_dropShadow_10_582"/>
<feOffset/>
<feGaussianBlur stdDeviation="12.3"/>
<feComposite in2="hardAlpha" operator="out"/>
<feColorMatrix type="matrix" values="0 0 0 0 0 0 0 0 0 0 0 0 0 0 0 0 0 0 0.1 0"/>
<feBlend mode="normal" in2="BackgroundImageFix" result="effect1_dropShadow_10_582"/>
<feBlend mode="normal" in="SourceGraphic" in2="effect1_dropShadow_10_582" result="shape"/>
</filter>
<filter id="filter10_d_10_582" x="163.4" y="151.429" width="164.524" height="163.2" filterUnits="userSpaceOnUse" color-interpolation-filters="sRGB">
<feFlood flood-opacity="0" result="BackgroundImageFix"/>
<feColorMatrix in="SourceAlpha" type="matrix" values="0 0 0 0 0 0 0 0 0 0 0 0 0 0 0 0 0 0 127 0" result="hardAlpha"/>
<feMorphology radius="12" operator="dilate" in="SourceAlpha" result="effect1_dropShadow_10_582"/>
<feOffset/>
<feGaussianBlur stdDeviation="12.3"/>
<feComposite in2="hardAlpha" operator="out"/>
<feColorMatrix type="matrix" values="0 0 0 0 0 0 0 0 0 0 0 0 0 0 0 0 0 0 0.1 0"/>
<feBlend mode="normal" in2="BackgroundImageFix" result="effect1_dropShadow_10_582"/>
<feBlend mode="normal" in="SourceGraphic" in2="effect1_dropShadow_10_582" result="shape"/>
</filter>
<filter id="filter11_d_10_582" x="233.547" y="155.4" width="164.524" height="163.2" filterUnits="userSpaceOnUse" color-interpolation-filters="sRGB">
<feFlood flood-opacity="0" result="BackgroundImageFix"/>
<feColorMatrix in="SourceAlpha" type="matrix" values="0 0 0 0 0 0 0 0 0 0 0 0 0 0 0 0 0 0 127 0" result="hardAlpha"/>
<feMorphology radius="12" operator="dilate" in="SourceAlpha" result="effect1_dropShadow_10_582"/>
<feOffset/>
<feGaussianBlur stdDeviation="12.3"/>
<feComposite in2="hardAlpha" operator="out"/>
<feColorMatrix type="matrix" values="0 0 0 0 0 0 0 0 0 0 0 0 0 0 0 0 0 0 0.1 0"/>
<feBlend mode="normal" in2="BackgroundImageFix" result="effect1_dropShadow_10_582"/>
<feBlend mode="normal" in="SourceGraphic" in2="effect1_dropShadow_10_582" result="shape"/>
</filter>
<filter id="filter12_d_10_582" x="92.4784" y="105.4" width="140.259" height="139.327" filterUnits="userSpaceOnUse" color-interpolation-filters="sRGB">
<feFlood flood-opacity="0" result="BackgroundImageFix"/>
<feColorMatrix in="SourceAlpha" type="matrix" values="0 0 0 0 0 0 0 0 0 0 0 0 0 0 0 0 0 0 127 0" result="hardAlpha"/>
<feMorphology radius="12" operator="dilate" in="SourceAlpha" result="effect1_dropShadow_10_582"/>
<feOffset/>
<feGaussianBlur stdDeviation="12.3"/>
<feComposite in2="hardAlpha" operator="out"/>
<feColorMatrix type="matrix" values="0 0 0 0 0 0 0 0 0 0 0 0 0 0 0 0 0 0 0.1 0"/>
<feBlend mode="normal" in2="BackgroundImageFix" result="effect1_dropShadow_10_582"/>
<feBlend mode="normal" in="SourceGraphic" in2="effect1_dropShadow_10_582" result="shape"/>
</filter>
<filter id="filter13_d_10_582" x="115.763" y="137.067" width="137.465" height="136.533" filterUnits="userSpaceOnUse" color-interpolation-filters="sRGB">
<feFlood flood-opacity="0" result="BackgroundImageFix"/>
<feColorMatrix in="SourceAlpha" type="matrix" values="0 0 0 0 0 0 0 0 0 0 0 0 0 0 0 0 0 0 127 0" result="hardAlpha"/>
<feMorphology radius="12" operator="dilate" in="SourceAlpha" result="effect1_dropShadow_10_582"/>
<feOffset/>
<feGaussianBlur stdDeviation="12.3"/>
<feComposite in2="hardAlpha" operator="out"/>
<feColorMatrix type="matrix" values="0 0 0 0 0 0 0 0 0 0 0 0 0 0 0 0 0 0 0.1 0"/>
<feBlend mode="normal" in2="BackgroundImageFix" result="effect1_dropShadow_10_582"/>
<feBlend mode="normal" in="SourceGraphic" in2="effect1_dropShadow_10_582" result="shape"/>
</filter>
<filter id="filter14_d_10_582" x="66.4" y="134.273" width="137.465" height="136.533" filterUnits="userSpaceOnUse" color-interpolation-filters="sRGB">
<feFlood flood-opacity="0" result="BackgroundImageFix"/>
<feColorMatrix in="SourceAlpha" type="matrix" values="0 0 0 0 0 0 0 0 0 0 0 0 0 0 0 0 0 0 127 0" result="hardAlpha"/>
<feMorphology radius="12" operator="dilate" in="SourceAlpha" result="effect1_dropShadow_10_582"/>
<feOffset/>
<feGaussianBlur stdDeviation="12.3"/>
<feComposite in2="hardAlpha" operator="out"/>
<feColorMatrix type="matrix" values="0 0 0 0 0 0 0 0 0 0 0 0 0 0 0 0 0 0 0.1 0"/>
<feBlend mode="normal" in2="BackgroundImageFix" result="effect1_dropShadow_10_582"/>
<feBlend mode="normal" in="SourceGraphic" in2="effect1_dropShadow_10_582" result="shape"/>
</filter>
<filter id="filter15_d_10_582" x="540.478" y="105.4" width="140.259" height="139.327" filterUnits="userSpaceOnUse" color-interpolation-filters="sRGB">
<feFlood flood-opacity="0" result="BackgroundImageFix"/>
<feColorMatrix in="SourceAlpha" type="matrix" values="0 0 0 0 0 0 0 0 0 0 0 0 0 0 0 0 0 0 127 0" result="hardAlpha"/>
<feMorphology radius="12" operator="dilate" in="SourceAlpha" result="effect1_dropShadow_10_582"/>
<feOffset/>
<feGaussianBlur stdDeviation="12.3"/>
<feComposite in2="hardAlpha" operator="out"/>
<feColorMatrix type="matrix" values="0 0 0 0 0 0 0 0 0 0 0 0 0 0 0 0 0 0 0.1 0"/>
<feBlend mode="normal" in2="BackgroundImageFix" result="effect1_dropShadow_10_582"/>
<feBlend mode="normal" in="SourceGraphic" in2="effect1_dropShadow_10_582" result="shape"/>
</filter>
<filter id="filter16_d_10_582" x="563.763" y="137.067" width="137.465" height="136.533" filterUnits="userSpaceOnUse" color-interpolation-filters="sRGB">
<feFlood flood-opacity="0" result="BackgroundImageFix"/>
<feColorMatrix in="SourceAlpha" type="matrix" values="0 0 0 0 0 0 0 0 0 0 0 0 0 0 0 0 0 0 127 0" result="hardAlpha"/>
<feMorphology radius="12" operator="dilate" in="SourceAlpha" result="effect1_dropShadow_10_582"/>
<feOffset/>
<feGaussianBlur stdDeviation="12.3"/>
<feComposite in2="hardAlpha" operator="out"/>
<feColorMatrix type="matrix" values="0 0 0 0 0 0 0 0 0 0 0 0 0 0 0 0 0 0 0.1 0"/>
<feBlend mode="normal" in2="BackgroundImageFix" result="effect1_dropShadow_10_582"/>
<feBlend mode="normal" in="SourceGraphic" in2="effect1_dropShadow_10_582" result="shape"/>
</filter>
<filter id="filter17_d_10_582" x="514.4" y="134.273" width="137.465" height="136.533" filterUnits="userSpaceOnUse" color-interpolation-filters="sRGB">
<feFlood flood-opacity="0" result="BackgroundImageFix"/>
<feColorMatrix in="SourceAlpha" type="matrix" values="0 0 0 0 0 0 0 0 0 0 0 0 0 0 0 0 0 0 127 0" result="hardAlpha"/>
<feMorphology radius="12" operator="dilate" in="SourceAlpha" result="effect1_dropShadow_10_582"/>
<feOffset/>
<feGaussianBlur stdDeviation="12.3"/>
<feComposite in2="hardAlpha" operator="out"/>
<feColorMatrix type="matrix" values="0 0 0 0 0 0 0 0 0 0 0 0 0 0 0 0 0 0 0.1 0"/>
<feBlend mode="normal" in2="BackgroundImageFix" result="effect1_dropShadow_10_582"/>
<feBlend mode="normal" in="SourceGraphic" in2="effect1_dropShadow_10_582" result="shape"/>
</filter>
<filter id="filter18_d_10_582" x="-31.5412" y="88.4" width="168.494" height="167.171" filterUnits="userSpaceOnUse" color-interpolation-filters="sRGB">
<feFlood flood-opacity="0" result="BackgroundImageFix"/>
<feColorMatrix in="SourceAlpha" type="matrix" values="0 0 0 0 0 0 0 0 0 0 0 0 0 0 0 0 0 0 127 0" result="hardAlpha"/>
<feMorphology radius="12" operator="dilate" in="SourceAlpha" result="effect1_dropShadow_10_582"/>
<feOffset/>
<feGaussianBlur stdDeviation="12.3"/>
<feComposite in2="hardAlpha" operator="out"/>
<feColorMatrix type="matrix" values="0 0 0 0 0 0 0 0 0 0 0 0 0 0 0 0 0 0 0.1 0"/>
<feBlend mode="normal" in2="BackgroundImageFix" result="effect1_dropShadow_10_582"/>
<feBlend mode="normal" in="SourceGraphic" in2="effect1_dropShadow_10_582" result="shape"/>
</filter>
<filter id="filter19_d_10_582" x="-68.6" y="129.429" width="164.524" height="163.2" filterUnits="userSpaceOnUse" color-interpolation-filters="sRGB">
<feFlood flood-opacity="0" result="BackgroundImageFix"/>
<feColorMatrix in="SourceAlpha" type="matrix" values="0 0 0 0 0 0 0 0 0 0 0 0 0 0 0 0 0 0 127 0" result="hardAlpha"/>
<feMorphology radius="12" operator="dilate" in="SourceAlpha" result="effect1_dropShadow_10_582"/>
<feOffset/>
<feGaussianBlur stdDeviation="12.3"/>
<feComposite in2="hardAlpha" operator="out"/>
<feColorMatrix type="matrix" values="0 0 0 0 0 0 0 0 0 0 0 0 0 0 0 0 0 0 0.1 0"/>
<feBlend mode="normal" in2="BackgroundImageFix" result="effect1_dropShadow_10_582"/>
<feBlend mode="normal" in="SourceGraphic" in2="effect1_dropShadow_10_582" result="shape"/>
</filter>
<filter id="filter20_d_10_582" x="1.54706" y="133.4" width="164.524" height="163.2" filterUnits="userSpaceOnUse" color-interpolation-filters="sRGB">
<feFlood flood-opacity="0" result="BackgroundImageFix"/>
<feColorMatrix in="SourceAlpha" type="matrix" values="0 0 0 0 0 0 0 0 0 0 0 0 0 0 0 0 0 0 127 0" result="hardAlpha"/>
<feMorphology radius="12" operator="dilate" in="SourceAlpha" result="effect1_dropShadow_10_582"/>
<feOffset/>
<feGaussianBlur stdDeviation="12.3"/>
<feComposite in2="hardAlpha" operator="out"/>
<feColorMatrix type="matrix" values="0 0 0 0 0 0 0 0 0 0 0 0 0 0 0 0 0 0 0.1 0"/>
<feBlend mode="normal" in2="BackgroundImageFix" result="effect1_dropShadow_10_582"/>
<feBlend mode="normal" in="SourceGraphic" in2="effect1_dropShadow_10_582" result="shape"/>
</filter>
<linearGradient id="paint0_linear_10_582" x1="296.5" y1="0" x2="296.5" y2="286" gradientUnits="userSpaceOnUse">
<stop stop-color="#17556F"/>
<stop offset="1" stop-color="#B8D9FF"/>
</linearGradient>
<linearGradient id="paint1_linear_10_582" x1="300.5" y1="44.5" x2="300.5" y2="403" gradientUnits="userSpaceOnUse">
<stop stop-color="#CBCBC8" stop-opacity="0"/>
<stop offset="0.573946" stop-color="#CBCBCB" stop-opacity="0.3"/>
</linearGradient>
<linearGradient id="paint2_linear_10_582" x1="300.5" y1="124" x2="300.5" y2="403" gradientUnits="userSpaceOnUse">
<stop stop-color="#CBCBC8" stop-opacity="0"/>
<stop offset="0.573946" stop-color="#CBCBCB" stop-opacity="0.3"/>
</linearGradient>
<radialGradient id="paint3_radial_10_582" cx="0" cy="0" r="1" gradientUnits="userSpaceOnUse" gradientTransform="translate(316 210.5) rotate(32.4712) scale(6.5192 9.7788)">
<stop stop-color="#212121"/>
<stop offset="1"/>
</radialGradient>
<radialGradient id="paint4_radial_10_582" cx="0" cy="0" r="1" gradientUnits="userSpaceOnUse" gradientTransform="translate(324 212.5) rotate(32.4712) scale(6.5192 9.7788)">
<stop stop-color="#212121"/>
<stop offset="1"/>
</radialGradient>
<radialGradient id="paint5_radial_10_582" cx="0" cy="0" r="1" gradientUnits="userSpaceOnUse" gradientTransform="translate(331 212.5) rotate(32.4712) scale(6.5192 9.7788)">
<stop stop-color="#212121"/>
<stop offset="1"/>
</radialGradient>
<radialGradient id="paint6_radial_10_582" cx="0" cy="0" r="1" gradientUnits="userSpaceOnUse" gradientTransform="translate(338 212.5) rotate(32.4712) scale(6.5192 9.7788)">
<stop stop-color="#212121"/>
<stop offset="1"/>
</radialGradient>
<radialGradient id="paint7_radial_10_582" cx="0" cy="0" r="1" gradientUnits="userSpaceOnUse" gradientTransform="translate(324 207.5) rotate(32.4712) scale(6.5192 9.7788)">
<stop stop-color="#212121"/>
<stop offset="1"/>
</radialGradient>
<radialGradient id="paint8_radial_10_582" cx="0" cy="0" r="1" gradientUnits="userSpaceOnUse" gradientTransform="translate(331 207.5) rotate(32.4712) scale(6.5192 9.7788)">
<stop stop-color="#212121"/>
<stop offset="1"/>
</radialGradient>
<radialGradient id="paint9_radial_10_582" cx="0" cy="0" r="1" gradientUnits="userSpaceOnUse" gradientTransform="translate(338 207.5) rotate(32.4712) scale(6.5192 9.7788)">
<stop stop-color="#212121"/>
<stop offset="1"/>
</radialGradient>
<radialGradient id="paint10_radial_10_582" cx="0" cy="0" r="1" gradientUnits="userSpaceOnUse" gradientTransform="translate(346 210.5) rotate(32.4712) scale(6.5192 9.7788)">
<stop stop-color="#212121"/>
<stop offset="1"/>
</radialGradient>
<radialGradient id="paint11_radial_10_582" cx="0" cy="0" r="1" gradientUnits="userSpaceOnUse" gradientTransform="translate(355 210.5) rotate(32.4712) scale(6.5192 9.7788)">
<stop stop-color="#212121"/>
<stop offset="1"/>
</radialGradient>
<radialGradient id="paint12_radial_10_582" cx="0" cy="0" r="1" gradientUnits="userSpaceOnUse" gradientTransform="translate(363 212.5) rotate(32.4712) scale(6.5192 9.7788)">
<stop stop-color="#212121"/>
<stop offset="1"/>
</radialGradient>
<radialGradient id="paint13_radial_10_582" cx="0" cy="0" r="1" gradientUnits="userSpaceOnUse" gradientTransform="translate(370 212.5) rotate(32.4712) scale(6.5192 9.7788)">
<stop stop-color="#212121"/>
<stop offset="1"/>
</radialGradient>
<radialGradient id="paint14_radial_10_582" cx="0" cy="0" r="1" gradientUnits="userSpaceOnUse" gradientTransform="translate(377 212.5) rotate(32.4712) scale(6.5192 9.7788)">
<stop stop-color="#212121"/>
<stop offset="1"/>
</radialGradient>
<radialGradient id="paint15_radial_10_582" cx="0" cy="0" r="1" gradientUnits="userSpaceOnUse" gradientTransform="translate(363 207.5) rotate(32.4712) scale(6.5192 9.7788)">
<stop stop-color="#212121"/>
<stop offset="1"/>
</radialGradient>
<radialGradient id="paint16_radial_10_582" cx="0" cy="0" r="1" gradientUnits="userSpaceOnUse" gradientTransform="translate(370 207.5) rotate(32.4712) scale(6.5192 9.7788)">
<stop stop-color="#212121"/>
<stop offset="1"/>
</radialGradient>
<radialGradient id="paint17_radial_10_582" cx="0" cy="0" r="1" gradientUnits="userSpaceOnUse" gradientTransform="translate(377 207.5) rotate(32.4712) scale(6.5192 9.7788)">
<stop stop-color="#212121"/>
<stop offset="1"/>
</radialGradient>
<radialGradient id="paint18_radial_10_582" cx="0" cy="0" r="1" gradientUnits="userSpaceOnUse" gradientTransform="translate(385 210.5) rotate(32.4712) scale(6.5192 9.7788)">
<stop stop-color="#212121"/>
<stop offset="1"/>
</radialGradient>
<radialGradient id="paint19_radial_10_582" cx="0" cy="0" r="1" gradientUnits="userSpaceOnUse" gradientTransform="translate(355 210.5) rotate(32.4712) scale(6.5192 9.7788)">
<stop stop-color="#212121"/>
<stop offset="1"/>
</radialGradient>
<radialGradient id="paint20_radial_10_582" cx="0" cy="0" r="1" gradientUnits="userSpaceOnUse" gradientTransform="translate(363 212.5) rotate(32.4712) scale(6.5192 9.7788)">
<stop stop-color="#212121"/>
<stop offset="1"/>
</radialGradient>
<radialGradient id="paint21_radial_10_582" cx="0" cy="0" r="1" gradientUnits="userSpaceOnUse" gradientTransform="translate(370 212.5) rotate(32.4712) scale(6.5192 9.7788)">
<stop stop-color="#212121"/>
<stop offset="1"/>
</radialGradient>
<radialGradient id="paint22_radial_10_582" cx="0" cy="0" r="1" gradientUnits="userSpaceOnUse" gradientTransform="translate(377 212.5) rotate(32.4712) scale(6.5192 9.7788)">
<stop stop-color="#212121"/>
<stop offset="1"/>
</radialGradient>
<radialGradient id="paint23_radial_10_582" cx="0" cy="0" r="1" gradientUnits="userSpaceOnUse" gradientTransform="translate(363 207.5) rotate(32.4712) scale(6.5192 9.7788)">
<stop stop-color="#212121"/>
<stop offset="1"/>
</radialGradient>
<radialGradient id="paint24_radial_10_582" cx="0" cy="0" r="1" gradientUnits="userSpaceOnUse" gradientTransform="translate(370 207.5) rotate(32.4712) scale(6.5192 9.7788)">
<stop stop-color="#212121"/>
<stop offset="1"/>
</radialGradient>
<radialGradient id="paint25_radial_10_582" cx="0" cy="0" r="1" gradientUnits="userSpaceOnUse" gradientTransform="translate(377 207.5) rotate(32.4712) scale(6.5192 9.7788)">
<stop stop-color="#212121"/>
<stop offset="1"/>
</radialGradient>
<radialGradient id="paint26_radial_10_582" cx="0" cy="0" r="1" gradientUnits="userSpaceOnUse" gradientTransform="translate(385 210.5) rotate(32.4712) scale(6.5192 9.7788)">
<stop stop-color="#212121"/>
<stop offset="1"/>
</radialGradient>
<radialGradient id="paint27_radial_10_582" cx="0" cy="0" r="1" gradientUnits="userSpaceOnUse" gradientTransform="translate(394 210.5) rotate(32.4712) scale(6.5192 9.7788)">
<stop stop-color="#212121"/>
<stop offset="1"/>
</radialGradient>
<radialGradient id="paint28_radial_10_582" cx="0" cy="0" r="1" gradientUnits="userSpaceOnUse" gradientTransform="translate(402 212.5) rotate(32.4712) scale(6.5192 9.7788)">
<stop stop-color="#212121"/>
<stop offset="1"/>
</radialGradient>
<radialGradient id="paint29_radial_10_582" cx="0" cy="0" r="1" gradientUnits="userSpaceOnUse" gradientTransform="translate(409 212.5) rotate(32.4712) scale(6.5192 9.7788)">
<stop stop-color="#212121"/>
<stop offset="1"/>
</radialGradient>
<radialGradient id="paint30_radial_10_582" cx="0" cy="0" r="1" gradientUnits="userSpaceOnUse" gradientTransform="translate(416 212.5) rotate(32.4712) scale(6.5192 9.7788)">
<stop stop-color="#212121"/>
<stop offset="1"/>
</radialGradient>
<radialGradient id="paint31_radial_10_582" cx="0" cy="0" r="1" gradientUnits="userSpaceOnUse" gradientTransform="translate(402 207.5) rotate(32.4712) scale(6.5192 9.7788)">
<stop stop-color="#212121"/>
<stop offset="1"/>
</radialGradient>
<radialGradient id="paint32_radial_10_582" cx="0" cy="0" r="1" gradientUnits="userSpaceOnUse" gradientTransform="translate(409 207.5) rotate(32.4712) scale(6.5192 9.7788)">
<stop stop-color="#212121"/>
<stop offset="1"/>
</radialGradient>
<radialGradient id="paint33_radial_10_582" cx="0" cy="0" r="1" gradientUnits="userSpaceOnUse" gradientTransform="translate(416 207.5) rotate(32.4712) scale(6.5192 9.7788)">
<stop stop-color="#212121"/>
<stop offset="1"/>
</radialGradient>
<radialGradient id="paint34_radial_10_582" cx="0" cy="0" r="1" gradientUnits="userSpaceOnUse" gradientTransform="translate(424 210.5) rotate(32.4712) scale(6.5192 9.7788)">
<stop stop-color="#212121"/>
<stop offset="1"/>
</radialGradient>
<radialGradient id="paint35_radial_10_582" cx="0" cy="0" r="1" gradientUnits="userSpaceOnUse" gradientTransform="translate(286 211.5) rotate(32.4712) scale(6.5192 9.7788)">
<stop stop-color="#212121"/>
<stop offset="1"/>
</radialGradient>
<radialGradient id="paint36_radial_10_582" cx="0" cy="0" r="1" gradientUnits="userSpaceOnUse" gradientTransform="translate(293 211.5) rotate(32.4712) scale(6.5192 9.7788)">
<stop stop-color="#212121"/>
<stop offset="1"/>
</radialGradient>
<radialGradient id="paint37_radial_10_582" cx="0" cy="0" r="1" gradientUnits="userSpaceOnUse" gradientTransform="translate(300 211.5) rotate(32.4712) scale(6.5192 9.7788)">
<stop stop-color="#212121"/>
<stop offset="1"/>
</radialGradient>
<radialGradient id="paint38_radial_10_582" cx="0" cy="0" r="1" gradientUnits="userSpaceOnUse" gradientTransform="translate(307 210.5) rotate(32.4712) scale(6.5192 9.7788)">
<stop stop-color="#212121"/>
<stop offset="1"/>
</radialGradient>
<radialGradient id="paint39_radial_10_582" cx="0" cy="0" r="1" gradientUnits="userSpaceOnUse" gradientTransform="translate(277 210.5) rotate(32.4712) scale(6.5192 9.7788)">
<stop stop-color="#212121"/>
<stop offset="1"/>
</radialGradient>
<radialGradient id="paint40_radial_10_582" cx="0" cy="0" r="1" gradientUnits="userSpaceOnUse" gradientTransform="translate(1 1.5) rotate(32.4712) scale(6.5192 9.7788)">
<stop stop-color="#212121"/>
<stop offset="1"/>
</radialGradient>
<radialGradient id="paint41_radial_10_582" cx="0" cy="0" r="1" gradientUnits="userSpaceOnUse" gradientTransform="translate(1 1.5) rotate(32.4712) scale(6.5192 9.7788)">
<stop stop-color="#212121"/>
<stop offset="1"/>
</radialGradient>
<radialGradient id="paint42_radial_10_582" cx="0" cy="0" r="1" gradientUnits="userSpaceOnUse" gradientTransform="translate(1 1.5) rotate(32.4712) scale(6.5192 9.7788)">
<stop stop-color="#212121"/>
<stop offset="1"/>
</radialGradient>
<radialGradient id="paint43_radial_10_582" cx="0" cy="0" r="1" gradientUnits="userSpaceOnUse" gradientTransform="translate(1 1.5) rotate(32.4712) scale(6.5192 9.7788)">
<stop stop-color="#212121"/>
<stop offset="1"/>
</radialGradient>
<radialGradient id="paint44_radial_10_582" cx="0" cy="0" r="1" gradientUnits="userSpaceOnUse" gradientTransform="translate(467 210.5) rotate(147.529) scale(6.5192 9.7788)">
<stop stop-color="#212121"/>
<stop offset="1"/>
</radialGradient>
<linearGradient id="paint45_linear_10_582" x1="444.726" y1="269" x2="591.416" y2="253.037" gradientUnits="userSpaceOnUse">
<stop stop-color="#315D48"/>
<stop offset="1" stop-color="#376B52"/>
</linearGradient>
<linearGradient id="paint46_linear_10_582" x1="534.389" y1="294.234" x2="614.729" y2="314.572" gradientUnits="userSpaceOnUse">
<stop stop-color="#315D48"/>
<stop offset="1" stop-color="#376B52"/>
</linearGradient>
<linearGradient id="paint47_linear_10_582" x1="502" y1="319" x2="438.5" y2="304.5" gradientUnits="userSpaceOnUse">
<stop stop-color="#315D48"/>
<stop offset="1" stop-color="#376B52"/>
</linearGradient>
<linearGradient id="paint48_linear_10_582" x1="26.7259" y1="63" x2="173.416" y2="47.0374" gradientUnits="userSpaceOnUse">
<stop stop-color="#315D48"/>
<stop offset="1" stop-color="#376B52"/>
</linearGradient>
<linearGradient id="paint49_linear_10_582" x1="17.3888" y1="60.2341" x2="97.7286" y2="80.572" gradientUnits="userSpaceOnUse">
<stop stop-color="#315D48"/>
<stop offset="1" stop-color="#376B52"/>
</linearGradient>
<linearGradient id="paint50_linear_10_582" x1="141" y1="62" x2="77.5" y2="47.5" gradientUnits="userSpaceOnUse">
<stop stop-color="#315D48"/>
<stop offset="1" stop-color="#376B52"/>
</linearGradient>
<radialGradient id="paint51_radial_10_582" cx="0" cy="0" r="1" gradientUnits="userSpaceOnUse" gradientTransform="translate(492.25 202.5) rotate(114.842) scale(14.8766 17.4141)">
<stop stop-color="#58B287"/>
<stop offset="1" stop-color="#0F422A"/>
</radialGradient>
<radialGradient id="paint52_radial_10_582" cx="0" cy="0" r="1" gradientUnits="userSpaceOnUse" gradientTransform="translate(553.25 200.5) rotate(114.842) scale(14.8766 17.4141)">
<stop stop-color="#58B287"/>
<stop offset="1" stop-color="#0F422A"/>
</radialGradient>
<radialGradient id="paint53_radial_10_582" cx="0" cy="0" r="1" gradientUnits="userSpaceOnUse" gradientTransform="translate(516.25 210.5) rotate(114.842) scale(14.8766 17.4141)">
<stop stop-color="#58B287"/>
<stop offset="1" stop-color="#0F422A"/>
</radialGradient>
<radialGradient id="paint54_radial_10_582" cx="0" cy="0" r="1" gradientUnits="userSpaceOnUse" gradientTransform="translate(469.25 236.5) rotate(114.842) scale(14.8766 17.4141)">
<stop stop-color="#58B287"/>
<stop offset="1" stop-color="#0F422A"/>
</radialGradient>
<radialGradient id="paint55_radial_10_582" cx="0" cy="0" r="1" gradientUnits="userSpaceOnUse" gradientTransform="translate(311.25 225.5) rotate(114.842) scale(14.8766 17.4141)">
<stop stop-color="#58B287"/>
<stop offset="1" stop-color="#0F422A"/>
</radialGradient>
<radialGradient id="paint56_radial_10_582" cx="0" cy="0" r="1" gradientUnits="userSpaceOnUse" gradientTransform="translate(242.25 206.5) rotate(114.842) scale(14.8766 17.4141)">
<stop stop-color="#58B287"/>
<stop offset="1" stop-color="#0F422A"/>
</radialGradient>
<radialGradient id="paint57_radial_10_582" cx="0" cy="0" r="1" gradientUnits="userSpaceOnUse" gradientTransform="translate(203.25 238.5) rotate(114.842) scale(14.8766 17.4141)">
<stop stop-color="#58B287"/>
<stop offset="1" stop-color="#0F422A"/>
</radialGradient>
<radialGradient id="paint58_radial_10_582" cx="0" cy="0" r="1" gradientUnits="userSpaceOnUse" gradientTransform="translate(44.25 207.5) rotate(114.842) scale(14.8766 17.4141)">
<stop stop-color="#58B287"/>
<stop offset="1" stop-color="#0F422A"/>
</radialGradient>
<clipPath id="clip0_10_582">
<rect width="628" height="286" fill="white"/>
</clipPath>
</defs>
</svg>
