<svg width="628" height="286" viewBox="0 0 628 286" fill="none" xmlns="http://www.w3.org/2000/svg">
<g clip-path="url(#clip0_2_11)">
<rect x="-35" width="663" height="286" fill="url(#paint0_linear_2_11)"/>
<rect x="469" y="217" width="10" height="67" fill="#727070"/>
<rect x="534" y="217" width="10" height="67" fill="#727070"/>
<path d="M103 49.5L0 138.5L-47.5 204.5L27.5 403L605 235L648.5 197V144L610 77L599.5 113H579.5L556 153.5L521 94L445.5 161L363 44.5L326 94L282 113L238.5 173L214.5 113L145.5 153.5L103 49.5Z" fill="url(#paint1_linear_2_11)"/>
<path d="M498.284 127.891L601.432 197.155L649 248.519L573.892 403L-4.43756 272.255L-48.0001 242.682V201.435L-9.4447 149.293L1.07037 177.31H21.0991L44.6329 208.828L79.6832 162.523L155.292 214.665L237.91 124L274.963 162.523L319.027 177.31L350.572 214.665L386.624 177.31L455.723 208.828L498.284 127.891Z" fill="url(#paint2_linear_2_11)"/>
<path d="M402.483 160.362L435.845 173.397V307L402.483 257.034V160.362Z" fill="#94ACB3"/>
<path d="M390.069 139.724L423.431 152.759V236.397H390.069V139.724Z" fill="#94ACB3"/>
<path d="M395.888 118L416.448 125.603V209.241H383.086L395.888 118Z" fill="#94ACB3"/>
<path d="M328 160.362L361.362 173.397V262.5H328V160.362Z" fill="#94ACB3"/>
<rect x="361.362" y="144.069" width="41.1207" height="112.966" fill="#EBF0F8"/>
<rect x="366.793" y="118" width="29.4828" height="112.966" fill="#EBF0F8"/>
<path d="M289.121 243.362L322.483 256.397V390L289.121 340.034V243.362Z" fill="#EBF0F8"/>
<path d="M276.707 222.724L310.069 235.759V319.397H276.707V222.724Z" fill="#EBF0F8"/>
<path d="M282.526 201L303.086 208.603V292.241H269.724L282.526 201Z" fill="#EBF0F8"/>
<rect x="248" y="227.069" width="41.1207" height="112.966" fill="#EBF0F8"/>
<rect x="253.431" y="201" width="29.4828" height="112.966" fill="#EBF0F8"/>
<path d="M321.483 177.362L354.845 190.397V324L321.483 274.034V177.362Z" fill="#94ACB3"/>
<path d="M309.069 156.724L342.431 169.759V253.397H309.069V156.724Z" fill="#94ACB3"/>
<path d="M314.888 135L335.448 142.603V226.241H302.086L314.888 135Z" fill="#94ACB3"/>
<rect x="280.362" y="161.069" width="41.1207" height="112.966" fill="#EBF0F8"/>
<rect x="285.793" y="135" width="29.4828" height="112.966" fill="#EBF0F8"/>
<path d="M469.483 191.362L502.845 204.397V338L469.483 288.034V191.362Z" fill="#94ACB3"/>
<path d="M457.069 170.724L490.431 183.759V267.397H457.069V170.724Z" fill="#94ACB3"/>
<path d="M462.888 149L483.448 156.603V240.241H450.086L462.888 149Z" fill="#94ACB3"/>
<rect x="428.362" y="175.069" width="41.1207" height="112.966" fill="#EBF0F8"/>
<rect x="433.793" y="149" width="29.4828" height="112.966" fill="#EBF0F8"/>
<path d="M-100 217H637V228H-100V217Z" fill="#727070"/>
<rect x="409" y="217" width="10" height="67" fill="#727070"/>
<rect x="275" y="217" width="10" height="67" fill="#727070"/>
<rect x="342" y="217" width="10" height="67" fill="#727070"/>
<g clip-path="url(#clip1_2_11)">
<path d="M370 217C370 210.925 374.925 206 381 206H456C462.075 206 467 210.925 467 217V217H370V217Z" fill="url(#paint3_linear_2_11)"/>
<rect x="370" y="213" width="100" height="2" fill="#96B4C4"/>
<path fill-rule="evenodd" clip-rule="evenodd" d="M400 208H383V212H400V208ZM402 212H419V208H402V212ZM440 208H457V212H440V208ZM470 212H459V208H470V212ZM438 208H421V212H438V208ZM381 208H370V212H381V208Z" fill="url(#paint4_radial_2_11)"/>
</g>
<ellipse cx="551.5" cy="306" rx="232.5" ry="89" fill="#315D48"/>
<ellipse cx="615.5" cy="308.5" rx="197.5" ry="102.5" fill="url(#paint5_linear_2_11)"/>
<ellipse cx="645.5" cy="332" rx="128.5" ry="98" fill="url(#paint6_linear_2_11)"/>
<ellipse cx="501.5" cy="355" rx="140.5" ry="98" fill="url(#paint7_linear_2_11)"/>
<ellipse cx="232.5" cy="89" rx="232.5" ry="89" transform="matrix(-1 0 0 1 375 217)" fill="#315D48"/>
<ellipse cx="197.5" cy="102.5" rx="197.5" ry="102.5" transform="matrix(-1 0 0 1 276 206)" fill="url(#paint8_linear_2_11)"/>
<ellipse cx="128.5" cy="98" rx="128.5" ry="98" transform="matrix(-1 0 0 1 177 234)" fill="url(#paint9_linear_2_11)"/>
<ellipse cx="140.5" cy="98" rx="140.5" ry="98" transform="matrix(-1 0 0 1 333 257)" fill="url(#paint10_linear_2_11)"/>
<rect x="476" y="200" width="20" height="16" rx="8" fill="url(#paint11_radial_2_11)"/>
<path d="M486 222.5V215M486 205V210.5M481 205.5L486 210.5M486 210.5V215M486 215L491.5 209.5" stroke="#5A1B1B"/>
<rect x="537" y="198" width="20" height="16" rx="8" fill="url(#paint12_radial_2_11)"/>
<path d="M547 220.5V213M547 203V208.5M542 203.5L547 208.5M547 208.5V213M547 213L552.5 207.5" stroke="#5A1B1B"/>
<rect x="500" y="208" width="20" height="16" rx="8" fill="url(#paint13_radial_2_11)"/>
<path d="M510 230.5V223M510 213V218.5M505 213.5L510 218.5M510 218.5V223M510 223L515.5 217.5" stroke="#5A1B1B"/>
<rect x="453" y="234" width="20" height="16" rx="8" fill="url(#paint14_radial_2_11)"/>
<path d="M463 256.5V249M463 239V244.5M458 239.5L463 244.5M463 244.5V249M463 249L468.5 243.5" stroke="#5A1B1B"/>
<rect x="295" y="223" width="20" height="16" rx="8" fill="url(#paint15_radial_2_11)"/>
<path d="M305 245.5V238M305 228V233.5M300 228.5L305 233.5M305 233.5V238M305 238L310.5 232.5" stroke="#5A1B1B"/>
<rect x="226" y="204" width="20" height="16" rx="8" fill="url(#paint16_radial_2_11)"/>
<path d="M236 226.5V219M236 209V214.5M231 209.5L236 214.5M236 214.5V219M236 219L241.5 213.5" stroke="#5A1B1B"/>
<rect x="187" y="236" width="20" height="16" rx="8" fill="url(#paint17_radial_2_11)"/>
<path d="M197 258.5V251M197 241V246.5M192 241.5L197 246.5M197 246.5V251M197 251L202.5 245.5" stroke="#5A1B1B"/>
<rect x="28" y="205" width="20" height="16" rx="8" fill="url(#paint18_radial_2_11)"/>
<path d="M38 227.5V220M38 210V215.5M33 210.5L38 215.5M38 215.5V220M38 220L43.5 214.5" stroke="#5A1B1B"/>
</g>
<defs>
<linearGradient id="paint0_linear_2_11" x1="296.5" y1="0" x2="296.5" y2="286" gradientUnits="userSpaceOnUse">
<stop stop-color="#098CC5"/>
<stop offset="1" stop-color="#B8D9FF"/>
</linearGradient>
<linearGradient id="paint1_linear_2_11" x1="300.5" y1="44.5" x2="300.5" y2="403" gradientUnits="userSpaceOnUse">
<stop stop-color="#CBCBC8" stop-opacity="0"/>
<stop offset="0.573946" stop-color="#CBCBCB" stop-opacity="0.3"/>
</linearGradient>
<linearGradient id="paint2_linear_2_11" x1="300.5" y1="124" x2="300.5" y2="403" gradientUnits="userSpaceOnUse">
<stop stop-color="#CBCBC8" stop-opacity="0"/>
<stop offset="0.573946" stop-color="#CBCBCB" stop-opacity="0.3"/>
</linearGradient>
<linearGradient id="paint3_linear_2_11" x1="420" y1="202.5" x2="420.5" y2="222" gradientUnits="userSpaceOnUse">
<stop stop-color="#FF0000"/>
<stop offset="1" stop-color="#990000"/>
</linearGradient>
<radialGradient id="paint4_radial_2_11" cx="0" cy="0" r="1" gradientUnits="userSpaceOnUse" gradientTransform="translate(420 210) rotate(32.4712) scale(52.1536 54.7582)">
<stop stop-color="#323232"/>
<stop offset="1"/>
</radialGradient>
<linearGradient id="paint5_linear_2_11" x1="444.726" y1="269" x2="591.416" y2="253.037" gradientUnits="userSpaceOnUse">
<stop stop-color="#315D48"/>
<stop offset="1" stop-color="#376B52"/>
</linearGradient>
<linearGradient id="paint6_linear_2_11" x1="534.389" y1="294.234" x2="614.729" y2="314.572" gradientUnits="userSpaceOnUse">
<stop stop-color="#315D48"/>
<stop offset="1" stop-color="#376B52"/>
</linearGradient>
<linearGradient id="paint7_linear_2_11" x1="502" y1="319" x2="438.5" y2="304.5" gradientUnits="userSpaceOnUse">
<stop stop-color="#315D48"/>
<stop offset="1" stop-color="#376B52"/>
</linearGradient>
<linearGradient id="paint8_linear_2_11" x1="26.7259" y1="63" x2="173.416" y2="47.0374" gradientUnits="userSpaceOnUse">
<stop stop-color="#315D48"/>
<stop offset="1" stop-color="#376B52"/>
</linearGradient>
<linearGradient id="paint9_linear_2_11" x1="17.3888" y1="60.2341" x2="97.7286" y2="80.572" gradientUnits="userSpaceOnUse">
<stop stop-color="#315D48"/>
<stop offset="1" stop-color="#376B52"/>
</linearGradient>
<linearGradient id="paint10_linear_2_11" x1="141" y1="62" x2="77.5" y2="47.5" gradientUnits="userSpaceOnUse">
<stop stop-color="#315D48"/>
<stop offset="1" stop-color="#376B52"/>
</linearGradient>
<radialGradient id="paint11_radial_2_11" cx="0" cy="0" r="1" gradientUnits="userSpaceOnUse" gradientTransform="translate(492.25 202.5) rotate(114.842) scale(14.8766 17.4141)">
<stop stop-color="#58B287"/>
<stop offset="1" stop-color="#0F422A"/>
</radialGradient>
<radialGradient id="paint12_radial_2_11" cx="0" cy="0" r="1" gradientUnits="userSpaceOnUse" gradientTransform="translate(553.25 200.5) rotate(114.842) scale(14.8766 17.4141)">
<stop stop-color="#58B287"/>
<stop offset="1" stop-color="#0F422A"/>
</radialGradient>
<radialGradient id="paint13_radial_2_11" cx="0" cy="0" r="1" gradientUnits="userSpaceOnUse" gradientTransform="translate(516.25 210.5) rotate(114.842) scale(14.8766 17.4141)">
<stop stop-color="#58B287"/>
<stop offset="1" stop-color="#0F422A"/>
</radialGradient>
<radialGradient id="paint14_radial_2_11" cx="0" cy="0" r="1" gradientUnits="userSpaceOnUse" gradientTransform="translate(469.25 236.5) rotate(114.842) scale(14.8766 17.4141)">
<stop stop-color="#58B287"/>
<stop offset="1" stop-color="#0F422A"/>
</radialGradient>
<radialGradient id="paint15_radial_2_11" cx="0" cy="0" r="1" gradientUnits="userSpaceOnUse" gradientTransform="translate(311.25 225.5) rotate(114.842) scale(14.8766 17.4141)">
<stop stop-color="#58B287"/>
<stop offset="1" stop-color="#0F422A"/>
</radialGradient>
<radialGradient id="paint16_radial_2_11" cx="0" cy="0" r="1" gradientUnits="userSpaceOnUse" gradientTransform="translate(242.25 206.5) rotate(114.842) scale(14.8766 17.4141)">
<stop stop-color="#58B287"/>
<stop offset="1" stop-color="#0F422A"/>
</radialGradient>
<radialGradient id="paint17_radial_2_11" cx="0" cy="0" r="1" gradientUnits="userSpaceOnUse" gradientTransform="translate(203.25 238.5) rotate(114.842) scale(14.8766 17.4141)">
<stop stop-color="#58B287"/>
<stop offset="1" stop-color="#0F422A"/>
</radialGradient>
<radialGradient id="paint18_radial_2_11" cx="0" cy="0" r="1" gradientUnits="userSpaceOnUse" gradientTransform="translate(44.25 207.5) rotate(114.842) scale(14.8766 17.4141)">
<stop stop-color="#58B287"/>
<stop offset="1" stop-color="#0F422A"/>
</radialGradient>
<clipPath id="clip0_2_11">
<rect width="628" height="286" fill="white"/>
</clipPath>
<clipPath id="clip1_2_11">
<path d="M370 217C370 210.925 374.925 206 381 206H456C462.075 206 467 210.925 467 217V217H370V217Z" fill="white"/>
</clipPath>
</defs>
</svg>
