<svg width="127" height="127" viewBox="0 0 127 127" fill="none" xmlns="http://www.w3.org/2000/svg">
<g clip-path="url(#clip0_16_47)">
<rect width="127" height="127" fill="white"/>
<path d="M77.9427 38.5628H126.999C126.999 37.8146 126.75 37.0665 126.251 36.069L113.303 13.6255H63.5L77.9427 38.5628Z" fill="#E2F432"/>
<path d="M0 88.4372H49.0559L77.9413 38.5628H28.1386L0.747042 85.9435C0.249014 86.941 0 87.6891 0 88.4372Z" fill="#0085CA"/>
<path d="M13.6958 113.374H63.4986L49.0559 88.4372H0C0 89.1854 0.249014 89.9335 0.747042 90.931L13.6958 113.374Z" fill="#004B87"/>
<path d="M49.0586 88.4372H98.8614L126.253 41.0565C126.751 40.059 127 39.3109 127 38.5628H77.9443L49.0586 88.4372Z" fill="#C4D600"/>
</g>
<defs>
<clipPath id="clip0_16_47">
<rect width="127" height="127" fill="white"/>
</clipPath>
</defs>
</svg>
