<svg width="127" height="127" viewBox="0 0 127 127" fill="none" xmlns="http://www.w3.org/2000/svg">
<rect width="127" height="127" fill="white"/>
<mask id="mask0_10_2" style="mask-type:luminance" maskUnits="userSpaceOnUse" x="12" y="10" width="103" height="109">
<path d="M115 115.841V94.1454H106.887C104.046 94.1454 102.418 92.5172 102.418 89.676V51.1731C102.418 28.0567 92.2988 10 57.8135 10C47.0715 10 19.9008 12.0434 19.9008 31.3132V42.2302H43.8476V36.7554C43.8476 31.1056 52.9615 29.8925 57.6059 29.8925C70.8106 29.8925 76.6681 35.3674 76.6681 50.1677V50.9655H73.4442C56.6005 50.9655 12 53.5992 12 86.037C12 106.695 28.8397 118.267 47.279 118.267C70.603 118.267 78.5039 100.003 78.5039 100.003H78.9191C78.9191 100.003 78.7115 101.843 78.7115 104.476C78.7115 110.574 82.3505 115.841 91.8836 115.841H115ZM77.0833 71.0331C77.0833 83.611 67.3466 98.2037 53.5517 98.2037C43.0172 98.2037 37.9576 91.7194 37.9576 84.824C37.9576 70.4063 59.2341 68.6071 72.6139 68.6071H77.0833V71.0331Z" fill="white"/>
</mask>
<g mask="url(#mask0_10_2)">
<path d="M98.9867 318.796H151.077C86.0954 248.442 82.5255 148.316 140.819 73.5283C194.224 4.52518 283.503 -15.8558 362.279 13.9525L341.137 -34.9139C256.572 -52.6939 153.747 -21.7092 97.6719 63.7551C42.9114 146.964 49.5993 229.311 98.9867 318.796Z" fill="#FBC707"/>
<path d="M57.4677 342.812H103.908C48.4922 242.409 40.9699 150.013 102.418 56.6154C165.356 -39.249 280.731 -74.0437 375.622 -54.0819L357.146 -96.7082C232.312 -110.711 113.889 -54.2529 53.967 59.1432C2.0152 157.535 11.5117 252.911 57.4677 342.812Z" fill="#F68636"/>
<path d="M18.9973 320.909H55.8394C14.4953 239.983 5.96758 154.141 52.6847 65.5542C106.472 -36.1961 213.6 -86.9024 325.612 -74.7031L311.471 -107.385C183.792 -110.536 72.9233 -47.7401 19.9009 61.0482C-25.0863 152.301 -14.7228 232.775 18.9973 556.412" fill="#DB1F26"/>
<path d="M-8.90204 318.796H19.1356C-14.271 231.529 -24.4961 151.853 20.0026 61.5367C72.5446 -46.1811 182.302 -108.391 308.699 -105.268L297.086 -132.093C173.811 -138.781 45.374 -67.1116 -10.2534 63.7551C-49.4157 155.423 -45.4267 224.874 -8.90204 318.796Z" fill="#4F73C2"/>
</g>
</svg>
