<svg width="127" height="127" viewBox="0 0 127 127" fill="none" xmlns="http://www.w3.org/2000/svg">
<rect width="127" height="127" fill="white"/>
<path d="M63.5 100.619C34.5218 100.619 10.8353 83.9377 10.8353 63.5774C10.8353 43.2171 34.4462 26.5357 63.5 26.5357C92.5538 26.5357 116.165 43.2171 116.165 63.5774C116.165 83.9377 92.5538 100.619 63.5 100.619ZM63.5 22C28.4742 22 0 40.4452 0 63.5774C0 86.7095 28.4742 105.155 63.5 105.155C98.5258 105.155 127 86.5079 127 63.5774C127 40.6468 98.5258 22 63.5 22Z" fill="#0071B7"/>
<path d="M66.2718 85.248H59.3171C57.1248 85.248 55.9405 84.2653 55.9405 82.4762V66.6012C55.9405 65.6185 56.3437 65.2153 57.3264 65.2153H66.2718C71.8911 65.2153 76.4772 69.7258 76.578 75.345C76.6536 80.7627 72.3195 85.1976 66.9018 85.2732C66.7002 85.2732 66.4986 85.2732 66.2718 85.248ZM55.9657 44.6786C55.9657 42.8895 57.15 41.9067 59.3423 41.9067H63.9032C68.6153 41.7052 72.6218 45.3589 72.8234 50.071V50.449C72.7478 55.3123 68.7665 59.2181 63.9032 59.1677H57.3516C56.3689 59.1677 55.9657 58.7645 55.9657 57.7817V44.6786ZM83.9359 62.3427C82.55 61.7379 82.55 61.5363 83.9359 60.7552C87.4889 58.5629 89.6056 54.6319 89.4796 50.449C89.4796 42.7131 79.1734 34.9772 62.7693 34.9772C53.2443 34.9268 43.9965 38.001 36.3109 43.6958C34.925 44.8802 35.1266 45.4849 35.5298 45.8881L37.9236 48.6599C38.7048 49.4663 39.108 49.2647 39.5111 48.8615C41.3002 47.4756 41.5018 48.2567 41.5018 49.8442V77.3105C41.5018 78.898 41.3002 79.7044 39.5111 78.2933C39.108 77.8901 38.73 77.6885 37.9236 78.4948L35.3534 81.4683C34.9502 82.073 34.5722 82.6526 36.1597 83.6605C44.1224 89.1034 53.4963 92.0768 63.122 92.2028C81.5673 92.2028 93.1082 84.4669 93.1082 74.1355C93.2593 67.1808 87.5141 63.8042 83.9359 62.4183" fill="#0071B7"/>
</svg>
