<svg width="127" height="127" viewBox="0 0 127 127" fill="none" xmlns="http://www.w3.org/2000/svg">
<rect width="127" height="127" fill="white"/>
<g clip-path="url(#clip0_6_193)">
<path d="M95.8438 33.6557C87.8661 33.6557 80.1701 36.8986 74.5854 42.6026H7.52145C4.13009 42.6026 1.36719 45.3616 1.36719 48.7688V78.2141C1.36719 81.6182 4.13009 84.3798 7.52145 84.3798H74.5668C80.1495 90.0873 87.856 93.3407 95.8443 93.3407C112.269 93.3407 125.635 79.9525 125.635 63.4957C125.635 47.0405 112.269 33.6557 95.8438 33.6557Z" fill="white"/>
<path d="M87.4111 63.4897C87.4111 68.5485 91.5064 72.6502 96.5567 72.6502C101.607 72.6502 105.698 68.5475 105.698 63.4897C105.698 58.4308 101.607 54.3326 96.5567 54.3326C91.5059 54.3326 87.4111 58.4308 87.4111 63.4897Z" fill="#57275E"/>
<path d="M96.5492 35.0085C112.262 35.0085 124.991 47.7632 124.991 63.4962C124.991 79.2307 112.262 91.988 96.5492 91.988C88.2952 91.988 80.8609 88.4608 75.6671 82.8234H6.29113C3.92321 82.8234 2.00916 80.9056 2.00916 78.5321V48.4396C2.00916 46.0697 3.92372 44.1484 6.29113 44.1484H75.6812C80.8765 38.5286 88.3032 35.0085 96.5492 35.0085ZM96.2936 33C88.2353 33.0701 80.4744 36.3759 74.8253 42.1399H6.29113C2.82077 42.1399 0 44.9614 0 48.4396V78.5331C0 82.0139 2.82077 84.8364 6.29113 84.8364H74.8062C80.5132 90.6699 88.3873 94.0005 96.5492 94.0005C113.345 94.0005 127.001 80.3149 127.001 63.4967C127.001 46.7219 113.412 33.0665 96.671 33L96.2936 33Z" fill="#57275E"/>
<path d="M96.5492 38.0483C88.6907 38.0483 81.6624 41.6288 77.0005 47.2406H9.14709C6.90547 47.2406 5.0835 49.0636 5.0835 51.3181V75.7041C5.0835 77.9515 6.90547 79.7745 9.14709 79.7745H77.0357C81.6961 85.3692 88.7098 88.9386 96.5492 88.9386C110.575 88.9386 121.953 77.5458 121.953 63.4861C121.953 49.4321 110.575 38.0483 96.5492 38.0483ZM30.2334 70.1825C29.3061 71.0908 28.426 71.6588 25.1046 71.6588H18.2343V55.4017H26.1195C30.0986 55.4017 31.119 57.888 31.119 59.5639C31.119 61.8909 29.8017 62.5507 29.1259 62.8934C31.119 63.6333 31.6373 65.2285 31.6373 66.8374C31.6373 68.1241 31.0984 69.3408 30.2334 70.1825ZM46.5009 71.6583L41.4803 64.5174L39.8948 66.1499V71.6583H36.5074V55.4017H39.8948V62.0099L46.0898 55.4017H50.4719L43.8532 62.0557L50.8599 71.6583H46.5009ZM64.8439 71.6583L59.8304 64.5174L58.2429 66.1499V71.6583H54.8555V55.4017H58.2429V62.0099L64.4414 55.4017H68.823L62.1998 62.0557L69.2084 71.6583H64.8439ZM96.5547 76.7237C89.2572 76.7237 83.346 70.8025 83.346 63.4856C83.346 56.1799 89.2572 50.2627 96.5547 50.2627C103.843 50.2627 109.758 56.1799 109.758 63.4856C109.758 70.8025 103.843 76.7237 96.5547 76.7237Z" fill="#57275E"/>
<path d="M27.8624 59.9489C27.8624 58.6138 26.9104 58.203 25.3707 58.203H21.4893V61.7644H25.4648C26.7932 61.7649 27.8624 61.2427 27.8624 59.9489Z" fill="#57275E"/>
<path d="M25.8045 64.5033H21.4873V68.8464H25.6455C27.2954 68.8464 28.2459 68.1231 28.2459 66.4684C28.2459 65.0431 27.0227 64.5033 25.8045 64.5033Z" fill="#57275E"/>
<rect x="14.7498" y="52.4482" width="57.2332" height="24.0598" fill="#57275E"/>
</g>
<defs>
<clipPath id="clip0_6_193">
<rect width="127" height="61" fill="white" transform="translate(0 33)"/>
</clipPath>
</defs>
</svg>
