<svg width="127" height="127" viewBox="0 0 127 127" fill="none" xmlns="http://www.w3.org/2000/svg">
<rect width="127" height="127" fill="white"/>
<path d="M74.4874 26C71.6631 26.1201 69.1851 27.2057 68.7484 29.8905L66.9911 44.0723C76.3849 45.7254 83.511 53.949 83.511 63.7926C83.511 74.8585 74.5575 83.8506 63.5125 83.8506C52.4711 83.8506 43.5066 74.8585 43.5066 63.7926C43.5066 53.949 50.6216 45.724 60.0045 44.0723L58.2967 29.8905C57.8046 27.2057 55.3483 26.1211 52.51 26H0L9.35711 42.8318C11.9954 47.2618 16.4392 47.4857 17.0887 47.4857H30.5189C27.3015 52.8553 25.4881 58.6029 25.4881 63.7926C25.4881 84.9003 42.507 102 63.5037 102C84.4673 102 101.483 84.9186 101.483 63.7926C101.483 58.6029 99.6757 52.8553 96.4371 47.4857H109.893C110.547 47.4857 115.005 47.2619 117.621 42.8318L127 26H74.4874ZM50.7497 63.8036C50.7497 56.7568 56.4594 51.0275 63.5121 51.0275C70.5354 51.0275 76.2745 56.7568 76.2745 63.8036C76.2745 70.8689 70.5354 76.5835 63.5121 76.5835C56.4631 76.5835 50.7497 70.8652 50.7497 63.8036Z" fill="#002595"/>
</svg>
