<svg width="127" height="127" viewBox="0 0 127 127" fill="none" xmlns="http://www.w3.org/2000/svg">
<rect width="127" height="127" fill="white"/>
<g clip-path="url(#clip0_10_39)">
<path d="M63.5 24.985C71.6255 16.475 78.8289 9 91.2765 9C110.582 9 125.565 24.2375 126.89 43.04C127.697 54.7125 124.067 64.2575 115.48 72.9975C101.131 87.545 75.4289 113.535 66.7271 122.332C66.3237 122.735 64.9407 124 63.5576 124C62.1169 124 60.7338 122.735 60.3881 122.332C51.6863 113.535 25.9267 87.4875 11.6351 72.9975C2.9333 64.2575 -0.697242 54.7125 0.109545 43.04C1.43498 24.2375 16.4182 9 35.7234 9C48.171 9 55.3168 16.475 63.5 24.985Z" fill="white"/>
<path d="M63.5 24.985C71.6255 16.475 78.8289 9 91.2765 9C110.582 9 125.565 24.2375 126.89 43.04C127.697 54.7125 124.067 64.2575 115.48 72.9975C101.131 87.545 75.4289 113.535 66.7271 122.332C66.3237 122.735 64.9407 124 63.5576 124C62.1169 124 60.7338 122.735 60.3881 122.332C51.6863 113.535 25.9267 87.4875 11.6351 72.9975C2.9333 64.2575 -0.697242 54.7125 0.109545 43.04C1.43498 24.2375 16.4182 9 35.7234 9C48.171 9 55.3168 16.475 63.5 24.985Z" fill="#F0D722"/>
<path d="M33.6462 78.5126H26.2507C24.3816 78.5126 23 77.8627 23 75.7505V40.5745C23 38.8685 24.3816 37.4874 26.2507 37.4874H34.2963C43.9673 37.4874 45.4301 42.4429 45.4301 47.8046C45.4301 52.1103 44.0486 55.9284 38.6848 57.0658C44.5362 57.3907 46.5679 62.0213 46.5679 66.1644C46.4866 72.6634 44.1298 78.5126 33.6462 78.5126ZM33.0773 43.0928H30.8018V54.6286H32.671C37.8722 54.6286 38.0347 51.3791 38.0347 48.7795C38.0347 44.6364 37.3845 43.0928 33.0773 43.0928ZM32.9148 59.9903H30.7205V72.9071H33.4836C37.9534 72.9071 38.441 69.8201 38.441 66.4081C38.441 62.7524 38.0347 59.9903 32.9148 59.9903ZM68.8355 73.882C68.1041 77.294 66.2349 79 63.1467 79C59.5709 79 58.0268 77.294 57.2953 74.207L49.7374 42.9304C49.0059 39.8433 50.3875 37.2437 53.3132 37.2437C55.1824 37.2437 56.8077 38.1373 57.2953 40.8182L62.2527 63.8897C62.7403 66.0832 63.0654 68.6828 63.1467 70.3888C63.3092 68.6828 63.7156 66.0832 64.0406 63.8897L68.5104 40.8182C68.998 38.5435 70.3796 37.2437 72.33 37.2437C74.7681 37.2437 76.556 39.2747 75.9058 42.4429L68.8355 73.882ZM93.9475 78.9188C81.7572 78.9188 78.9941 72.176 78.9941 58.1219C78.9941 43.3366 85.1705 37 94.6789 37C96.7106 37 101.343 37.4874 103.618 39.2747C104.106 39.7621 104.675 40.4932 104.675 41.7118C104.675 43.5803 103.131 44.9613 101.424 44.9613C99.7175 44.9613 98.0109 43.7427 94.5164 43.7427C89.884 43.7427 86.7958 46.5048 86.7958 58.6905C86.7958 70.0638 89.3964 72.6634 94.8414 72.6634C96.223 72.6634 97.0357 72.501 97.442 72.3385V60.6402H95.1665C93.1348 60.6402 91.9158 59.5841 91.9158 57.7157C91.9158 55.6847 92.9722 54.6286 95.1665 54.6286H101.912C104.187 54.6286 105 55.6847 105 58.2031V70.3888C105 76.3191 101.505 78.9188 93.9475 78.9188Z" fill="#252424"/>
</g>
<defs>
<clipPath id="clip0_10_39">
<rect width="127" height="115" fill="white" transform="translate(0 9)"/>
</clipPath>
</defs>
</svg>
