<svg width="127" height="127" viewBox="0 0 127 127" fill="none" xmlns="http://www.w3.org/2000/svg">
<rect width="127" height="127" fill="white"/>
<g clip-path="url(#clip0_6_132)">
<path d="M87.2689 57.9473H55.0759L40.4915 79.5H53.6797L63.7933 64.6554H74.5581C79.6945 64.6554 84.4836 62.1276 87.2689 57.9473Z" fill="#C41039"/>
<path d="M93.7292 72.7919L110.585 47.5H97.4043L76.0774 79.5H114.289C119.426 79.5 124.215 76.9722 127 72.7919H93.7292Z" fill="#C41039"/>
<path d="M13.5797 72.7919L25.9649 54.2081H81.2933C86.4369 54.2081 91.2188 51.6803 94.0113 47.5H22.5069C19.2297 47.5 16.1768 49.1105 14.3972 51.7783L0.789277 72.2108C-1.30868 75.3547 1.02078 79.5 4.89117 79.5H37.1564L41.6273 72.7919H13.5797Z" fill="#C41039"/>
</g>
<defs>
<clipPath id="clip0_6_132">
<rect width="127" height="32" fill="white" transform="translate(0 47.5)"/>
</clipPath>
</defs>
</svg>
