<svg width="127" height="127" viewBox="0 0 127 127" fill="none" xmlns="http://www.w3.org/2000/svg">
<rect width="127" height="127" fill="white"/>
<path d="M114.237 20H12.763C5.78357 20 0 25.5238 0 32.6562V96.1046C0 103.244 5.78357 108.9 12.763 108.9H114.237C121.22 108.9 127 103.244 127 96.1046V32.6562C127 25.5238 121.22 20 114.237 20Z" fill="#ED1C24"/>
<path d="M117.727 96.105C117.727 98.1265 116.25 99.7459 114.239 99.7459H12.7655C10.751 99.7459 9.27399 98.1265 9.27399 96.105V32.6566C9.27399 30.6385 10.751 29.0227 12.7655 29.0227H114.239C116.25 29.0227 117.727 30.6385 117.727 32.6566V96.105Z" fill="white"/>
<path d="M48.1161 65.3891C48.1161 53.6689 46.8989 44.5148 34.2747 44.5148H31.4452V84.11H36.4137C43.8095 84.11 48.1161 78.1841 48.1161 65.3891ZM38.8375 93.5452H17.4721V35.3537H38.8375C53.889 35.3537 62.2066 44.7818 62.2066 64.1754C62.2066 81.0207 56.5761 93.41 38.8375 93.5452Z" fill="#ED1C24"/>
<path d="M87.8906 84.1122H82.164V69.1603H88.2714C95.532 69.1603 97.3045 73.3957 97.3045 76.638C97.3045 84.1122 90.1079 84.1122 87.8906 84.1122ZM82.164 44.3533H86.5702C92.8236 44.3533 95.3114 46.5315 95.3114 51.3505C95.3114 55.1766 92.578 58.3904 87.7127 58.3904H82.164V44.3533ZM99.1161 63.0991C103.234 62.0136 109.292 57.312 109.292 49.5531C109.292 48.3395 109.035 35.3736 92.6741 35.3736H68.3261V93.5438H88.8943C94.3469 93.5438 111.324 93.5438 111.324 77.1861C111.324 73.0967 109.658 65.4055 99.1161 63.0991Z" fill="#ED1C24"/>
</svg>
