<svg width="127" height="127" viewBox="0 0 127 127" fill="none" xmlns="http://www.w3.org/2000/svg">
<rect width="127" height="127" fill="white"/>
<path d="M47.5091 102C59.5135 102 70.2979 96.7729 77.4712 88.4848C78.6912 87.1191 77.6664 85 75.7633 85H19.2062C17.3519 85 16.3271 87.1191 17.4983 88.4848C24.7204 96.7258 35.456 102 47.5091 102Z" fill="#0071CE"/>
<path d="M90.8444 16H76.2114C74.4554 16 73.3824 17.9852 74.4067 19.4378L101.965 58.5127C104.063 61.5148 104.063 65.5336 101.965 68.5357L74.4067 107.562C73.3824 109.015 74.4067 111 76.2114 111H90.8444C93.7222 111 96.4049 109.596 98.0633 107.272L125.427 68.4873C127.524 65.4852 127.524 61.4664 125.427 58.4643L98.0145 19.7283C96.4049 17.4042 93.7222 16 90.8444 16Z" fill="#0071CE"/>
<path d="M82.6948 48.0928C82.5501 47.7574 82.4055 47.4699 82.2608 47.1346C81.4411 45.4098 80.525 43.7808 79.5124 42.2477C72.6171 31.8512 60.7554 25 47.2542 25C35.3924 25 24.7361 30.318 17.648 38.7503C16.4425 40.1397 17.4551 42.2956 19.3356 42.2956H47.2542C49.4722 42.2956 51.6421 42.631 53.6672 43.3017C58.1516 44.739 62.009 47.6137 64.6611 51.3507C65.6737 52.788 64.6611 54.7523 62.877 54.7523H2.6038C1.54299 54.7523 0.626841 55.5189 0.482185 56.5729C0.144656 58.7768 0 61.0765 0 63.3761C0 65.6758 0.192874 67.9755 0.482185 70.1794C0.626841 71.2334 1.54299 72 2.6038 72H66.638C73.0511 72 78.6927 68.5025 81.6822 63.3761C83.177 60.8369 83.9967 57.8665 83.9967 54.7523C84.0449 52.3568 83.5627 50.105 82.6948 48.0928Z" fill="#0071CE"/>
</svg>
