<svg width="127" height="127" viewBox="0 0 127 127" fill="none" xmlns="http://www.w3.org/2000/svg">
<rect width="127" height="127" fill="white"/>
<path fill-rule="evenodd" clip-rule="evenodd" d="M0 38H14.8377C20.3256 38 22.1207 40.567 23.864 43.2114L41.3188 69.6871C41.5216 70.0181 41.7949 69.8857 41.9604 69.6871L57.804 44.897C60.397 40.8398 63.3528 38.071 70.1665 38.071H110.15C115.746 38.071 127 43.9982 127 57.3644C127 67.4439 119.376 75.8297 112.162 75.8297C111.886 75.7799 111.8 76.1167 112.307 76.8673L121.58 90.598H106.994C101.522 90.598 98.4709 87.5163 96.4652 84.4357L94.5584 81.5069C93.1473 79.0628 89.2183 76.547 85.9676 76.547H69.1208L75.4079 67.1722C78.2634 62.9145 81.552 61.8535 88.2713 61.8535H104.392C111.568 61.8535 110.925 52.7684 104.537 52.7684H80.0218C76.8847 52.7684 72.1646 54.4905 68.404 60.3822L53.3149 84.0218C48.1126 92.3158 36.013 93.6877 29.8891 84.0218L0 38Z" fill="#62B92B"/>
</svg>
