<svg width="127" height="127" viewBox="0 0 127 127" fill="none" xmlns="http://www.w3.org/2000/svg">
<rect width="127" height="127" fill="white"/>
<path d="M99.427 1.01227C98.4597 0.972895 97.4837 1.02802 96.5134 1.18158C92.6324 1.78794 89.1562 3.88714 86.8375 7.01854L70.9995 28.536L89.5954 53.814L111.191 24.4909C113.49 21.3455 114.431 17.4322 113.816 13.6014C113.201 9.77065 111.075 6.33158 107.903 4.0424L107.553 3.78843C105.164 2.08483 102.329 1.12582 99.427 1.01227ZM27.5751 1.02014C24.6729 1.13354 21.8384 2.09274 19.4496 3.79635L19.099 4.04244C15.9267 6.3315 13.8002 9.7703 13.186 13.6015C12.5717 17.4326 13.5183 21.3467 15.8192 24.4909L44.8623 63.9267L15.8504 103.447C13.5313 106.595 12.5703 110.522 13.1782 114.367C13.7861 118.213 15.911 121.665 19.0912 123.965L19.4494 124.218C22.6352 126.488 26.6001 127.424 30.4808 126.818C34.3614 126.211 37.8367 124.111 40.1566 120.981L82.1007 64.0112L63.536 38.7331L40.1644 7.02606C37.8457 3.8947 34.3622 1.79546 30.4808 1.18914C29.5105 1.03755 28.5425 0.982345 27.5751 1.02014ZM89.5876 74.1787L70.9605 99.4567L86.8142 120.989C89.1341 124.12 92.6176 126.213 96.4978 126.819C100.378 127.425 104.343 126.497 107.529 124.227L107.88 123.966C111.051 121.676 113.179 118.245 113.793 114.414C114.407 110.584 113.459 106.662 111.16 103.517L111.192 103.525L89.5876 74.1787Z" fill="#73D700"/>
</svg>
