<svg width="127" height="127" viewBox="0 0 127 127" fill="none" xmlns="http://www.w3.org/2000/svg">
<rect width="127" height="127" fill="white"/>
<path d="M62.0957 126.923C60.2048 126.577 58.7597 125.801 57.3502 124.377C55.1944 122.197 54.0973 119.424 53.9289 115.727C53.8416 113.813 54.0275 112.407 54.613 110.539C55.0484 109.151 56.0407 107.215 56.9058 106.068C57.2748 105.578 57.5529 105.154 57.5242 105.126C57.4571 105.058 38.2543 97.1038 38.22 97.1296C38.2054 97.1401 38.104 97.7504 37.9943 98.4857C37.1907 103.865 33.3159 108.597 28.3258 110.294C24.5307 111.586 21.0737 110.891 18.5308 108.328C14.7511 104.516 15.3779 98.2222 20.0263 93.3271C21.5105 91.7648 23.8522 90.3039 26.0548 89.5678C26.9911 89.2547 27.5425 89.1338 29.2909 88.8577L29.889 88.7633L25.9269 79.2093C23.7473 73.9535 21.934 69.5799 21.8969 69.489C21.8522 69.3786 21.5706 69.5324 21.0507 69.9504C19.2799 71.3777 16.6168 72.5171 14.1033 72.9211C12.6281 73.1588 11.5778 73.1735 9.9818 72.9777C3.82892 72.2242 -0.252036 68.1588 0.0121078 63.0449C0.188204 59.6331 2.11268 56.9126 5.52419 55.2524C7.37669 54.3507 8.91963 53.9991 11.3577 53.9215C13.0928 53.8663 13.5834 53.8978 14.7511 54.1396C17.1116 54.6268 19.0598 55.4887 20.8879 56.8539C21.4155 57.2474 21.8613 57.5508 21.8781 57.5263C21.8948 57.5018 23.711 53.124 25.9136 47.7969L29.9191 38.1115L28.9163 38.0164C25.6648 37.7096 21.6712 35.6091 19.5036 33.0654C15.2493 28.0738 14.9237 22.0995 18.7069 18.415C19.6112 17.5336 20.5797 16.9359 21.848 16.4753C22.7201 16.1587 22.9808 16.1265 24.7047 16.1244C26.1114 16.123 26.815 16.1817 27.4265 16.3502C32.9253 17.8712 37.3284 22.997 38.037 28.7015C38.104 29.2447 38.1879 29.7186 38.2228 29.7528C38.2578 29.7871 42.5756 28.0389 47.8187 25.8671C53.0617 23.6953 57.4215 21.8905 57.5075 21.8555C57.6046 21.8164 57.4488 21.5298 57.0924 21.0922C54.9107 18.4136 53.7403 14.6908 53.9261 11.0252C54.1931 5.76449 56.917 1.57048 60.884 0.312978C62.2012 -0.104326 64.8008 -0.104326 66.118 0.312978C70.1298 1.58446 72.8432 5.80713 73.0794 11.1489C73.2457 14.9018 71.9662 18.7743 69.7105 21.3439L69.3275 21.78L79.0268 25.8C85.7792 28.5988 88.7547 29.7738 88.8211 29.6669C88.8735 29.5823 88.9532 29.114 88.9986 28.6261C89.102 27.5084 89.6149 25.7266 90.1907 24.4796C91.9999 20.5631 95.5924 17.4511 99.5762 16.3488C100.188 16.1796 100.891 16.1216 102.299 16.123C104.023 16.1251 104.283 16.1573 105.155 16.4739C107.777 17.4259 109.746 19.4489 110.544 22.0107C111.86 26.2334 109.693 31.7695 105.475 34.9646C103.365 36.5632 100.374 37.7984 98.0892 38.0151L97.0885 38.1101L101.074 47.7305C103.267 53.0212 105.102 57.3928 105.153 57.4438C105.204 57.4948 105.539 57.3026 105.898 57.0167C107.575 55.6788 109.907 54.6233 112.252 54.1389C114.149 53.7468 117.062 53.8258 118.952 54.32C123.805 55.5887 126.753 58.7908 126.986 63.0442C127.267 68.1546 123.186 72.2214 117.019 72.977C115.422 73.1728 114.372 73.1581 112.897 72.9204C110.38 72.5157 107.72 71.3777 105.944 69.9455L105.16 69.315L104.964 69.8113C104.856 70.0853 103.045 74.4603 100.94 79.5358L97.1123 88.7626L97.7098 88.857C99.4588 89.1331 100.009 89.2526 100.945 89.5643C103.211 90.3179 105.57 91.8088 107.106 93.4578C111.657 98.3424 112.222 104.542 108.463 108.332C107.343 109.462 106.267 110.118 104.784 110.575C103.506 110.969 101.142 110.996 99.746 110.63C96.8097 109.861 93.8412 107.879 92.0132 105.466C90.4213 103.364 89.269 100.6 88.9616 98.1425C88.8959 97.6148 88.8218 97.1667 88.798 97.1457C88.7736 97.1248 84.4557 98.8932 79.2022 101.076C73.9487 103.258 69.5917 105.067 69.5197 105.097C69.4477 105.126 69.5693 105.379 69.7894 105.66C72.4693 109.074 73.5699 113.239 72.9242 117.525C72.5078 120.29 71.4232 122.584 69.7161 124.312C68.4876 125.555 67.4583 126.2 65.988 126.649C64.9601 126.964 63.051 127.097 62.0957 126.923ZM64.9168 120.921C66.886 119.868 67.9929 116.125 67.2305 113.098C66.7155 111.056 65.4737 109.092 64.0405 108.051C63.5422 107.689 63.5269 107.687 63.1446 107.909C62.4717 108.302 61.1649 109.803 60.6674 110.754C59.8407 112.335 59.5745 113.414 59.585 115.138C59.5982 117.385 60.1789 119.155 61.2698 120.275C62.3962 121.433 63.5702 121.642 64.9168 120.921ZM26.5271 104.917C28.6647 104.175 30.7506 102.174 31.752 99.9019C32.376 98.4878 32.6178 96.6753 32.3697 95.2808C32.2803 94.7768 32.2293 94.7195 31.7918 94.6272C29.7821 94.205 27.0939 94.9187 25.096 96.4041C22.9724 97.9838 21.4273 100.998 21.8054 102.825C22.2358 104.907 24.1331 105.748 26.5271 104.917ZM103.588 104.961C104.898 104.345 105.57 102.745 105.169 101.199C104.564 98.8639 102.735 96.6508 100.462 95.5031C98.8145 94.672 96.6888 94.3169 95.2144 94.6265C94.649 94.7454 94.5771 94.969 94.5771 96.6068C94.5771 97.9677 94.8244 98.9366 95.5512 100.418C97.2171 103.818 101.216 106.077 103.588 104.961ZM77.1093 95.7876L90.3249 90.3081L95.8614 76.9711C100.749 65.1985 101.386 63.5859 101.292 63.2204C101.233 62.9925 98.7433 56.9196 95.758 49.7247L90.3312 36.6436L76.9814 31.1145C69.6392 28.0731 63.573 25.5854 63.501 25.5854C63.429 25.5854 57.3642 28.0738 50.0234 31.1145L36.6771 36.6436L31.1811 49.903C28.1588 57.1957 25.6704 63.2686 25.6515 63.3986C25.6327 63.5286 28.1064 69.6365 31.1476 76.9704L36.6778 90.306L50.0241 95.8477C57.9561 99.1407 63.4758 101.363 63.6317 101.328C63.7756 101.294 69.8405 98.8017 77.1093 95.7876ZM14.728 66.9474C16.5609 66.3393 17.948 65.3628 18.9955 63.9445L19.3463 63.4699L18.8355 62.8233C16.3625 59.6939 11.8476 58.6237 8.14816 60.2909C5.24258 61.6001 4.78906 64.4408 7.21947 66.1142C9.24597 67.5115 12.0803 67.8254 14.728 66.9474ZM117.41 67.1683C119.095 66.7349 120.528 65.7836 121.094 64.7211C121.425 64.0997 121.402 62.8667 121.045 62.1858C119.764 59.7407 115.1 58.7481 111.674 60.1909C110.197 60.8137 108.832 61.8692 108.048 62.9946L107.674 63.5328L108.375 64.3835C109.543 65.799 111.691 66.9943 113.725 67.3606C114.602 67.5185 116.415 67.4242 117.41 67.1683ZM31.7939 32.335C32.2377 32.2616 32.2831 32.2126 32.3684 31.7149C33.0448 27.7768 30.3733 23.3912 26.4566 22.0086C24.5013 21.3187 22.8466 21.8045 22.0528 23.3011C21.6551 24.0511 21.6663 25.5036 22.0786 26.5675C23.3567 29.8668 26.9199 32.3888 30.3307 32.4091C30.8708 32.4125 31.5291 32.379 31.7939 32.335ZM98.5518 32.1602C101.343 31.4465 103.904 29.1978 104.923 26.5682C105.335 25.5043 105.346 24.0511 104.949 23.3018C103.909 21.3439 101.425 21.1719 98.8083 22.8775C96.3164 24.5019 94.7385 27.1351 94.605 29.8947C94.5729 30.5588 94.5861 31.3654 94.6344 31.6863C94.7357 32.3601 94.7511 32.3664 96.4869 32.3986C97.1703 32.4112 97.9012 32.3266 98.5518 32.1602ZM64.3794 18.6108C65.7979 17.4972 67.0082 15.3254 67.3702 13.2438C67.6602 11.5788 67.3157 9.26789 66.5547 7.77273C65.93 6.54388 64.5939 5.58835 63.5003 5.58835C61.9196 5.58835 60.4417 7.14363 59.8337 9.44684C59.1412 12.0681 59.6772 14.9354 61.2795 17.1806C61.856 17.9886 63.1747 19.1979 63.4793 19.1979C63.5632 19.1979 63.9678 18.9337 64.3794 18.6108Z" fill="#1C87C9"/>
</svg>
