<svg width="128" height="127" viewBox="0 0 128 127" fill="none" xmlns="http://www.w3.org/2000/svg">
<rect x="0.38916" width="127" height="127" fill="white"/>
<path fill-rule="evenodd" clip-rule="evenodd" d="M109.781 64.8224C109.781 64.8224 118.731 68.7084 113.769 77.9978C113.769 77.9978 116.939 74.1049 123.741 65.1176C130.529 56.1233 125.337 50.2278 120.613 49.2159L0 16.9978L109.781 64.8224Z" fill="#918F90"/>
<path fill-rule="evenodd" clip-rule="evenodd" d="M94.9261 82.82C94.9261 82.82 103.583 86.5999 98.8142 96.9978C98.8142 96.9978 101.975 93.0835 108.765 84.0233C115.562 74.9844 110.24 69.2227 105.646 68.0053L7 42.9978L94.9261 82.82Z" fill="#918F90"/>
<path fill-rule="evenodd" clip-rule="evenodd" d="M81.216 99.8581C81.216 99.8581 91.5331 103.746 86.1447 113.998C86.1447 113.998 87.9054 111.832 94.7787 102.853C101.638 93.8603 96.0799 87.919 91.6179 86.9276L15 68.9978L81.216 99.8581Z" fill="#918F90"/>
</svg>
