<svg width="127" height="127" viewBox="0 0 127 127" fill="none" xmlns="http://www.w3.org/2000/svg">
<rect width="127" height="127" fill="white"/>
<path fill-rule="evenodd" clip-rule="evenodd" d="M0 63.4957C0 28.4237 28.4304 0 63.5 0C98.5697 0 127 28.4233 127 63.4957C127 98.5677 98.5697 127 63.5 127C28.4304 127 0 98.5677 0 63.4957ZM50.9474 98.4693L71.0179 74.392H14.5228C19.4957 96.8565 39.5393 113.667 63.4974 113.667C91.2022 113.667 113.665 91.2023 113.665 63.4957C113.665 35.7892 91.2022 13.3332 63.4974 13.3332C39.4665 13.3332 19.376 30.233 14.4759 52.7959H76.5869L64.0697 31.0124H85.9233L104.605 63.5217L75.4671 98.4685H50.9436L50.9474 98.4693Z" fill="#E3000F"/>
</svg>
