<svg width="127" height="127" viewBox="0 0 127 127" fill="none" xmlns="http://www.w3.org/2000/svg">
<rect width="127" height="127" fill="white"/>
<g clip-path="url(#clip0_10_142)">
<path d="M0 100.93C0 100.86 1.55919 98.3631 4.84187 93.1754C5.82099 91.6281 6.90159 89.906 7.2432 89.3485C7.58481 88.791 8.48071 87.3667 9.23409 86.1835C10.6317 83.9884 12.5122 81.0118 14.9809 77.0867C16.862 74.0961 18.933 70.8154 20.1424 68.9105C20.695 68.0401 21.7557 66.3587 22.4996 65.174C23.2435 63.9893 24.4609 62.0508 25.2048 60.8661C25.9488 59.6814 27.6327 57.0109 28.9469 54.9317C30.2611 52.8525 31.9561 50.1622 32.7136 48.9534C33.4711 47.7445 34.6944 45.806 35.4321 44.6455C37.1804 41.8953 40.2099 37.0936 41.8348 34.4971C42.5439 33.364 43.9019 31.2277 44.8525 29.7496L46.5809 27.0622L86.8301 27.0178C125.109 26.9757 127.075 26.9886 126.998 27.2816C126.953 27.451 126.116 28.8556 125.137 30.403C124.158 31.9503 122.992 33.8098 122.546 34.5351C122.099 35.2604 120.388 37.9902 118.742 40.6013C117.096 43.2124 115.229 46.1796 114.593 47.1951C113.957 48.2105 112.713 50.1886 111.828 51.5909C110.943 52.9932 109.777 54.8526 109.235 55.723C108.171 57.4345 107.009 59.2851 102.696 66.1411C95.9374 76.8835 94.2596 79.5559 93.3401 81.043C92.8019 81.9133 92.0639 83.0804 91.7002 83.6365L91.0388 84.6475H58.9146C35.4242 84.6475 26.7905 84.5949 26.7905 84.4517C26.7905 84.344 27.7765 82.7021 28.9817 80.8031C30.1868 78.9042 31.7686 76.401 32.4968 75.2405C33.2251 74.08 34.5335 72.0029 35.4045 70.6248C36.2755 69.2467 37.6882 67.0115 38.5438 65.6576C39.3993 64.3036 40.787 62.1079 41.6274 60.7782C42.4678 59.4484 43.8546 57.2527 44.709 55.8988C45.5634 54.5449 47.3375 51.736 48.6514 49.6567C49.9653 47.5775 51.377 45.3422 51.7886 44.6894L52.537 43.5026H76.6519C89.9151 43.5026 100.767 43.5503 100.767 43.6087C100.767 43.667 100.014 44.9133 99.093 46.3781C96.0692 51.1893 94.676 53.4181 93.856 54.7559C93.4115 55.4812 92.5966 56.7868 92.0453 57.6571C90.5078 60.0843 89.1962 62.1758 87.5793 64.7784C86.7682 66.0839 85.9366 67.3697 85.7311 67.6357L85.3576 68.1192H69.4693C56.8732 68.1192 53.5813 68.0737 53.5824 67.8994C53.583 67.7785 54.2474 66.5719 55.0585 65.218C55.8696 63.8641 56.8949 62.1431 57.337 61.3936L58.1408 60.0309L70.1636 60.0282C76.7761 60.0269 82.2739 59.9674 82.3808 59.8963C82.5526 59.7822 84.1792 57.3023 86.65 53.3877C87.0944 52.6836 87.458 51.9912 87.458 51.8492C87.458 51.6239 85.4046 51.5909 71.3799 51.5909H55.3018L54.0398 53.569C52.4483 56.0635 51.5359 57.5182 45.202 67.6596C42.3701 72.1938 40.0441 76.0314 40.033 76.1875C40.0146 76.4473 42.058 76.4751 64.1403 76.5159C86.9562 76.558 88.2814 76.5437 88.5209 76.2521C88.6603 76.0826 89.5418 74.7174 90.4799 73.2184C91.4179 71.7194 92.9605 69.2666 93.9077 67.7676C94.855 66.2686 96.2293 64.0927 96.9617 62.9322C98.6686 60.2277 101.039 56.4736 103.014 53.3493C103.869 51.9953 105.279 49.7601 106.146 48.382C107.724 45.8748 108.714 44.313 112.339 38.6103C113.43 36.8941 114.234 35.4547 114.181 35.3134C114.1 35.0975 109.62 35.0626 81.9627 35.0626H49.8387L49.4764 35.4582C49.2772 35.6758 48.8164 36.3496 48.4525 36.9554C48.0886 37.5613 47.1732 39.0251 46.4184 40.2083C44.2253 43.6464 41.4961 47.9457 36.7629 55.4195C35.8886 56.7999 34.3072 59.2923 33.2486 60.9582C32.19 62.6241 30.4473 65.3719 29.3759 67.0642C28.3044 68.7566 26.6749 71.3282 25.7547 72.7788C24.8344 74.2294 23.3037 76.6428 22.3531 78.1417C21.4025 79.6407 19.8457 82.0936 18.8935 83.5926C17.9414 85.0915 16.7868 86.9114 16.3278 87.6367C15.8688 88.362 14.9639 89.7759 14.317 90.7785C13.6701 91.7812 13.1832 92.6714 13.235 92.7567C13.2889 92.8454 28.777 92.9117 49.443 92.9117C74.8966 92.9117 85.5568 92.9671 85.5568 93.0992C85.5568 93.2896 82.2828 98.8856 81.3715 100.253L80.8734 101H40.4367C18.1965 101 0 100.969 0 100.93Z" fill="#006A40"/>
</g>
<defs>
<clipPath id="clip0_10_142">
<rect width="127" height="74" fill="white" transform="translate(0 27)"/>
</clipPath>
</defs>
</svg>
