<svg width="127" height="127" viewBox="0 0 127 127" fill="none" xmlns="http://www.w3.org/2000/svg">
<rect width="127" height="127" fill="white"/>
<path fill-rule="evenodd" clip-rule="evenodd" d="M55.5166 62.5477C53.001 60.122 49.5517 58.6103 45.7739 58.6103H19.0098L28.908 48.8051H54.0902C55.1535 48.8222 56.1476 49.2834 56.8479 49.9753L71.4661 64.4609C73.9818 66.878 77.4224 68.3983 81.2261 68.3983H108.016L98.1006 78.2034H72.9444C71.8638 78.1693 70.8869 77.7166 70.1781 76.9991L55.5166 62.5477ZM63.1672 83.9515C65.6569 86.437 69.1148 88 72.9444 88H102.181L127 63.5043L102.181 39H88.1678L108.016 58.6103H81.2261C80.1714 58.6103 79.186 58.1917 78.4943 57.5255L63.8588 43.0655C61.3518 40.5545 57.9025 39.0085 54.0902 39H24.8105L0 63.5043L24.8105 88H38.8322L19.0098 68.3983H45.7739C46.8372 68.3983 47.7968 68.8168 48.5057 69.5001L63.1672 83.9515Z" fill="#000066"/>
</svg>
