<svg width="127" height="127" viewBox="0 0 127 127" fill="none" xmlns="http://www.w3.org/2000/svg">
<rect width="127" height="127" fill="white"/>
<g clip-path="url(#clip0_5_2)">
<path d="M101.196 66.6879H113.27C114.93 66.6879 118.3 66.9192 118.3 71.68C118.3 77.4837 114.274 77.6015 111.61 77.6015H101.196V66.6879ZM101.196 49.7982H111.726C114.806 49.7982 117.233 50.959 117.233 54.6136C117.233 57.9781 115.042 59.4333 111.257 59.4333H101.196V49.7982ZM92.3191 84.8561H111.788C114.511 84.8561 119.304 84.4355 122.263 81.9543C126.106 78.7034 126.759 75.2253 126.759 73.0174C126.775 70.9546 126.319 68.9161 125.426 67.0624C124.533 65.2087 123.227 63.5904 121.612 62.3351C122.887 61.2823 123.916 59.9546 124.621 58.4488C125.327 56.9429 125.693 55.2965 125.692 53.6295C125.692 51.8884 124.861 42.5393 110.132 42.5393H92.3191V84.8561Z" fill="#E2002A"/>
<path d="M60.1793 66.6879H72.2526C73.9127 66.6879 77.2828 66.9192 77.2828 71.68C77.2828 77.4837 73.257 77.6015 70.5966 77.6015H60.1793V66.6879ZM60.1793 49.7982H70.7128C73.7882 49.7982 76.2162 50.959 76.2162 54.6136C76.2162 57.9781 74.0248 59.4333 70.2397 59.4333H60.1793V49.7982ZM51.3018 84.8561H70.7709C73.4936 84.8561 78.2872 84.4355 81.2464 81.9543C85.0937 78.7034 85.7453 75.2253 85.7453 73.0174C85.7615 70.9543 85.3046 68.9157 84.411 67.062C83.517 65.2083 82.2109 63.5902 80.5948 62.3351C81.8718 61.2831 82.9007 59.9557 83.6071 58.4497C84.3139 56.9437 84.6799 55.297 84.6787 53.6295C84.6787 51.8884 83.8486 42.5393 69.115 42.5393H51.3142V84.8561" fill="#ED1834"/>
<path d="M31.7784 42.5688V42.5393L16.4553 59.4459H26.7274L42.0046 42.5688H31.7784Z" fill="#ED1834"/>
<path d="M39.1203 49.1042L33.2019 55.6524C34.9306 58.1245 35.7926 61.1119 35.6505 64.1383C35.5085 67.1646 34.3705 70.0557 32.4181 72.3504C30.4657 74.645 27.8113 76.2112 24.8782 76.7992C21.9451 77.3871 18.9021 76.9629 16.2346 75.5943C13.5671 74.2257 11.4286 71.9914 10.1602 69.2478C8.89174 66.5041 8.5664 63.4091 9.23605 60.4563C9.90567 57.5034 11.5318 54.8628 13.8549 52.9555C16.1781 51.0482 19.0646 49.9841 22.0541 49.9328L29.0101 42.2617C23.941 40.6099 18.4536 40.8696 13.5585 42.993C8.66331 45.1164 4.69016 48.9606 2.37071 53.8175C0.0512402 58.6744 -0.458346 64.2169 0.935798 69.4244C2.32994 74.6319 5.53392 79.1536 9.95771 82.1567C14.3815 85.1597 19.7271 86.4424 25.0101 85.7678C30.2931 85.0933 35.1577 82.5072 38.708 78.4859C42.2583 74.4646 44.2554 69.2788 44.3309 63.8837C44.4069 58.4886 42.5562 53.2473 39.1203 49.1253" fill="#ED1834"/>
</g>
<defs>
<clipPath id="clip0_5_2">
<rect width="127" height="45" fill="white" transform="translate(0 41)"/>
</clipPath>
</defs>
</svg>
