<svg width="127" height="127" viewBox="0 0 127 127" fill="none" xmlns="http://www.w3.org/2000/svg">
<rect width="127" height="127" fill="white"/>
<path fill-rule="evenodd" clip-rule="evenodd" d="M62.4825 13.0212C59.4756 14.2894 55.9697 16.0139 54.691 16.8514C51.5911 18.8823 51.5162 18.8491 51.1728 15.292L50.8759 12.2092H39.9675H29.059L28.8134 63.3707C28.6198 103.67 28.8219 114.692 29.7619 115.289C31.5111 116.4 47.3691 116.243 49.5157 115.095C51.2051 114.191 51.3502 112.979 51.3502 99.8067V85.5014L53.4845 86.1531C54.6578 86.5126 59.7013 87.0419 64.6917 87.3312C80.4397 88.2428 90.1529 83.4612 94.8815 72.4702C98.856 63.2313 99.4365 39.7003 95.9828 27.8272C94.2602 21.9044 89.6786 15.7653 85.3105 13.5267C79.014 10.2998 69.4345 10.0873 62.4825 13.0212ZM70.8061 33.7946C72.8161 35.5229 73.446 37.1648 74.0881 42.3411C75.5783 54.3584 73.6461 64.4644 69.425 66.7229C67.4492 67.7805 56.9477 68.03 53.4845 67.1023C51.3853 66.5398 51.3502 66.2837 51.3502 51.5194C51.3502 41.9845 51.7164 36.2827 52.3538 35.889C54.6768 34.4529 63.4017 31.7201 65.7626 31.6888C67.1684 31.6698 69.4383 32.6175 70.8061 33.7946Z" fill="#006EB5"/>
</svg>
