<svg width="127" height="127" viewBox="0 0 127 127" fill="none" xmlns="http://www.w3.org/2000/svg">
<rect width="127" height="127" fill="white"/>
<path d="M51.3805 65.3879C51.3805 77.8372 42.5588 87.4173 30.8516 87.4173C28.232 87.4563 25.6355 86.9232 23.2433 85.8553C20.851 84.7873 18.7206 83.2102 17.0008 81.2339V103.082H6.44775V44.117H17.0008V49.476C18.7185 47.4971 20.8484 45.9182 23.2412 44.85C25.634 43.7818 28.2315 43.2502 30.8516 43.2926C42.5588 43.2926 51.3805 52.8562 51.3805 65.3879ZM40.4977 65.3879C40.4977 58.2976 35.4685 53.0211 28.7904 53.0211C27.1938 53.0239 25.6142 53.35 24.147 53.9799C22.6798 54.6098 21.3555 55.5303 20.2537 56.6859C19.152 57.8416 18.2958 59.2084 17.7367 60.704C17.1776 62.1996 16.9273 63.7929 17.0008 65.3879C16.9416 66.9678 17.2016 68.5434 17.7654 70.0204C18.3291 71.4974 19.185 72.8456 20.2818 73.9843C21.3785 75.1229 22.6937 76.0287 24.1486 76.6473C25.6035 77.266 27.1682 77.5848 28.7492 77.5848C30.3302 77.5848 31.8949 77.266 33.3498 76.6473C34.8047 76.0287 36.1199 75.1229 37.2167 73.9843C38.3135 72.8456 39.1693 71.4974 39.7331 70.0204C40.2968 68.5434 40.5569 66.9678 40.4977 65.3879Z" fill="#DC301B"/>
<path d="M55.5025 32.0965C55.4764 30.4976 55.9272 28.9271 56.7975 27.5855C57.6678 26.2439 58.9181 25.1921 60.3889 24.5642C61.8596 23.9363 63.4841 23.7609 65.0549 24.0604C66.6258 24.3599 68.0718 25.1206 69.2084 26.2455C70.345 27.3704 71.1207 28.8084 71.4364 30.3761C71.7521 31.9438 71.5936 33.57 70.981 35.0471C70.3684 36.5243 69.3296 37.7855 67.9971 38.6696C66.6646 39.5538 65.0989 40.0209 63.4997 40.0112C61.393 40.0114 59.3712 39.1801 57.8738 37.6981C56.3764 36.2162 55.5243 34.2032 55.5025 32.0965ZM58.2232 86.6094V44.117C59.8782 44.878 61.6782 45.272 63.4997 45.272C65.3213 45.272 67.1213 44.878 68.7762 44.117V86.5929L58.2232 86.6094Z" fill="#DC301B"/>
<path d="M109.999 26.8035H120.552V86.5929H109.999V81.2999C108.272 83.2624 106.138 84.8259 103.747 85.8822C101.355 86.9385 98.7624 87.4623 96.1483 87.4173C84.6059 87.4173 75.6194 77.8372 75.6194 65.3879C75.6194 52.9387 84.5235 43.2926 96.1483 43.2926C98.7611 43.2456 101.353 43.7668 103.744 44.8202C106.136 45.8736 108.27 47.434 109.999 49.3935V26.8035ZM109.999 65.3879C109.999 58.2976 105.052 53.0211 98.2919 53.0211C91.5313 53.0211 86.5846 58.2976 86.5846 65.3879C86.5002 66.9776 86.7404 68.5678 87.2907 70.0616C87.8409 71.5555 88.6896 72.9216 89.785 74.0767C90.8804 75.2318 92.1996 76.1517 93.6621 76.7804C95.1247 77.409 96.6999 77.7332 98.2919 77.7332C99.8838 77.7332 101.459 77.409 102.922 76.7804C104.384 76.1517 105.703 75.2318 106.799 74.0767C107.894 72.9216 108.743 71.5555 109.293 70.0616C109.843 68.5678 110.083 66.9776 109.999 65.3879Z" fill="#DC301B"/>
</svg>
