<svg width="127" height="127" viewBox="0 0 127 127" fill="none" xmlns="http://www.w3.org/2000/svg">
<rect width="127" height="127" fill="white"/>
<g clip-path="url(#clip0_6_144)">
<path fill-rule="evenodd" clip-rule="evenodd" d="M109.811 98L127 64.3397L109.401 29.0121L32.2783 29.002L23.4739 45.6249L108.56 45.6357L117.779 63.9224L100.589 97.9987L109.811 98ZM31.8561 54.3533L31.8547 62.2491L35.627 62.2498C37.7232 61.8345 38.142 60.588 38.142 60.172C38.5615 58.9255 38.5615 58.0942 38.5622 57.263C38.1427 56.0165 37.7239 55.1852 36.0471 54.3533H31.8561ZM20.1205 49.3645L38.1441 49.3665C44.0119 49.3678 47.3646 53.5241 47.3639 57.6796C47.3626 64.7449 42.3331 66.4067 38.9797 66.406L31.854 66.4053L31.8534 72.6393C31.8534 73.0546 32.2729 73.4699 33.1105 73.4706H36.464L36.4633 77.6268L20.1171 77.6241L20.1178 73.4685L22.6321 73.4692C23.0517 73.4692 23.89 73.0539 23.89 72.638L23.8921 53.9367L20.1198 53.936L20.1205 49.3645ZM94.3083 53.9454L94.3069 61.8419L98.4987 61.8426C100.594 61.8426 100.594 60.596 101.014 59.7648C101.433 58.5183 101.433 58.1023 101.014 56.8558C100.595 55.6086 100.595 54.7773 98.4994 53.9461L94.3083 53.9454ZM82.5727 49.3726L100.596 49.3753C106.464 49.3759 109.817 53.5321 109.816 57.2724C109.815 64.7529 104.785 65.9988 101.851 65.9988L94.3062 65.9974L94.3056 72.2314C94.7251 72.6467 95.1439 73.0627 95.9823 73.0627L98.9162 73.0633L98.9155 77.2189L82.5693 77.2169V73.0613H85.5032C85.9227 73.0613 86.3422 73.0613 86.7611 72.2308L86.7638 53.9447L82.572 53.9441L82.5727 49.3726ZM47.3653 49.3678L62.8731 49.3699L62.8724 53.5261L60.7769 53.5254C59.9385 53.5254 59.1002 53.9407 59.1002 54.3567L59.0988 62.6684L67.0642 54.358C67.483 53.942 67.0642 53.5268 66.6447 53.5268L64.968 53.5261L64.9686 49.3705L78.8005 49.3719L78.7998 53.5281L74.6087 53.5274L68.3207 59.7608L76.7022 71.8135C77.121 72.2294 77.5399 73.0607 78.7971 73.0607H80.4738L80.4731 77.2169L64.9652 77.2149L64.9659 73.0586L66.6426 73.0593C67.4803 73.0593 67.481 72.2281 67.0615 72.2281L62.8711 65.5781L59.0981 69.3177L59.0975 72.2267C59.0975 72.2267 59.0974 73.058 60.7742 73.058L62.8697 73.0586L62.869 77.2142L48.1995 77.2122L48.2002 73.0566H49.8769C50.2958 73.0566 51.553 73.0573 51.553 72.2261L51.5557 54.3553C51.1362 53.94 51.1368 53.5241 49.879 53.5241H47.3646L47.3653 49.3678ZM17.1893 29L0 63.0763L17.5993 97.9879L95.1405 97.998L103.525 81.3758L18.4397 81.3644L9.2212 63.4929L26.4105 29.0013L17.1893 29Z" fill="#013765"/>
</g>
<defs>
<clipPath id="clip0_6_144">
<rect width="127" height="69" fill="white" transform="translate(0 29)"/>
</clipPath>
</defs>
</svg>
