<svg width="127" height="127" viewBox="0 0 127 127" fill="none" xmlns="http://www.w3.org/2000/svg">
<g clip-path="url(#clip0_10_172)">
<rect width="127" height="127" fill="white"/>
<path d="M42.6839 28.6991C49.8559 21.0846 60.0996 15.8423 71.3848 15.8423C93.0992 15.8423 110.704 33.2353 110.704 54.953C110.704 69.4304 102.731 83.937 91.0753 90.7575C89.4352 96.2927 88.3092 100.477 87.7691 107.5C110.613 100.582 127 80.0549 127 54.953C127 24.2345 102.312 0.378906 71.5931 0.378906C54.0601 0.378906 38.7399 8.28305 28.5449 20.9577C28.5449 20.9577 36.6313 23.2355 42.6936 28.6601" fill="#4BC0AD"/>
<path d="M33.6829 44.2569C32.4984 48.0088 32.1698 50.8106 32.1698 54.953C32.1698 77.4451 50.0476 94.5876 71.7621 94.5876C70.545 99.5566 69.8813 103.484 69.3801 109.185C65.1921 109.137 61.1082 108.84 57.187 107.9C33.2338 102.166 15.2974 80.7643 15.7628 54.953C15.8832 48.4448 16.5828 42.8673 18.9355 37.0263C18.9355 37.0263 27.3049 37.6283 33.6829 44.2569Z" fill="#4BC0AD"/>
<path d="M70.825 42.5908C70.825 42.5908 71.2511 46.6193 71.5896 49.2226C71.5896 49.2226 71.6222 50.0198 72.7383 50.3387L75.7841 51.3182C75.7841 51.3182 78.0197 52.0178 77.7431 54.3217L77.4242 57.9532C77.4242 57.9532 78.6055 56.1244 80.5254 56.2286C80.5254 56.2286 83.1025 56.5377 83.0505 59.141C83.0505 59.141 82.8422 61.8646 83.7143 62.6359C83.7143 62.6359 84.3781 63.9961 88.3936 64.3833C90.2094 64.52 91.6445 65.4636 91.6445 65.4636C94.648 67.8033 92.5524 71.6138 92.5524 71.6138C92.5524 71.6138 86.6951 84.2591 84.1276 96.296C84.1276 96.296 78.7389 115.352 83.7339 129.253H76.692C69.0775 105.922 84.4627 73.7745 84.4627 73.7745C84.4627 73.7745 86.1939 70.5985 83.8867 70.182C83.0537 70.0258 82.9074 70.0031 81.8953 69.8143C81.8953 69.8143 78.0653 69.5898 78.9276 64.8551C79.5556 61.3895 76.692 63.0882 76.692 63.0882C73.6202 64.7315 73.4087 62.2876 73.4087 62.2876C73.272 61.0283 73.0572 59.0043 73.0572 59.0043C72.9206 57.6766 72.1527 57.5725 72.1527 57.5725L68.7422 56.8501C66.2041 56.2286 66.1455 53.9019 66.1455 53.9019L65.6542 47.8981C65.5859 45.2135 62.9631 46.0108 62.9631 46.0108C61.4272 46.4273 56.4354 47.1627 56.4354 47.1627C56.4354 47.1627 53.5295 47.9307 49.1072 46.9024C45.7848 45.988 41.5676 43.7752 36.6637 39.5807C31.916 35.357 25.7008 33.0498 25.7008 33.0498C12.9871 28.7902 -0.0292969 34.3482 -0.0292969 34.3482V27.0103C-0.0292969 27.0103 10.8882 21.1399 26.2572 25.8193C26.2572 25.8193 33.9432 27.6025 42.3224 34.8688C42.3224 34.8688 45.0689 37.2736 48.375 38.9494C48.375 38.9494 51.6226 40.9344 56.6404 40.2348C62.7515 39.2976 66.3603 39.1512 66.3603 39.1512C66.3603 39.1512 70.5744 38.6826 70.825 42.5908Z" fill="#004FA3"/>
</g>
<defs>
<clipPath id="clip0_10_172">
<rect width="127" height="127" fill="white"/>
</clipPath>
</defs>
</svg>
