<svg width="127" height="127" viewBox="0 0 127 127" fill="none" xmlns="http://www.w3.org/2000/svg">
<rect width="127" height="127" fill="white"/>
<mask id="mask0_5_19" style="mask-type:luminance" maskUnits="userSpaceOnUse" x="0" y="0" width="127" height="127">
<path d="M27.6859 -3.30582e-06C12.4163 -3.30582e-06 0 12.4164 0 27.6818V99.314C0 114.579 12.4163 126.996 27.6859 126.996H99.3138C114.579 126.996 127 114.579 127 99.314V27.6818C127 12.4164 114.579 -3.30582e-06 99.3138 -3.30582e-06H27.6859Z" fill="white"/>
</mask>
<g mask="url(#mask0_5_19)">
<path d="M63.3211 98.7527C82.8749 98.7527 98.7118 82.9158 98.7118 63.362C98.7118 43.804 82.8749 27.9671 63.3211 27.9671C43.7673 27.9671 27.9304 43.804 27.9304 63.362C27.9304 82.9158 43.7673 98.7527 63.3211 98.7527Z" fill="white"/>
<path d="M30.4078 76.1683C28.8922 72.1762 27.927 67.9048 27.927 63.3624C27.927 59.091 28.7568 54.9593 30.1326 51.1027H-90.6402H-90.7799C-97.6633 51.1027 -103.311 56.75 -103.311 63.6376C-103.311 70.521 -97.6633 76.1683 -90.7799 76.1683H-90.6402H30.4078Z" fill="#EDBD00"/>
<path d="M63.3211 48.6259C71.4575 48.6259 78.0573 55.2214 78.0573 63.3621C78.0573 71.4986 71.4575 78.0983 63.3211 78.0983C55.1846 78.0983 48.5848 71.4986 48.5848 63.3621C48.5848 55.2214 55.1846 48.6259 63.3211 48.6259Z" fill="#E60005"/>
<path d="M221.689 50.9668H221.55H103.948C98.5756 33.6144 82.4636 21.0837 63.4601 21.0837C40.0456 21.0837 21.0421 40.0871 21.0421 63.4975C21.0421 86.9078 40.0456 105.915 63.4601 105.915C74.7504 105.915 85.4904 101.509 93.4787 93.5203C98.4359 88.563 102.017 82.6406 103.948 76.0324H221.55H221.689C228.577 76.0324 234.22 70.3851 234.22 63.4975C234.22 56.6141 228.577 50.9668 221.689 50.9668ZM83.5642 83.6058C78.1921 88.9737 71.0336 92.0047 63.4601 92.0047C47.7587 92.0047 34.9528 79.1989 34.9528 63.4975C34.9528 47.8003 47.7587 34.9902 63.4601 34.9902C79.1573 34.9902 91.9632 47.8003 91.9632 63.4975C91.8277 71.0709 88.9363 78.2337 83.5642 83.6058Z" fill="#001F3D"/>
</g>
</svg>
