<svg width="127" height="127" viewBox="0 0 127 127" fill="none" xmlns="http://www.w3.org/2000/svg">
<g clip-path="url(#clip0_10_193)">
<rect width="127" height="127" fill="white"/>
<path d="M8 1H120V70C120 100.928 94.9279 126 64 126C33.0721 126 8 100.928 8 70V1Z" fill="#C5C6CA"/>
<path d="M8 70C8 100.928 33.0721 126 64 126C94.9279 126 120 100.928 120 70L109 76.5V40L99.5 22.5L90.5 39L91 84L89 89L81 87.5V23.5H75L64 6.5L55 23.5H48.5L48 87.5H38V39.5L27.5 22.5L18 39.5V75.5L8 70Z" fill="white"/>
<path d="M117 70V4H11V70C11 99.2711 34.7289 123 64 123V126C33.3136 126 8.39233 101.318 8.00488 70.7236L8 70V1H120V70L119.995 70.7236C119.608 101.318 94.6864 126 64 126V123C93.2711 123 117 99.2711 117 70Z" fill="black"/>
<path d="M119.285 72.2783L90.4238 90H36.0635L35.6943 89.7656L8.19434 72.2656L9.80566 69.7344L36.9375 87H89.5762L117.715 69.7217L119.285 72.2783Z" fill="black"/>
<path d="M75 107.25C75 101.037 69.9632 96 63.75 96C57.5368 96 52.5 101.037 52.5 107.25V122.5H49.5V107.25C49.5 99.3799 55.8799 93 63.75 93C71.6201 93 78 99.3799 78 107.25V122.5H75V107.25Z" fill="black"/>
<path d="M75.5 107.25C75.5 99.3799 81.8799 93 89.75 93H91.25V118.5H88.25V96.1016C82.7461 96.835 78.5 101.545 78.5 107.25V122.5H75.5V107.25Z" fill="black"/>
<path d="M52.25 107.25C52.25 99.3799 45.8701 93 38 93H36.5V118.5H39.5V96.1016C45.0039 96.835 49.25 101.545 49.25 107.25V122.5H52.25V107.25Z" fill="black"/>
<path d="M59.3213 77.5H69.999L64.5234 73.3926L59.3213 77.5ZM49.5 49.8916C51.1174 49.0369 52.7903 48.3302 54.5 47.7725V32.6211L49.5 27.6211V49.8916ZM74.2842 32.6221V47.7725C75.9939 48.3302 77.6667 49.0369 79.2842 49.8916V27.6221L74.2842 32.6221ZM57.5 32.6211V46.9531C62.038 45.9495 66.7462 45.9495 71.2842 46.9531V32.6201L64.3916 25.7285L57.5 32.6211ZM54.8662 25.5H51.6211L56 29.8789L64.3926 21.4863L72.7842 29.8779L77.1631 25.5H73.9189L64.3916 8.99902L54.8662 25.5ZM76 88.5H73V80.5H56.5V88.5H53.5V78.2734L64.4766 69.6074L76 78.25V88.5ZM82.2842 88.5H79.2842V53.335C70.1239 47.8229 58.6602 47.8228 49.5 53.335V88.5H46.5V22.5H53.1338L64.3926 3L75.6514 22.5H82.2842V88.5Z" fill="black"/>
<path d="M93.2656 36.8414C97.3593 35.8295 101.64 35.8296 105.733 36.8414L99.5 26.0445L93.2656 36.8414ZM110.5 75.9996H107.5V40.5201C102.339 38.6034 96.6607 38.6034 91.5 40.5201V88.9996H88.5V39.0983L99.5 20.0455L110.5 39.0983V75.9996Z" fill="black"/>
<path d="M33.7344 36.8414C29.6407 35.8295 25.3603 35.8296 21.2666 36.8414L27.5 26.0445L33.7344 36.8414ZM16.5 75.9996H19.5V40.5201C24.6607 38.6034 30.3393 38.6034 35.5 40.5201V88.9996H38.5V39.0983L27.5 20.0455L16.5 39.0983V75.9996Z" fill="black"/>
</g>
<defs>
<clipPath id="clip0_10_193">
<rect width="127" height="127" fill="white"/>
</clipPath>
</defs>
</svg>
