<svg width="127" height="127" viewBox="0 0 127 127" fill="none" xmlns="http://www.w3.org/2000/svg">
<rect width="127" height="127" fill="white"/>
<path d="M60.865 106.97C55.8489 106.535 52.0365 105.525 48.2394 103.623C42.6184 100.807 38.5388 96.797 35.252 90.8558C33.1704 87.093 32.5211 86.3137 30.9408 85.6813C30.39 85.4608 30.2152 85.4507 25.9409 85.392C21.1112 85.3256 21.0967 85.3239 19.8317 84.6792C17.5076 83.4945 14.9572 80.6754 12.7188 76.8166C12.0881 75.7294 11.9584 75.2639 12.2545 75.15C12.5315 75.0435 27.7434 75.0829 29.25 75.1941C33.6956 75.5222 36.8983 76.5467 39.5022 78.4738C41.5572 79.9947 42.9277 81.8238 45.0325 85.855C46.47 88.6081 47.4157 89.8744 49.0817 91.2773C52.0209 93.7522 55.895 95.4937 60.2032 96.2766C61.7839 96.5639 65.384 96.541 67.0251 96.2332C71.8526 95.3279 76.1089 93.1936 79.0015 90.2276C80.1695 89.0299 80.7298 88.187 82.2443 85.3489C84.0126 82.0352 85.1708 80.4122 86.693 79.1153C89.4542 76.7625 92.8623 75.5566 97.7747 75.1941C99.8864 75.0383 114.651 75.0525 114.809 75.2106C115.021 75.4231 114.947 75.6664 114.356 76.6919C112.086 80.6363 109.431 83.5614 107.062 84.7301C105.821 85.3422 105.37 85.392 101.063 85.394C97.013 85.3959 96.5423 85.4371 95.6169 85.8713C94.4419 86.4227 93.6101 87.4888 91.7677 90.8048C89.9407 94.0931 88.4101 96.1577 86.2044 98.3092C84.6242 99.8506 83.6963 100.605 81.9209 101.793C77.9952 104.42 73.2431 106.13 68.0525 106.785C66.8842 106.932 61.9071 107.06 60.865 106.97ZM50.8717 84.986C50.1238 84.5899 49.286 83.2887 48.6829 81.5868C46.7246 76.0605 41.1533 71.7263 34.2365 70.3481C31.7594 69.8545 31.8206 69.8569 19.8826 69.7918L8.58065 69.7301L7.97042 69.4995C6.47672 68.935 4.57454 67.4158 3.10607 65.6145C1.70338 63.8939 -0.135651 60.8332 0.00791594 60.4582C0.0702047 60.2955 1.21464 60.2865 18.2259 60.3157C36.22 60.3467 36.3889 60.3488 37.7011 60.5654C44.6593 61.7137 49.5574 64.92 52.0574 69.9629C53.2286 72.3254 53.6249 74.2662 53.7089 78.0511C53.7945 81.9057 53.5484 83.7186 52.8198 84.6013C52.334 85.1899 51.5493 85.3448 50.8717 84.986ZM74.7634 85.0476C73.6481 84.5508 73.2875 83.0628 73.2894 78.9662C73.2906 76.3563 73.3793 75.0825 73.6552 73.7103C74.2978 70.5146 76.0702 67.4293 78.4784 65.3145C81.3058 62.8316 84.7648 61.3161 89.3167 60.5662C90.6371 60.3486 90.7855 60.3467 108.785 60.3158C125.989 60.2862 126.926 60.2938 126.991 60.4634C127.082 60.7028 126.498 61.8407 125.487 63.3916C123.376 66.6291 121.351 68.5561 119.106 69.4629L118.444 69.7301L107.142 69.7919C95.0159 69.8581 95.1869 69.8509 92.48 70.4077C91.1381 70.6837 88.7553 71.4753 87.5172 72.0564C83.1426 74.1097 79.7699 77.5822 78.3773 81.4666C77.9527 82.651 77.3467 83.8264 76.8772 84.3761C76.2649 85.0931 75.4481 85.3526 74.7634 85.0476ZM67.7547 59.6784C66.8363 59.5627 66.7706 59.5302 66.7706 59.1909C66.7706 58.9474 66.8463 58.8649 67.2512 58.6678C68.6064 58.0079 70.3431 56.6439 71.4523 55.3685C72.7854 53.8355 73.6387 52.1868 74.1308 50.1929C74.3446 49.327 74.3469 49.1863 74.3798 35.0055L74.4131 20.6921H78.992H83.5708V34.8309C83.5708 44.2156 83.5341 49.2998 83.4616 49.9513C83.3059 51.3508 82.9398 52.6944 82.4066 53.8225C80.9089 56.9915 78.3718 58.7667 74.3073 59.4895C72.9927 59.7232 69.0197 59.8378 67.7547 59.6784ZM52.6176 56.858C49.6381 56.7049 46.7749 56.1306 44.7012 55.2702L43.963 54.964V52.0139C43.963 50.3913 43.9864 49.0638 44.015 49.0638C44.0437 49.0638 44.6049 49.2279 45.2623 49.4284C47.745 50.1859 50.6221 50.7813 52.6176 50.9505C53.5905 51.033 55.7527 50.8481 56.7227 50.5994C58.338 50.1853 59.2906 49.4556 59.5975 48.3974C59.9493 47.1847 59.6365 46.1018 58.6483 45.1114C57.5386 43.9991 55.8604 43.1128 52.2104 41.7115C49.0028 40.4801 47.7043 39.7943 46.0697 38.4688C44.6611 37.3266 43.4146 35.3869 42.9423 33.6023C42.613 32.3582 42.5532 29.9416 42.8197 28.6521C43.775 24.0291 47.4426 21.195 53.6515 20.2816C57.8727 19.6606 62.2919 20.0779 65.7269 21.4219L66.7706 21.8302V24.8332C66.7706 26.4848 66.7556 27.8361 66.7372 27.8361C66.7189 27.8361 66.2885 27.6555 65.7808 27.4348C64.3585 26.8164 62.1965 26.1248 60.7763 25.8338C59.6227 25.5974 59.3282 25.5754 57.9123 25.6202C55.4508 25.698 54.0374 26.1923 52.9692 27.3487C51.6988 28.7241 51.8342 30.4684 53.3175 31.835C54.4691 32.8961 55.8952 33.5876 59.3786 34.7739C62.742 35.9192 64.9464 37.154 66.6699 38.8581C68.4867 40.6546 69.3161 42.5701 69.3161 44.9698C69.3161 51.7813 65.0767 55.8887 57.1995 56.7094C56.0775 56.8262 53.5775 56.9074 52.6176 56.858Z" fill="#00AB3B"/>
</svg>
