<svg width="127" height="127" viewBox="0 0 127 127" fill="none" xmlns="http://www.w3.org/2000/svg">
<rect width="127" height="127" fill="white"/>
<path d="M63.5951 11.902C35.0944 11.902 11.9905 35.003 11.9905 63.4963C11.9905 91.9945 35.0944 115.098 63.5951 115.098C92.0908 115.098 115.192 91.9945 115.192 63.4963C115.192 35.003 92.0904 11.902 63.5951 11.902ZM96.8939 63.4963C96.8939 81.8804 81.9788 96.7906 63.5947 96.7906C45.2056 96.7906 30.3032 81.8804 30.3032 63.4963C30.3032 45.1146 45.2056 30.2073 63.5947 30.2073C81.9788 30.2073 96.8939 45.1146 96.8939 63.4963Z" fill="#000F9F"/>
<path d="M127 53.0789H0V73.9513H127V53.0789Z" fill="#000F9F"/>
</svg>
