<svg width="127" height="127" viewBox="0 0 127 127" fill="none" xmlns="http://www.w3.org/2000/svg">
<rect width="127" height="127" fill="white"/>
<path d="M59.409 21C34.2654 21 16.3641 38.6979 16.3641 63.8223C16.3641 72.3589 19.3147 80.6024 23.1233 86.2105H9.9608C6.61433 86.2105 3.9908 87.3977 2.31233 89.2314C0.633869 91.0651 0 93.617 0 96.6942C0 99.7783 0.630377 102.187 2.31233 103.979C3.99427 105.771 6.61959 107 9.9608 107H69.014C94.1717 107 112.059 88.9397 112.059 63.8223C112.059 55.2821 108.964 47.0324 105.3 41.4339H117.039C120.381 41.4339 123.008 40.5638 124.688 38.7686C126.367 36.9734 127 34.2049 127 31.1281C127 28.0547 126.364 25.5001 124.688 23.6653C123.011 21.8304 120.386 21 117.039 21H59.409ZM61.7213 41.4339H68.6583C81.3091 41.4339 90.1807 50.6627 90.1807 63.8223C90.1807 70.5713 87.9052 76.0685 83.9552 79.9918C80.0052 83.9151 74.4405 86.2105 67.7689 86.2105H60.832C54.3357 86.2105 48.9262 83.9543 45.1793 79.9918C41.4323 76.0292 39.3095 70.4104 39.3095 63.8223C39.3095 57.0746 41.6069 51.5761 45.535 47.6529C49.4631 43.7297 54.9701 41.4339 61.7213 41.4339Z" fill="#FD5312"/>
</svg>
