<svg width="127" height="127" viewBox="0 0 127 127" fill="none" xmlns="http://www.w3.org/2000/svg">
<rect width="127" height="127" fill="white"/>
<path d="M50.1096 58.7344L22.5159 61.4687L3.93774 98.3438C18.6878 98.3438 26.2034 96.9844 34.7971 84.6875C40.4221 76.3438 45.5315 67.6719 50.1096 58.7344Z" fill="#006C67"/>
<path d="M124.813 24.5781L127 20.4843H68.8282C49.1563 20.4843 39.0469 27.1719 32.9063 39.4687L28.125 49.1719H54.6094C63.9063 31.1406 75.375 24.9843 103.375 24.5781H124.813Z" fill="#006C67"/>
<path d="M123.047 28.5469C87.5313 28.8125 81.6563 34.6875 73.7344 49.1719H112.938L123.047 28.5469Z" fill="#006C67"/>
<path d="M85.5001 79.3438C83.1876 92.4532 72.9219 102.703 59.8125 105.016C55.5313 105.766 51.1875 106.219 46.8438 106.375C41.6563 106.516 0 106.516 0 106.516L1.78125 102.828C1.78125 102.828 17.625 102.688 19.8125 102.688C24.9688 102.609 30.125 102.234 35.25 101.594C46.125 100.672 55.25 93.0313 58.0469 82.4688L61.1875 71.8125C62.9688 62.7969 70.8438 56.2812 80.0313 56.2344L110.359 54.3281L108.859 57.3281L99.5782 57.875C92.6407 58.4062 87.0782 63.7969 86.3282 70.7188L85.5001 79.3438Z" fill="#E31936"/>
</svg>
