<svg width="127" height="127" viewBox="0 0 127 127" fill="none" xmlns="http://www.w3.org/2000/svg">
<rect width="127" height="127" fill="white"/>
<path d="M95.8029 72.0317C95.8294 72.0317 95.856 72.0051 95.856 71.9786C95.856 71.9521 95.8427 71.9388 95.8162 71.9256C94.7952 71.7797 93.867 71.4482 93.0316 70.9178C91.1619 69.7244 89.6901 67.4437 88.4437 63.6514C88.2845 63.1475 82.0391 41.9317 81.6413 40.5526C80.2225 35.7128 77.544 33.5514 75.0777 32.6365C73.8047 32.1724 72.5981 32.0265 71.6301 32.0265C71.0864 32.0265 69.9063 32.0265 69.9063 32.0265C69.8798 32.0265 69.8533 32.053 69.8533 32.0796C69.8533 32.1061 69.8665 32.1193 69.893 32.1326C70.5826 32.2254 71.3251 32.4111 72.0677 32.7293C74.3616 33.6973 76.7484 35.8719 78.1275 40.5526C78.4324 41.6002 84.7176 62.9751 84.8502 63.3995C86.1232 67.3642 87.6216 69.7244 89.531 70.9443C90.7509 71.7134 92.1299 72.0449 93.7344 72.0449H95.8029V72.0317Z" fill="#222720"/>
<path d="M101.319 72.0317C101.345 72.0317 101.372 72.0051 101.372 71.9786C101.372 71.9521 101.359 71.9388 101.332 71.9256C98.5344 71.5676 96.7178 67.6294 95.7233 64.2879C94.6758 60.774 90.8834 47.9517 88.6292 40.5394C86.3618 33.1006 79.3075 32.0265 76.1119 32.0265C76.0854 32.0265 76.0588 32.053 76.0588 32.0796C76.0588 32.1061 76.0721 32.1193 76.0986 32.1326C79.0821 32.5304 83.312 34.3337 85.1419 40.5526C86.7463 46.0157 91.8381 63.3464 92.037 63.9299C93.2569 67.5498 94.7023 69.7377 96.5056 70.9178C97.7255 71.7134 99.1178 72.0449 100.749 72.0449H101.319V72.0317Z" fill="#222720"/>
<path d="M27.8856 96.284C27.5276 96.284 27.2093 96.284 27.0237 96.284C24.4778 96.284 21.4148 94.9846 19.7307 89.0441L4.54815 37.2111C3.64647 34.0951 2.30722 32.5437 0.0397797 32.1459C0.0132599 32.1459 0 32.1326 0 32.1061C0 32.0796 0.0265198 32.053 0.0530396 32.053H0.0795594H2.33374C5.37026 32.053 7.02775 33.5779 8.07528 37.2111C8.07528 37.2111 22.1175 84.8673 23.3905 89.3624C24.3319 92.6906 25.4325 94.958 27.143 95.873C27.4215 96.0188 27.6469 96.1117 27.8856 96.178C27.9121 96.178 27.9254 96.2045 27.9254 96.231C27.9386 96.2575 27.9121 96.284 27.8856 96.284Z" fill="#222720"/>
<path d="M22.7407 39.1471C21.2953 34.1216 19.0146 32.0133 14.8113 32.0133H12.7692C12.7427 32.0133 12.7162 32.0398 12.7162 32.0663C12.7162 32.0928 12.7294 32.1061 12.756 32.1193C16.0312 32.5834 17.9406 34.7448 19.2135 39.1471C19.2135 39.1471 31.7839 81.9501 33.4149 87.5457C33.7729 86.3391 34.3829 84.2838 35.1387 81.7114C33.6403 76.5665 22.7407 39.1471 22.7407 39.1471Z" fill="#222720"/>
<path d="M29.0657 96.284H30.5641C32.4337 96.284 33.773 95.7934 34.7807 94.9713C36.4117 93.6453 37.1542 91.4442 37.8438 89.1369C37.9366 88.7922 51.2363 43.682 51.7136 41.9184C53.2916 35.9647 56.8452 33.3658 60.6243 32.4508C61.2475 32.2917 61.884 32.1856 62.5204 32.1193C62.547 32.1193 62.5602 32.0928 62.5602 32.0663C62.5602 32.0398 62.5337 32.0133 62.5072 32.0133H60.8497C55.864 32.0133 50.3081 33.989 48.1997 41.9051C47.4439 44.756 34.4227 88.7789 34.3299 89.1237C33.6404 91.4309 32.858 93.8707 31.2271 95.1967C30.5641 95.7404 29.9541 96.0321 29.079 96.1647C29.0524 96.1647 29.0392 96.1912 29.0392 96.2177C29.0127 96.2575 29.0392 96.284 29.0657 96.284Z" fill="#222720"/>
<path d="M97.394 65.2293L105.217 39.1471C106.49 34.7448 108.4 32.5834 111.675 32.1193C111.701 32.1193 111.715 32.0928 111.715 32.0663C111.715 32.0398 111.688 32.0133 111.662 32.0133H109.62C105.43 32.0133 103.149 34.1083 101.69 39.1338L95.6437 59.4613C95.6437 59.4745 97.2482 64.805 97.394 65.2293Z" fill="#222720"/>
<path d="M117.987 32.053H115.812C112.245 32.053 110.309 33.8431 109.063 38.1128C109.063 38.1128 101.319 63.9962 101.253 64.2216C100.682 66.0514 99.9665 67.8283 99.2504 68.9686C99.9267 69.8968 100.656 70.4803 101.359 70.6129C102.698 69.4592 103.825 67.3244 104.82 64.0757C104.873 63.9033 112.59 38.1128 112.59 38.1128C113.664 34.4133 115.255 32.5702 117.987 32.1459C118.013 32.1459 118.026 32.1193 118.026 32.0928C118.04 32.0796 118.013 32.053 117.987 32.053Z" fill="#0A9578"/>
<path d="M102.128 73.3311H98.6272C97.036 78.5821 94.9277 85.5435 94.1453 88.1557C91.9707 95.4619 95.405 96.2045 96.7178 96.2045C96.8901 96.2045 98.4813 96.2045 99.4891 96.2045C99.5156 96.2045 99.5421 96.178 99.5421 96.1514C99.5421 96.1249 99.5289 96.1116 99.5023 96.0984C98.004 95.7404 95.9619 94.189 97.7653 88.1424C97.752 88.169 100.934 77.4019 102.128 73.3311Z" fill="#222720"/>
<path d="M122.614 32.1061C122.628 32.1061 122.654 32.0796 122.654 32.053C122.654 32.0265 122.628 32 122.601 32H122.11C119.074 32 117.416 33.5249 116.369 37.1581C116.369 37.1581 110.389 57.2999 108.506 63.5321C106.623 69.7775 105.337 71.4482 102.778 71.8858L102.645 71.9123C102.618 71.9123 102.605 71.9388 102.605 71.9654C102.605 71.9919 102.632 72.0184 102.658 72.0184H104.395C108.851 72.0184 110.508 69.0482 112.073 63.8238C113.385 59.448 121.063 33.7901 121.063 33.7901C121.275 33.0741 121.898 32.3315 122.614 32.1061Z" fill="#222720"/>
<path d="M105.655 73.2516C104.422 77.4417 100.921 89.3756 100.921 89.3756C99.0648 95.5813 101.995 96.2177 103.109 96.2177H105.814C105.841 96.2177 105.867 96.1912 105.867 96.1647C105.867 96.1382 105.854 96.1249 105.827 96.1116C104.554 95.7801 102.897 94.4276 104.409 89.3624C104.409 89.3624 108.254 76.3411 109.713 71.3687C108.877 72.2306 107.458 73.0129 105.655 73.2516Z" fill="#222720"/>
<path d="M112.258 96.2177C112.285 96.2177 112.311 96.1912 112.311 96.1647C112.311 96.1382 112.298 96.1249 112.272 96.1116C111.198 95.8067 109.858 94.6133 111.118 90.3834C111.118 90.3834 125.969 39.8366 126.805 36.9725C127.64 34.1083 125.638 32.3182 123.834 32.053C123.821 32.053 123.768 32.0398 123.755 32.0796C123.741 32.1193 123.795 32.1459 123.808 32.1459C124.166 32.3315 124.564 32.7691 124.351 33.5116C124.139 34.2542 107.644 90.3966 107.644 90.3966C106.066 95.6741 108.559 96.2177 109.5 96.2177H112.258Z" fill="#222720"/>
<path d="M88.7618 72.0317C88.7883 72.0317 88.8148 72.0051 88.8148 71.9786C88.8148 71.9521 88.8016 71.9388 88.7751 71.9256C87.7673 71.7797 86.8524 71.4615 86.017 70.9311C84.0545 69.6847 82.5296 67.2714 81.2434 63.1608C81.1374 62.8028 74.8124 41.2819 74.587 40.5394C73.261 35.9912 71.1129 33.8166 68.9913 32.8089C67.7051 32.1989 66.4321 32.0265 65.3448 32.0265C64.642 32.0265 64.0056 32.0265 63.4884 32.0265H63.4752C63.4486 32.0265 63.4221 32.053 63.4221 32.0796C63.4221 32.1061 63.4354 32.1193 63.4619 32.1326C63.8067 32.1856 68.6333 32.3315 71.0598 40.5526C73.4864 48.7738 76.4036 58.6126 77.3848 62.0735C79.5064 69.5786 82.2512 72.0317 86.6667 72.0317H88.7618Z" fill="#222720"/>
<path d="M66.4056 34.8509C64.6288 36.3758 63.1569 38.6432 62.2818 41.9184C62.1889 42.2632 49.0086 87.1214 48.7169 88.1027C47.603 91.842 46.6749 95.5547 42.4847 96.1912C42.4582 96.1912 42.4449 96.2177 42.4449 96.2442C42.4449 96.2708 42.4715 96.2973 42.498 96.2973H42.7101H43.3334C43.3334 96.2973 43.9301 96.284 44.0494 96.284C48.3058 96.1117 50.4407 94.295 52.2573 88.1159C53.5833 83.5943 65.7161 42.2897 65.8222 41.9317C66.3393 40.2079 66.9625 38.2322 67.8509 36.5084C67.6653 36.2034 67.0156 35.3548 66.4056 34.8509Z" fill="#222720"/>
<path d="M64.4299 33.6973C63.0774 33.3127 61.168 33.4188 59.4309 34.8111C57.6939 36.2034 56.1425 38.5637 55.3469 41.5604C55.2541 41.9051 41.477 88.7922 41.3709 89.1369C40.6814 91.4442 39.9389 93.632 38.3079 94.9713C37.5653 95.5812 36.6371 96.0056 35.457 96.1912C35.4305 96.1912 35.4172 96.2177 35.4172 96.2442C35.4172 96.2708 35.4438 96.2973 35.4703 96.2973H37.6316C39.5013 96.2973 40.8405 95.8067 41.8483 94.9846C43.4793 93.6586 44.2218 91.4574 44.9113 89.1502C45.0174 88.8054 58.6884 42.2764 58.7812 41.9317C59.6563 38.6565 61.1282 36.389 62.8918 34.8641C63.4089 34.4266 63.9393 34.042 64.4962 33.7238C64.4697 33.7105 64.4564 33.7105 64.4299 33.6973Z" fill="#0A9578"/>
<path d="M31.7972 92.2663C31.1873 91.3779 30.6702 90.3171 30.3121 89.0441C29.795 87.1877 15.3947 38.1128 15.3947 38.1128C14.1616 33.8431 12.2124 32.053 8.64545 32.053H6.47082C6.44431 32.053 6.41779 32.0796 6.41779 32.1061C6.41779 32.1326 6.43105 32.1459 6.45757 32.1591C9.18911 32.5834 10.7803 34.4133 11.8543 38.1261L26.785 89.0441C27.5541 91.7624 28.6149 93.5127 29.7817 94.6133C30.6171 94.1227 31.3199 93.3536 31.7972 92.2663Z" fill="#222720"/>
</svg>
