<svg width="127" height="127" viewBox="0 0 127 127" fill="none" xmlns="http://www.w3.org/2000/svg">
<rect width="127" height="127" fill="white"/>
<path d="M97.4151 60.2689H78.417C74.2183 60.1223 71.9865 59.6765 70.6967 58.829C69.1174 57.7811 68.6486 56.5708 68.3564 55.7895C66.2782 50.068 63.5874 31.8034 63.4585 30.9118C63.319 31.8043 60.6379 50.0688 58.5501 55.7895C58.2508 56.5708 57.7847 57.7811 56.2124 58.829C54.935 59.6765 52.6917 60.1232 48.493 60.2689H0L46.1359 26.1657H94.9203L75.2423 40.6704H124.009L97.4187 60.2689" fill="#EC1C24"/>
<path d="M29.5796 66.7223H48.5777C52.7791 66.8715 55.0126 67.3199 56.3015 68.1692C57.8809 69.2153 58.339 70.4283 58.6339 71.2052C60.72 76.932 63.4099 95.1913 63.5406 96.0741C63.6695 95.1904 66.3674 76.9259 68.4482 71.2052C68.7474 70.4275 69.2065 69.2145 70.7797 68.1692C72.0642 67.3199 74.3083 66.8715 78.507 66.7223H127L80.8641 100.834H32.0885L51.7665 86.3208H2.99976L29.5813 66.7223" fill="#003B6A"/>
</svg>
