<svg width="127" height="127" viewBox="0 0 127 127" fill="none" xmlns="http://www.w3.org/2000/svg">
<rect width="127" height="127" fill="white"/>
<g clip-path="url(#clip0_6_154)">
<path d="M67.1286 118C78.0143 98.9333 88.9 80.2333 99.7857 61.1667C78.74 61.1667 58.0571 61.5333 37.0114 61.1667C41.7286 53.1 46.0829 44.6667 50.8 36.6C71.12 36.6 91.44 36.6 111.76 36.6C116.84 45.4 121.92 54.2 127 63.3667C116.84 81.7 106.317 100.033 95.7943 118C86.36 117.923 76.5629 118 67.1286 118ZM60.5971 8C49.7114 27.4333 38.4629 47.2333 27.5771 66.6667C48.6229 66.6667 69.3057 66.6667 90.3514 66.6667C85.6343 74.7333 80.9171 83.1667 76.2 91.2333C55.88 91.2333 35.56 91.2333 15.6029 91.2333C10.16 82.4333 5.08 73.6333 0 64.4667C10.5229 45.4 21.0457 26.7 31.9314 8" fill="#005999"/>
</g>
<defs>
<clipPath id="clip0_6_154">
<rect width="127" height="110" fill="white" transform="translate(0 8)"/>
</clipPath>
</defs>
</svg>
