<svg width="127" height="127" viewBox="0 0 127 127" fill="none" xmlns="http://www.w3.org/2000/svg">
<g clip-path="url(#clip0_11_40)">
<rect width="127" height="127" fill="white"/>
<path d="M4.25043 42.5342L0 34.9801H77.8047L70.2386 42.5362L4.25043 42.5342Z" fill="#ED1C24"/>
<path d="M117.916 0L126.272 2.34102L64.6993 63.8242L59.3828 58.4838L117.916 0Z" fill="#009A68"/>
<path d="M114.498 118.656L112.153 127L31.2192 46.1203H41.9259L114.498 118.656Z" fill="#2967BA"/>
<path fill-rule="evenodd" clip-rule="evenodd" d="M93.438 19.3666C87.1091 15.4861 79.6624 13.2485 71.6906 13.2485C57.4038 13.2485 44.7997 20.4387 37.3052 31.392H28.4483C36.7742 16.0828 53.0181 5.69044 71.6906 5.69044C81.7608 5.69044 91.1209 8.7117 98.9157 13.897L93.438 19.3666ZM91.9881 91.0811C104.708 83.9725 113.304 70.3878 113.304 54.7982C113.304 45.1378 110.002 36.2471 104.463 29.1902L109.847 23.814C116.741 32.2651 120.872 43.0513 120.872 54.7982C120.872 72.4643 111.534 87.9485 97.5174 96.6005L91.9881 91.0811ZM22.5112 54.7982C22.5112 51.8386 22.7738 48.9387 23.277 46.1203H30.9882C30.3915 48.9208 30.0793 51.8227 30.0793 54.7982C30.0793 77.749 48.71 96.3519 71.6906 96.3519C73.2022 96.3519 74.6959 96.2723 76.1658 96.1132L82.7294 102.667C79.1811 103.478 75.4856 103.91 71.6906 103.91C44.5292 103.91 22.5112 81.9219 22.5112 54.7982Z" fill="#848282"/>
</g>
<defs>
<clipPath id="clip0_11_40">
<rect width="127" height="127" fill="white"/>
</clipPath>
</defs>
</svg>
