<?xml version="1.0" encoding="UTF-8" standalone="no"?>
<svg
   width="24"
   height="24"
   viewBox="0 0 24 24"
   fill="none"
   version="1.1"
   id="svg3"
   sodipodi:docname="connectingTrain.svg"
   inkscape:version="1.3 (0e150ed6c4, 2023-07-21)"
   xmlns:inkscape="http://www.inkscape.org/namespaces/inkscape"
   xmlns:sodipodi="http://sodipodi.sourceforge.net/DTD/sodipodi-0.dtd"
   xmlns="http://www.w3.org/2000/svg"
   xmlns:svg="http://www.w3.org/2000/svg">
  <defs
     id="defs3" />
  <sodipodi:namedview
     id="namedview3"
     pagecolor="#ffffff"
     bordercolor="#000000"
     borderopacity="0.25"
     inkscape:showpageshadow="2"
     inkscape:pageopacity="0.0"
     inkscape:pagecheckerboard="0"
     inkscape:deskcolor="#d1d1d1"
     inkscape:zoom="11.446291"
     inkscape:cx="-4.1934981"
     inkscape:cy="21.622725"
     inkscape:window-width="1920"
     inkscape:window-height="991"
     inkscape:window-x="-9"
     inkscape:window-y="-9"
     inkscape:window-maximized="1"
     inkscape:current-layer="svg3" />
  <rect
     x="0.51625466"
     width="22.872194"
     height="22.872194"
     rx="11.436097"
     fill="#0ca724"
     id="rect2"
     y="0.61155182"
     style="stroke-width:1.7594" />
  <path
     d="m 14.663762,16.063813 -2.607958,2.607975 c -0.902044,0.902043 -1.988649,1.352977 -3.2601671,1.352977 -1.2713422,0 -2.3579473,-0.450934 -3.2599914,-1.352977 -0.9018681,-0.901886 -1.3528023,-1.988561 -1.3528023,-3.259974 0,-1.271413 0.4509342,-2.358088 1.3528023,-3.260027 L 8.1437794,9.5437768 9.4476703,10.84779 6.8397124,13.455802 c -0.5433025,0.543337 -0.8149538,1.195335 -0.8149538,1.956012 0,0.760677 0.2716513,1.412675 0.8149538,1.956012 0.5433026,0.543338 1.195336,0.815007 1.9559245,0.815007 0.7607643,0 1.4127981,-0.271669 1.9561001,-0.815007 l 2.607958,-2.60801 z M 10.099704,15.411814 8.7956369,14.1078 14.011729,8.8917785 15.315795,10.195775 Z m 5.868125,-0.651998 -1.304067,-1.304014 2.607958,-2.608012 c 0.543302,-0.543337 0.814954,-1.1953527 0.814954,-1.9560115 0,-0.7606764 -0.271652,-1.4126746 -0.814954,-1.9560124 -0.543302,-0.5433377 -1.195336,-0.8150066 -1.955925,-0.8150066 -0.760764,0 -1.412797,0.2716689 -1.9561,0.8150066 L 10.751737,9.5437768 9.4476703,8.2397626 12.055804,5.631752 c 0.901868,-0.9019386 1.988474,-1.3529079 3.259991,-1.3529079 1.271342,0 2.357948,0.4509693 3.259992,1.3529079 0.901868,0.9019385 1.352802,1.988614 1.352802,3.2600265 0,1.2713945 -0.450934,2.3580705 -1.352802,3.2600085 z"
     fill="#ffffff"
     id="path3"
     style="stroke-width:1.7594" />
</svg>
