<?xml version="1.0" encoding="UTF-8" standalone="no"?>
<svg
   width="24"
   height="24"
   viewBox="0 0 24 24"
   fill="none"
   version="1.1"
   id="svg2"
   sodipodi:docname="ELEVATOR.svg"
   inkscape:version="1.3 (0e150ed6c4, 2023-07-21)"
   xmlns:inkscape="http://www.inkscape.org/namespaces/inkscape"
   xmlns:sodipodi="http://sodipodi.sourceforge.net/DTD/sodipodi-0.dtd"
   xmlns="http://www.w3.org/2000/svg"
   xmlns:svg="http://www.w3.org/2000/svg">
  <defs
     id="defs2" />
  <sodipodi:namedview
     id="namedview2"
     pagecolor="#ffffff"
     bordercolor="#000000"
     borderopacity="0.25"
     inkscape:showpageshadow="2"
     inkscape:pageopacity="0.0"
     inkscape:pagecheckerboard="0"
     inkscape:deskcolor="#d1d1d1"
     inkscape:zoom="16.1875"
     inkscape:cx="3.3976834"
     inkscape:cy="18.131274"
     inkscape:window-width="1920"
     inkscape:window-height="991"
     inkscape:window-x="-9"
     inkscape:window-y="-9"
     inkscape:window-maximized="1"
     inkscape:current-layer="svg2" />
  <path
     d="m 5.368079,20.69112 h 4 v -5.3333 h 1.33334 v -3.3334 c 0,-0.7333 -0.26111,-1.3611 -0.78334,-1.8833 -0.52222,-0.5222203 -1.15,-0.7833303 -1.88333,-0.7833303 h -1.33333 c -0.73334,0 -1.36111,0.26111 -1.88334,0.7833303 -0.52222,0.5222 -0.78333,1.15 -0.78333,1.8833 v 3.3334 h 1.33333 z m 2,-12.6666703 c 0.46667,0 0.86112,-0.16111 1.18334,-0.48333 0.32222,-0.32222 0.48333,-0.71667 0.48333,-1.18333 0,-0.46667 -0.16111,-0.86111 -0.48333,-1.18334 -0.32222,-0.32222 -0.71667,-0.48333 -1.18334,-0.48333 -0.46666,0 -0.86111,0.16111 -1.18333,0.48333 -0.32222,0.32223 -0.48333,0.71667 -0.48333,1.18334 0,0.46666 0.16111,0.86111 0.48333,1.18333 0.32222,0.32222 0.71667,0.48333 1.18333,0.48333 z m 5.99997,3.3333703 h 6.6667 l -3.3333,-5.3333703 z m 3.3334,8 3.3333,-5.3334 h -6.6667 z"
     fill="#ffffff"
     id="path1" />
</svg>
