<?xml version="1.0" encoding="UTF-8" standalone="no"?>
<svg
   width="24"
   height="24"
   viewBox="0 0 24 24"
   fill="none"
   version="1.1"
   id="svg3"
   sodipodi:docname="ESCALATOR.svg"
   inkscape:version="1.3 (0e150ed6c4, 2023-07-21)"
   xmlns:inkscape="http://www.inkscape.org/namespaces/inkscape"
   xmlns:sodipodi="http://sodipodi.sourceforge.net/DTD/sodipodi-0.dtd"
   xmlns="http://www.w3.org/2000/svg"
   xmlns:svg="http://www.w3.org/2000/svg">
  <defs
     id="defs3" />
  <sodipodi:namedview
     id="namedview3"
     pagecolor="#ffffff"
     bordercolor="#000000"
     borderopacity="0.25"
     inkscape:showpageshadow="2"
     inkscape:pageopacity="0.0"
     inkscape:pagecheckerboard="0"
     inkscape:deskcolor="#d1d1d1"
     inkscape:zoom="16.1875"
     inkscape:cx="6.7953668"
     inkscape:cy="13.498069"
     inkscape:window-width="1920"
     inkscape:window-height="991"
     inkscape:window-x="-9"
     inkscape:window-y="-9"
     inkscape:window-maximized="1"
     inkscape:current-layer="svg3" />
  <path
     d="m 4.3935336,18.092125 h 6.7148584 l 4.633782,-6.950306 c 0.33057,-2.8893841 0.202507,-4.9596632 0.156563,-4.0902306 L 12.719699,7.0679274 8.5676113,13.299868 H 4.3935336 c -0.6616558,0 -1.2240603,0.232904 -1.6872135,0.698859 -0.4631605,0.465881 -0.6947371,1.031662 -0.6947371,1.69727 0,0.665607 0.2315766,1.231315 0.6947371,1.69727 0.4631532,0.465881 1.0255577,0.698858 1.6872135,0.698858 z"
     fill="#ffffff"
     id="path1"
     style="fill:#f9f9f9;stroke-width:0.73727"
     sodipodi:nodetypes="scccccscscs" />
  <path
     d="M 6.9824877,10.240197 C 6.7449245,10.477746 6.454108,10.59652 6.1100461,10.59652 c -0.3440545,0 -0.6348707,-0.118774 -0.872434,-0.356323 C 5.0000489,10.002649 4.8812673,9.7118029 4.8812673,9.3677409 c 0,-0.344055 0.1187816,-0.634871 0.3563448,-0.872434 0.2375633,-0.237563 0.5283795,-0.356345 0.872434,-0.356345 0.3440619,0 0.6348784,0.118782 0.8724416,0.356345 0.2375411,0.237563 0.3563154,0.528379 0.3563154,0.872434 0,0.344062 -0.1187743,0.6349081 -0.3563154,0.8724561 z"
     fill="#ffffff"
     id="path2"
     style="fill:#f9f9f9;stroke-width:0.73727" />
  <path
     d="m 4.2233937,12.565842 c 0,-0.814389 0.6601739,-1.47454 1.4745405,-1.47454 h 0.7372702 c 0.814389,0 1.4745407,0.660151 1.4745407,1.47454 v 0.368635 H 4.2233937 Z"
     fill="#ffffff"
     id="path3"
     style="fill:#f9f9f9;stroke-width:0.73727" />
  <path
     d="m 19.738871,6.5022971 h -6.714858 l -4.6337817,6.9503059 -0.1565628,4.090231 3.1790375,-0.01634 4.152088,-6.231941 h 4.174077 c 0.661656,0 1.224061,-0.232903 1.687214,-0.698858 0.46316,-0.465881 0.694737,-1.0316631 0.694737,-1.6972701 0,-0.665608 -0.231577,-1.2313151 -0.694737,-1.6972699 C 20.962932,6.735274 20.400527,6.5022966 19.738871,6.5022971 Z"
     style="fill:#f9f9f9;stroke-width:0.73727"
     id="path1-4"
     sodipodi:nodetypes="ccccccscscsc" />
</svg>
