<svg width="20" height="22" viewBox="0 0 20 22" fill="none" xmlns="http://www.w3.org/2000/svg">
<path d="M7.62695 16.3721L3.5 20.5C2.94772 21.0523 2.05228 21.0523 1.5 20.5C0.947866 19.9477 0.947766 19.0522 1.5 18.5L8.18359 11.8154L8.18848 11.8145L7.62695 16.3721ZM13.875 9.21387L14.1748 9.82422L13.1318 10.8672L11.625 10.3564L11.8457 12.1533L8.77539 15.2236L9.33691 10.6621L12.084 7.91504L15 6.92871L13.875 9.21387ZM17.5 2.5C18.0522 1.94777 18.9477 1.94787 19.5 2.5C20.0523 3.05228 20.0523 3.94772 19.5 4.5L15.1855 8.81348L16.9609 5.20801L13.6797 6.31934L17.5 2.5Z" fill="black"/>
<path d="M10.6359 18.4261C10.5505 18.3828 10.4495 18.3828 10.3641 18.4261L8.75244 19.2448C8.53828 19.3536 8.28949 19.1791 8.31882 18.9407L9.31668 10.8311C9.34368 10.6116 9.13211 10.4394 8.9227 10.5103L6.68454 11.2682C6.4316 11.3539 6.20123 11.0912 6.31916 10.8516L7.0598 9.3468C7.10091 9.26326 7.10091 9.16538 7.0598 9.08184L6.31914 7.577C6.20121 7.33739 6.43158 7.07472 6.68453 7.16037L8.85671 7.89592C9.08107 7.9719 9.30084 7.77009 9.24424 7.54008L8.51095 4.56035C8.43808 4.26426 8.80214 4.0609 9.01605 4.27821L10.2862 5.56852C10.4037 5.68791 10.5963 5.68791 10.7138 5.56852L11.9839 4.27821C12.1979 4.0609 12.5619 4.26426 12.4891 4.56035L11.7558 7.54008C11.6992 7.77009 11.9189 7.9719 12.1433 7.89592L14.3155 7.16037C14.5684 7.07472 14.7988 7.33739 14.6809 7.577L13.9402 9.08184C13.8991 9.16538 13.8991 9.26326 13.9402 9.3468L14.6808 10.8516C14.7988 11.0912 14.5684 11.3539 14.3155 11.2682L12.0773 10.5103C11.8679 10.4394 11.6563 10.6116 11.6833 10.8311L12.6812 18.9407C12.7105 19.1791 12.4617 19.3536 12.2476 19.2448L10.6359 18.4261Z" fill="black"/>
</svg>
