<svg width="24" height="24" viewBox="0 0 24 24" fill="none" xmlns="http://www.w3.org/2000/svg">
<path d="M18.6084 8.33398H14.9561L13.8682 7.52539C13.8576 7.53262 13.8465 7.53956 13.8359 7.54688L10.3867 4.94238L6.9375 7.54688C6.92675 7.53942 6.91508 7.53276 6.9043 7.52539L3.80859 9.82617V19.5977H5.35352C5.63967 20.8464 6.76769 21.7694 8.09082 21.7695H1.61719V8.74121L10.3838 2.22656L10.3867 2.22852L10.3896 2.22656L18.6084 8.33398ZM8.19238 19.5977V20.5479H8.09082C7.43973 20.5478 6.87713 20.1551 6.63281 19.5977H8.19238ZM19.1562 9.55566V10.5166H16.9648V9.82617L16.6006 9.55566H19.1562Z" fill="black"/>
<path d="M20.7988 9.55371C21.6725 9.55384 22.3866 10.2619 22.3867 11.125V18.9609C22.3866 19.84 21.6722 20.5467 20.7988 20.5469H8.0957C7.22206 20.5467 6.50802 19.8395 6.50781 18.9766V11.125C6.50788 10.2619 7.22198 9.55384 8.0957 9.55371H20.7988ZM8.07812 10.665C7.8401 10.6808 7.6494 10.8847 7.66504 11.1201V18.9727C7.66518 19.2081 7.8558 19.4119 8.09375 19.4121H20.7969C21.0507 19.3963 21.2413 19.1923 21.2256 18.957V11.1045C21.2254 10.8692 21.0348 10.6652 20.7969 10.665H8.07812Z" fill="black"/>
<path d="M11.363 18.6496H8.69531V11.457H11.363C13.2525 11.457 14.2846 12.6192 14.2846 15.0219C14.2846 17.0948 13.5701 18.6338 11.363 18.6496ZM12.5221 15.1632C12.5221 13.7185 12.3633 12.5877 10.7913 12.5877H10.442V17.4875H11.0613C11.9822 17.4875 12.5221 16.7494 12.5221 15.1632ZM18.8894 14.8806C19.6357 14.6607 20.1439 13.9854 20.1597 13.2003C20.1597 13.0432 20.128 11.4414 18.0796 11.4414H15.0468V18.6338H17.6191C18.3019 18.6338 20.4297 18.6338 20.4297 16.6081C20.4297 16.1212 20.2074 15.1632 18.8894 14.8806ZM16.7776 12.5721H17.3333C18.1114 12.5721 18.429 12.8391 18.429 13.4358C18.429 13.9069 18.0796 14.2996 17.4762 14.2996H16.7935V12.5721H16.7776ZM17.4921 17.4875H16.7776V15.6343H17.5398C18.4448 15.6343 18.6671 16.1526 18.6671 16.5609C18.6671 17.4875 17.7779 17.4875 17.4921 17.4875Z" fill="black"/>
</svg>
