<?xml version="1.0" encoding="UTF-8" standalone="no"?>
<svg
   width="31"
   height="31"
   viewBox="0 0 31 31"
   fill="none"
   version="1.1"
   id="svg9"
   sodipodi:docname="kichange.svg"
   inkscape:version="1.3 (0e150ed6c4, 2023-07-21)"
   xmlns:inkscape="http://www.inkscape.org/namespaces/inkscape"
   xmlns:sodipodi="http://sodipodi.sourceforge.net/DTD/sodipodi-0.dtd"
   xmlns="http://www.w3.org/2000/svg"
   xmlns:svg="http://www.w3.org/2000/svg">
  <sodipodi:namedview
     id="namedview9"
     pagecolor="#ffffff"
     bordercolor="#000000"
     borderopacity="0.25"
     inkscape:showpageshadow="2"
     inkscape:pageopacity="0.0"
     inkscape:pagecheckerboard="0"
     inkscape:deskcolor="#d1d1d1"
     inkscape:zoom="12.532258"
     inkscape:cx="23.778636"
     inkscape:cy="14.482625"
     inkscape:window-width="1920"
     inkscape:window-height="991"
     inkscape:window-x="-9"
     inkscape:window-y="-9"
     inkscape:window-maximized="1"
     inkscape:current-layer="svg9" />
  <path
     d="M 4.0218379,30.253921 7.7026275,11.930937 4.6511539,13.150532 v 4.253353 H 2.7255677 V 11.888823 L 8.813441,9.3013797 c 0.299615,-0.128362 0.5987639,-0.205286 0.8976019,-0.2306166 0.2988381,-0.025486 0.5853991,0.00295 0.8601501,0.085316 0.274906,0.082208 0.529765,0.2091711 0.764267,0.3812011 0.234502,0.1720301 0.433261,0.3954981 0.596277,0.6705598 l 1.08595,1.732732 c 0.638702,1.038551 1.442441,1.873371 2.410907,2.504614 0.96862,0.631088 2.054414,0.971418 3.257536,1.020836 v 1.925586 c -1.464663,-0.06589 -2.771128,-0.437767 -3.919238,-1.115786 -1.147955,-0.678019 -2.135069,-1.572669 -2.961341,-2.683793 l -0.987269,4.910703 2.7329,2.740204 v 9.010985 H 11.625596 V 22.316764 L 8.4850766,19.633437 6.0264615,30.253921 Z M 11.946501,7.9117906 c -0.656729,0 -1.215866,-0.2308652 -1.677565,-0.6925956 C 9.8072368,6.7574801 9.5763094,6.1982971 9.5763094,5.5416459 c 0,-0.6566356 0.2309274,-1.2158186 0.6926266,-1.677549 0.461699,-0.4617149 1.020836,-0.6925801 1.677565,-0.6925801 0.656573,0 1.21571,0.2308652 1.677564,0.6925801 0.4617,0.4617304 0.692472,1.0209134 0.692472,1.677549 0,0.6566512 -0.230772,1.2158342 -0.692472,1.6775491 -0.461854,0.4617304 -1.020991,0.6925956 -1.677564,0.6925956 z"
     fill="white"
     id="path1"
     style="fill:#000000;stroke-width:1.55402" />
  <path
     d="m 21.177453,17.743309 c 0,-2.276887 0.792042,-4.207279 2.375751,-5.791176 1.583897,-1.583897 3.514289,-2.3758256 5.791365,-2.3758256 -2.277076,0 -4.207468,-0.791949 -5.791365,-2.375846 -1.583709,-1.5838781 -2.375751,-3.5142701 -2.375751,-5.791195 0,2.2769249 -0.791854,4.2073169 -2.375751,5.791195 -1.583897,1.583897 -3.514289,2.375846 -5.791365,2.375846 2.277076,0 4.207468,0.7919286 5.791365,2.3758256 1.583897,1.583897 2.375751,3.514289 2.375751,5.791176 z"
     fill="url(#paint0_radial_733_352)"
     id="path2"
     style="fill:url(#paint0_radial_733_352);stroke-width:1.88313" />
  <defs
     id="defs9">
    <radialGradient
       id="paint0_radial_733_352"
       cx="0"
       cy="0"
       r="1"
       gradientUnits="userSpaceOnUse"
       gradientTransform="matrix(5.4446923,8.5559426,-8.5559426,5.4446923,18.455206,6.0761411)">
      <stop
         stop-color="#EA01DA"
         id="stop4" />
      <stop
         offset="1"
         stop-color="#940A26"
         id="stop5" />
    </radialGradient>
    <radialGradient
       id="paint1_radial_733_352"
       cx="0"
       cy="0"
       r="1"
       gradientUnits="userSpaceOnUse"
       gradientTransform="translate(20.8826 14.3218) rotate(57.5288) scale(4.10318)">
      <stop
         stop-color="#01A0EA"
         id="stop6" />
      <stop
         offset="1"
         stop-color="#1949C4"
         id="stop7" />
    </radialGradient>
    <radialGradient
       id="paint2_radial_733_352"
       cx="0"
       cy="0"
       r="1"
       gradientUnits="userSpaceOnUse"
       gradientTransform="translate(17.0281 18.6906) rotate(57.5288) scale(4.61608)">
      <stop
         stop-color="#EAE601"
         id="stop8" />
      <stop
         offset="1"
         stop-color="#C48219"
         id="stop9" />
    </radialGradient>
  </defs>
</svg>
