<svg width="21" height="22" viewBox="0 0 21 22" fill="none" xmlns="http://www.w3.org/2000/svg">
<g clip-path="url(#clip0_1050_49)">
<rect y="0.695312" width="20.6133" height="20.6133" rx="10.3066" fill="#041E42"/>
<path d="M1.30469 18C1.02135 18 0.783854 17.9042 0.592188 17.7125C0.400521 17.5208 0.304688 17.2833 0.304688 17C0.304688 16.7167 0.400521 16.4792 0.592188 16.2875C0.783854 16.0958 1.02135 16 1.30469 16H6.30469V11C6.30469 10.7167 6.40052 10.4792 6.59219 10.2875C6.78385 10.0958 7.02135 10 7.30469 10H12.3047V5C12.3047 4.71667 12.4005 4.47917 12.5922 4.2875C12.7839 4.09583 13.0214 4 13.3047 4H19.3047C19.588 4 19.8255 4.09583 20.0172 4.2875C20.2089 4.47917 20.3047 4.71667 20.3047 5C20.3047 5.28333 20.2089 5.52083 20.0172 5.7125C19.8255 5.90417 19.588 6 19.3047 6H14.3047V11C14.3047 11.2833 14.2089 11.5208 14.0172 11.7125C13.8255 11.9042 13.588 12 13.3047 12H8.30469V17C8.30469 17.2833 8.20885 17.5208 8.01719 17.7125C7.82552 17.9042 7.58802 18 7.30469 18H1.30469Z" fill="white"/>
</g>
<defs>
<clipPath id="clip0_1050_49">
<rect y="0.695312" width="20.6133" height="20.6133" rx="10.3066" fill="white"/>
</clipPath>
</defs>
</svg>
