<svg width="21" height="21" viewBox="0 0 21 21" fill="none" xmlns="http://www.w3.org/2000/svg">
<g clip-path="url(#clip0_1051_92)">
<rect width="20.6133" height="20.6133" rx="10.3066" fill="#041E42"/>
<path d="M5.30469 16.3047H8.60469L13.6047 7.30469H15.3047C15.7214 7.30469 16.0755 7.15885 16.3672 6.86719C16.6589 6.57552 16.8047 6.22135 16.8047 5.80469C16.8047 5.38802 16.6589 5.03385 16.3672 4.74219C16.0755 4.45052 15.7214 4.30469 15.3047 4.30469H12.0047L7.00469 13.3047H5.30469C4.88802 13.3047 4.53385 13.4505 4.24219 13.7422C3.95052 14.0339 3.80469 14.388 3.80469 14.8047C3.80469 15.2214 3.95052 15.5755 4.24219 15.8672C4.53385 16.1589 4.88802 16.3047 5.30469 16.3047Z" fill="white"/>
</g>
<defs>
<clipPath id="clip0_1051_92">
<rect width="20.6133" height="20.6133" rx="10.3066" fill="white"/>
</clipPath>
</defs>
</svg>
