<svg width="21" height="21" viewBox="0 0 21 21" fill="none" xmlns="http://www.w3.org/2000/svg">
<g clip-path="url(#clip0_1050_85)">
<rect width="20.6133" height="20.6133" rx="10.3066" fill="#041E42"/>
<path d="M5.2167 12.4289V15.6103C5.2167 15.9107 5.31833 16.1626 5.52158 16.3658C5.72483 16.5691 5.97669 16.6707 6.27715 16.6707H7.3376C7.63806 16.6707 7.88992 16.5691 8.09317 16.3658C8.29643 16.1626 8.39805 15.9107 8.39805 15.6103V12.4289C8.59247 12.2345 8.81782 12.0799 9.07409 11.965C9.33037 11.8501 9.4585 11.6513 9.4585 11.3685V9.77779C9.4585 9.19454 9.25083 8.69525 8.83549 8.27991C8.42015 7.86456 7.92085 7.65689 7.3376 7.65689H6.27715C5.6939 7.65689 5.19461 7.86456 4.77926 8.27991C4.36392 8.69525 4.15625 9.19454 4.15625 9.77779V11.3685C4.15625 11.6513 4.28439 11.8501 4.54066 11.965C4.79694 12.0799 5.02228 12.2345 5.2167 12.4289ZM6.80738 6.59644C7.17853 6.59644 7.49225 6.4683 7.74853 6.21203C8.0048 5.95575 8.13294 5.64203 8.13294 5.27088C8.13294 4.89972 8.0048 4.586 7.74853 4.32973C7.49225 4.07345 7.17853 3.94531 6.80738 3.94531C6.43622 3.94531 6.1225 4.07345 5.86623 4.32973C5.60995 4.586 5.48181 4.89972 5.48181 5.27088C5.48181 5.64203 5.60995 5.95575 5.86623 6.21203C6.1225 6.4683 6.43622 6.59644 6.80738 6.59644ZM12.5338 9.24757H15.9273C16.1393 9.24757 16.294 9.15478 16.3912 8.9692C16.4884 8.78362 16.484 8.60246 16.3779 8.42572L14.6812 5.72157C14.5752 5.54483 14.4249 5.45646 14.2305 5.45646C14.0361 5.45646 13.8859 5.54483 13.7798 5.72157L12.0831 8.42572C11.9771 8.60246 11.9727 8.78362 12.0699 8.9692C12.1671 9.15478 12.3217 9.24757 12.5338 9.24757ZM14.6812 14.8945L16.3779 12.1903C16.484 12.0136 16.4884 11.8324 16.3912 11.6468C16.294 11.4613 16.1393 11.3685 15.9273 11.3685H12.5338C12.3217 11.3685 12.1671 11.4613 12.0699 11.6468C11.9727 11.8324 11.9771 12.0136 12.0831 12.1903L13.7798 14.8945C13.8859 15.0712 14.0361 15.1596 14.2305 15.1596C14.4249 15.1596 14.5752 15.0712 14.6812 14.8945Z" fill="white"/>
</g>
<defs>
<clipPath id="clip0_1050_85">
<rect width="20.6133" height="20.6133" rx="10.3066" fill="white"/>
</clipPath>
</defs>
</svg>
