<svg width="21" height="21" viewBox="0 0 21 21" fill="none" xmlns="http://www.w3.org/2000/svg">
<g clip-path="url(#clip0_1050_78)">
<rect width="20.6133" height="20.6133" rx="10.3066" fill="#041E42"/>
<path d="M9.22722 12.088L8.13365 17.0007C8.1 17.1577 8.01868 17.2867 7.8897 17.3876C7.76071 17.4886 7.6121 17.5391 7.44386 17.5391C7.21954 17.5391 7.04008 17.4549 6.90549 17.2867C6.77089 17.1185 6.72603 16.9278 6.77089 16.7147L8.48695 8.05025L7.27562 8.52133V10.1364C7.27562 10.3271 7.21113 10.4869 7.08214 10.6159C6.95316 10.7449 6.79333 10.8094 6.60265 10.8094C6.41198 10.8094 6.25215 10.7449 6.12316 10.6159C5.99418 10.4869 5.92969 10.3271 5.92969 10.1364V8.0839C5.92969 7.94931 5.96614 7.82874 6.03904 7.72218C6.11195 7.61563 6.21009 7.53431 6.33347 7.47823L9.32816 6.1996C9.48519 6.1323 9.65062 6.09305 9.82447 6.08183C9.99832 6.07062 10.1638 6.09305 10.3208 6.14913C10.4778 6.20521 10.6264 6.28372 10.7666 6.38467C10.9068 6.48561 11.0218 6.6146 11.1115 6.77162L11.7845 7.84836C11.9303 8.07269 12.1013 8.28579 12.2976 8.48768C12.4939 8.68957 12.7154 8.86342 12.9622 9.00923C13.1192 9.09896 13.293 9.18028 13.4837 9.25318C13.6744 9.32608 13.8651 9.37936 14.0557 9.41301C14.2352 9.44666 14.3838 9.52797 14.5016 9.65696C14.6193 9.78594 14.6782 9.94577 14.6782 10.1364C14.6782 10.3271 14.6109 10.4841 14.4763 10.6075C14.3418 10.7309 14.1791 10.7814 13.9884 10.7589C13.3603 10.6692 12.7967 10.4729 12.2976 10.1701C11.7985 9.86726 11.3639 9.50274 10.9938 9.07653L10.5731 11.1459L11.7845 12.2899C11.8518 12.3572 11.9023 12.4329 11.9359 12.5171C11.9695 12.6012 11.9864 12.6881 11.9864 12.7778V16.8661C11.9864 17.0568 11.9219 17.2166 11.7929 17.3456C11.6639 17.4746 11.5041 17.5391 11.3134 17.5391C11.1227 17.5391 10.9629 17.4746 10.8339 17.3456C10.7049 17.2166 10.6404 17.0568 10.6404 16.8661V13.1648L9.22722 12.088ZM10.9769 5.76217C10.6068 5.76217 10.2899 5.63038 10.0264 5.36681C9.76278 5.10323 9.631 4.78637 9.631 4.41624C9.631 4.04611 9.76278 3.72926 10.0264 3.46568C10.2899 3.2021 10.6068 3.07031 10.9769 3.07031C11.3471 3.07031 11.6639 3.2021 11.9275 3.46568C12.1911 3.72926 12.3229 4.04611 12.3229 4.41624C12.3229 4.78637 12.1911 5.10323 11.9275 5.36681C11.6639 5.63038 11.3471 5.76217 10.9769 5.76217Z" fill="white"/>
</g>
<defs>
<clipPath id="clip0_1050_78">
<rect width="20.6133" height="20.6133" rx="10.3066" fill="white"/>
</clipPath>
</defs>
</svg>
