<svg width="21" height="21" viewBox="0 0 21 21" fill="none" xmlns="http://www.w3.org/2000/svg">
<g clip-path="url(#clip0_1050_74)">
<rect width="20.6133" height="20.6133" rx="10.3066" fill="#041E42"/>
<path d="M14.4351 14.5967C15.0372 14.5967 15.5449 14.39 15.9582 13.9767C16.3715 13.5634 16.5781 13.0557 16.5781 12.4536V6.63672C16.5781 5.7897 16.1852 5.16974 15.3994 4.77684C14.6136 4.38395 13.3737 4.1875 11.6797 4.1875C9.92441 4.1875 8.66919 4.37629 7.91401 4.75388C7.15884 5.13147 6.78125 5.75908 6.78125 6.63672V12.4536C6.78125 13.0557 6.9879 13.5634 7.40121 13.9767C7.81451 14.39 8.32222 14.5967 8.92432 14.5967L7.92932 15.2549C7.80686 15.3365 7.76604 15.4514 7.80686 15.5993C7.84768 15.7473 7.94463 15.8213 8.0977 15.8213H15.2617C15.4147 15.8213 15.5117 15.7473 15.5525 15.5993C15.5933 15.4514 15.5525 15.3365 15.4301 15.2549L14.4351 14.5967ZM15.3535 9.08594H10.7323V7.24902H15.3535V9.08594ZM10.7323 9.08594H8.00586V7.24902H10.7323V9.08594ZM13.8228 12.7598C13.5676 12.7598 13.3508 12.6705 13.1722 12.4919C12.9936 12.3133 12.9043 12.0964 12.9043 11.8413C12.9043 11.5862 12.9936 11.3693 13.1722 11.1907C13.3508 11.0121 13.5676 10.9229 13.8228 10.9229C14.0779 10.9229 14.2947 11.0121 14.4733 11.1907C14.6519 11.3693 14.7412 11.5862 14.7412 11.8413C14.7412 12.0964 14.6519 12.3133 14.4733 12.4919C14.2947 12.6705 14.0779 12.7598 13.8228 12.7598Z" fill="white"/>
<path d="M8.15039 3.53711C8.65244 3.53718 9.0984 3.72438 9.45312 4.0791C9.80778 4.43386 9.99414 4.87977 9.99414 5.38184C9.99411 5.88391 9.80784 6.32983 9.45312 6.68457C9.26225 6.87544 9.04389 7.01488 8.80566 7.10547C8.80997 7.11213 8.8151 7.11827 8.81934 7.125L8.82031 7.12695L9.41797 8.08203L9.42285 8.08984L9.42676 8.09766C9.61526 8.41809 9.79468 8.68446 9.96289 8.90137C10.0495 9.01302 10.1842 9.11105 10.417 9.1709L10.416 9.17188C10.6902 9.23863 10.9409 9.3712 11.1426 9.58203C11.3762 9.82623 11.4873 10.133 11.4873 10.457C11.4873 10.7901 11.3663 11.1036 11.1143 11.3447C10.8564 11.5913 10.524 11.6981 10.1738 11.6543L10.1484 11.6504C9.87818 11.6053 9.62245 11.5317 9.38379 11.4307C9.44544 11.522 9.50039 11.618 9.54492 11.7207C9.64633 11.9547 9.69528 12.2027 9.69531 12.457V15.8311C9.69528 16.1638 9.57617 16.4735 9.33398 16.7158C9.09162 16.9582 8.78111 17.0781 8.44824 17.0781C8.11553 17.078 7.80573 16.9581 7.56348 16.7158C7.32124 16.4735 7.20121 16.1638 7.20117 15.8311V13.123L6.97852 12.9121L6.26172 16.0938L6.26074 16.0928C6.19939 16.3724 6.05286 16.6146 5.83008 16.7969C5.59772 16.987 5.32062 17.0781 5.03027 17.0781C4.64322 17.0781 4.29345 16.921 4.04492 16.6104C3.79734 16.3009 3.72109 15.9277 3.7959 15.5537L3.79785 15.5459L4.76367 11.0068C4.60893 11.0723 4.44212 11.1074 4.26855 11.1074C3.93584 11.1073 3.62605 10.9874 3.38379 10.7451C3.14153 10.5029 3.02158 10.1931 3.02148 9.86035V8.63574C3.02151 8.39137 3.09065 8.15556 3.23242 7.94824L3.3418 7.80957C3.45982 7.68021 3.60184 7.57912 3.76074 7.50684L3.77441 7.50098L6.43164 6.36621L6.43848 6.36328C6.47921 6.34643 6.52044 6.33139 6.56152 6.31738C6.39432 6.03857 6.30569 5.72379 6.30566 5.38184C6.30566 4.87987 6.49216 4.43382 6.84668 4.0791C7.20147 3.72431 7.64823 3.53711 8.15039 3.53711Z" fill="white" stroke="#041E42" stroke-width="1.3"/>
</g>
<defs>
<clipPath id="clip0_1050_74">
<rect width="20.6133" height="20.6133" rx="10.3066" fill="white"/>
</clipPath>
</defs>
</svg>
