<svg width="21" height="22" viewBox="0 0 21 22" fill="none" xmlns="http://www.w3.org/2000/svg">
<g clip-path="url(#clip0_1050_67)">
<rect y="0.695312" width="20.6133" height="20.6133" rx="10.3066" fill="#041E42"/>
<path d="M5.81494 15.292C5.21284 15.292 4.70514 15.0853 4.29183 14.672C3.87853 14.2587 3.67188 13.751 3.67188 13.1489V7.33203C3.67188 6.48501 4.06477 5.86505 4.85056 5.47216C5.63635 5.07926 6.87627 4.88281 8.57031 4.88281C10.3256 4.88281 11.5808 5.07161 12.336 5.44919C13.0912 5.82678 13.4688 6.45439 13.4688 7.33203V13.1489C13.4688 13.751 13.2621 14.2587 12.8488 14.672C12.4355 15.0853 11.9278 15.292 11.3257 15.292L12.3207 15.9502C12.4431 16.0319 12.484 16.1467 12.4431 16.2946C12.4023 16.4426 12.3054 16.5166 12.1523 16.5166H4.98833C4.83525 16.5166 4.73831 16.4426 4.69749 16.2946C4.65667 16.1467 4.69749 16.0319 4.81995 15.9502L5.81494 15.292ZM4.89648 9.78125H9.51774V7.94434H4.89648V9.78125ZM9.18262 9.78125H12.2441V7.94434H9.18262V9.78125ZM6.42725 13.4551C6.68237 13.4551 6.89923 13.3658 7.07782 13.1872C7.25641 13.0086 7.3457 12.7917 7.3457 12.5366C7.3457 12.2815 7.25641 12.0646 7.07782 11.886C6.89923 11.7075 6.68237 11.6182 6.42725 11.6182C6.17212 11.6182 5.95526 11.7075 5.77667 11.886C5.59808 12.0646 5.50879 12.2815 5.50879 12.5366C5.50879 12.7917 5.59808 13.0086 5.77667 13.1872C5.95526 13.3658 6.17212 13.4551 6.42725 13.4551Z" fill="white"/>
<path d="M13.8926 4.23242C14.3946 4.23249 14.8406 4.41969 15.1953 4.77441C15.55 5.12917 15.7363 5.57508 15.7363 6.07715C15.7363 6.57922 15.55 7.02514 15.1953 7.37988C15.0044 7.57075 14.7861 7.71019 14.5479 7.80078C14.5522 7.80744 14.5573 7.81358 14.5615 7.82031L14.5625 7.82227L15.1602 8.77734L15.165 8.78516L15.1689 8.79297C15.3574 9.1134 15.5369 9.37977 15.7051 9.59668C15.7917 9.70833 15.9264 9.80636 16.1592 9.86621L16.1582 9.86719C16.4324 9.93394 16.6831 10.0665 16.8848 10.2773C17.1183 10.5215 17.2295 10.8283 17.2295 11.1523C17.2295 11.4854 17.1085 11.7989 16.8564 12.04C16.5986 12.2866 16.2662 12.3934 15.916 12.3496L15.8906 12.3457C15.6204 12.3007 15.3646 12.227 15.126 12.126C15.1876 12.2173 15.2426 12.3133 15.2871 12.416C15.3885 12.65 15.4375 12.898 15.4375 13.1523V16.5264C15.4375 16.8591 15.3184 17.1688 15.0762 17.4111C14.8338 17.6535 14.5233 17.7734 14.1904 17.7734C13.8577 17.7733 13.5479 17.6534 13.3057 17.4111C13.0634 17.1688 12.9434 16.8591 12.9434 16.5264V13.8184L12.7207 13.6074L12.0039 16.7891L12.0029 16.7881C11.9416 17.0677 11.795 17.3099 11.5723 17.4922C11.3399 17.6823 11.0628 17.7734 10.7725 17.7734C10.3854 17.7734 10.0356 17.6163 9.78711 17.3057C9.53952 16.9962 9.46328 16.6231 9.53809 16.249L9.54004 16.2412L10.5059 11.7021C10.3511 11.7677 10.1843 11.8027 10.0107 11.8027C9.67803 11.8026 9.36823 11.6827 9.12598 11.4404C8.88372 11.1982 8.76377 10.8884 8.76367 10.5557V9.33105C8.7637 9.08669 8.83283 8.85087 8.97461 8.64355L9.08398 8.50488C9.20201 8.37553 9.34403 8.27444 9.50293 8.20215L9.5166 8.19629L12.1738 7.06152L12.1807 7.05859C12.2214 7.04174 12.2626 7.0267 12.3037 7.0127C12.1365 6.73388 12.0479 6.4191 12.0479 6.07715C12.0479 5.57518 12.2344 5.12914 12.5889 4.77441C12.9437 4.41962 13.3904 4.23242 13.8926 4.23242Z" fill="white" stroke="#041E42" stroke-width="1.3"/>
</g>
<defs>
<clipPath id="clip0_1050_67">
<rect y="0.695312" width="20.6133" height="20.6133" rx="10.3066" fill="white"/>
</clipPath>
</defs>
</svg>
