<?xml version="1.0" encoding="UTF-8" standalone="no"?>
<svg
   height="24px"
   viewBox="0 -960 960 960"
   width="24px"
   fill="#FFFFFF"
   version="1.1"
   id="svg1"
   sodipodi:docname="QUICK_TRANSFER.svg"
   inkscape:version="1.3 (0e150ed6c4, 2023-07-21)"
   xmlns:inkscape="http://www.inkscape.org/namespaces/inkscape"
   xmlns:sodipodi="http://sodipodi.sourceforge.net/DTD/sodipodi-0.dtd"
   xmlns="http://www.w3.org/2000/svg"
   xmlns:svg="http://www.w3.org/2000/svg">
  <defs
     id="defs1" />
  <sodipodi:namedview
     id="namedview1"
     pagecolor="#ffffff"
     bordercolor="#000000"
     borderopacity="0.25"
     inkscape:showpageshadow="2"
     inkscape:pageopacity="0.0"
     inkscape:pagecheckerboard="0"
     inkscape:deskcolor="#d1d1d1"
     inkscape:zoom="32.375"
     inkscape:cx="11.984556"
     inkscape:cy="12"
     inkscape:window-width="1920"
     inkscape:window-height="991"
     inkscape:window-x="-9"
     inkscape:window-y="-9"
     inkscape:window-maximized="1"
     inkscape:current-layer="svg1" />
  <path
     d="M482-425 245-188q-12 12-28.5 12T188-188q-12-12-12-28.5t12-28.5l356-355H440v40q0 17-11.5 28.5T400-520q-17 0-28.5-11.5T360-560v-80q0-17 11.5-28.5T400-680h194q16 0 30.5 6t25.5 17l120 119q20 20 46.5 33.5T874-485q17 3 29.5 15.5T916-440q0 17-14 28t-31 9q-45-6-83-24t-70-49l-40-42-88 88 53 53q14 14 11.5 33.5T635-314L453-209q-14 8-30.5 4T398-223q-8-14-3.5-30.5T413-278l137-79-68-68Zm-322-15q-17 0-28.5-11.5T120-480q0-17 11.5-28.5T160-520h120q17 0 28.5 11.5T320-480q0 17-11.5 28.5T280-440H160ZM80-560q-17 0-28.5-11.5T40-600q0-17 11.5-28.5T80-640h120q17 0 28.5 11.5T240-600q0 17-11.5 28.5T200-560H80Zm699-80q-33 0-57-23.5T698-720q0-33 24-56.5t57-23.5q33 0 57 23.5t24 56.5q0 33-24 56.5T779-640Zm-619-40q-17 0-28.5-11.5T120-720q0-17 11.5-28.5T160-760h120q17 0 28.5 11.5T320-720q0 17-11.5 28.5T280-680H160Z"
     id="path1"
     style="fill:#000000;fill-opacity:1" />
</svg>
