<svg width="24" height="24" viewBox="0 0 24 24" fill="none" xmlns="http://www.w3.org/2000/svg">
<g clip-path="url(#clip0_81_39)">
<path d="M9.39151 18.0534C8.37761 18.2734 7.43383 18.0945 6.56017 17.5166C5.68651 16.9387 5.13686 16.1298 4.91122 15.0899C4.72364 14.2254 4.81908 13.3979 5.19755 12.6073C5.57603 11.8168 6.15138 11.2262 6.92362 10.8356C7.1082 10.7431 7.29755 10.7316 7.49168 10.8009C7.68581 10.8703 7.82905 11 7.92141 11.1898C8.01377 11.3797 8.02707 11.5736 7.96129 11.7715C7.89552 11.9694 7.77034 12.1147 7.58577 12.2072C7.11211 12.4412 6.7637 12.7955 6.54056 13.2703C6.31741 13.7451 6.26293 14.2456 6.37711 14.7718C6.51304 15.3983 6.84235 15.8844 7.36505 16.2301C7.88775 16.5758 8.4545 16.6825 9.06528 16.5499C9.56613 16.4412 9.97802 16.1879 10.301 15.7898C10.6239 15.3918 10.7995 14.9339 10.8279 14.4161C10.8455 14.2024 10.9282 14.0237 11.0761 13.8801C11.224 13.7365 11.4025 13.6748 11.6116 13.6951C11.8206 13.7153 11.9961 13.8019 12.138 13.9547C12.2799 14.1076 12.342 14.2909 12.3244 14.5046C12.284 15.3792 11.9927 16.1443 11.4506 16.7998C10.9086 17.4553 10.2222 17.8732 9.39151 18.0534ZM12.7268 5.12917C12.3237 5.21664 11.9466 5.1443 11.5957 4.91216C11.2447 4.68002 11.0244 4.35722 10.9347 3.94376C10.845 3.53031 10.9117 3.14522 11.1349 2.7885C11.3581 2.43178 11.6712 2.20969 12.0743 2.12221C12.4774 2.03474 12.8545 2.10708 13.2054 2.33922C13.5564 2.57136 13.7767 2.89416 13.8664 3.30762C13.9562 3.72107 13.8894 4.10616 13.6662 4.46288C13.4431 4.8196 13.1299 5.0417 12.7268 5.12917ZM10.6117 13.0659C10.0742 13.1825 9.60786 13.0377 9.21273 12.6315C8.81761 12.2252 8.67426 11.7414 8.78268 11.18L9.46985 7.8037L7.8024 8.1655L7.71502 8.73546C7.69201 8.92411 7.60518 9.08398 7.45455 9.21506C7.30392 9.34613 7.13019 9.40023 6.93336 9.37734C6.7121 9.35976 6.53154 9.26447 6.39167 9.09148C6.25181 8.91848 6.20153 8.71621 6.24082 8.48467L6.33429 7.85436C6.3817 7.54234 6.51363 7.28085 6.73007 7.0699C6.94651 6.85895 7.20132 6.72167 7.4945 6.65805L11.3058 5.83106C11.8555 5.71178 12.3235 5.84965 12.7098 6.24467C13.0961 6.63969 13.2351 7.1179 13.1266 7.67929L12.5126 10.6855L14.6015 10.2323C15.0047 10.1448 15.3817 10.2172 15.7326 10.4493C16.0836 10.6814 16.3039 11.0042 16.3937 11.4177L17.1277 14.8005C17.1739 15.0135 17.1424 15.2073 17.0332 15.3818C16.924 15.5564 16.7655 15.6662 16.5578 15.7113C16.3502 15.7563 16.1605 15.7221 15.9887 15.6085C15.817 15.4949 15.708 15.3316 15.6618 15.1186L15.0093 12.1116L10.6117 13.0659Z" fill="black"/>
<path d="M20.7575 16.0575L1.94029 20.7618C1.36826 20.9048 1.47193 21.7468 2.06155 21.7468H21C21.5523 21.7468 22 21.2991 22 20.7468V17.0276C22 16.377 21.3886 15.8997 20.7575 16.0575Z" fill="black"/>
</g>
<defs>
<clipPath id="clip0_81_39">
<rect width="24" height="24" fill="white"/>
</clipPath>
</defs>
</svg>
