<svg width="24" height="24" viewBox="0 0 24 24" fill="none" xmlns="http://www.w3.org/2000/svg">
<path d="M8.50001 6C7.95001 6 7.47918 5.80417 7.08751 5.4125C6.69585 5.02083 6.50001 4.55 6.50001 4C6.50001 3.45 6.69585 2.97917 7.08751 2.5875C7.47918 2.19583 7.95001 2 8.50001 2C9.05001 2 9.52085 2.19583 9.91251 2.5875C10.3042 2.97917 10.5 3.45 10.5 4C10.5 4.55 10.3042 5.02083 9.91251 5.4125C9.52085 5.80417 9.05001 6 8.50001 6ZM13 20H7.55001C7.00001 20 6.49585 19.8042 6.03751 19.4125C5.57918 19.0208 5.29168 18.55 5.17501 18L3.22501 8.2C3.15835 7.88333 3.22501 7.60417 3.42501 7.3625C3.62501 7.12083 3.89168 7 4.22501 7C4.45835 7 4.66668 7.075 4.85001 7.225C5.03335 7.375 5.15001 7.56667 5.20001 7.8L7.25001 18H13C13.2833 18 13.5208 18.0958 13.7125 18.2875C13.9042 18.4792 14 18.7167 14 19C14 19.2833 13.9042 19.5208 13.7125 19.7125C13.5208 19.9042 13.2833 20 13 20ZM19 21.125L16.6 17H9.65001C9.16668 17 8.74585 16.8542 8.38751 16.5625C8.02918 16.2708 7.80001 15.8833 7.70001 15.4L6.60001 10.05C6.41668 9.25 6.60418 8.54167 7.16251 7.925C7.72085 7.30833 8.40001 7 9.20001 7C9.78335 7 10.3125 7.175 10.7875 7.525C11.2625 7.875 11.5667 8.35 11.7 8.95L12.8 14H16.05C16.4 14 16.725 14.0917 17.025 14.275C17.325 14.4583 17.5667 14.7 17.75 15L20.75 20.125C20.8833 20.3583 20.9125 20.6125 20.8375 20.8875C20.7625 21.1625 20.6083 21.3667 20.375 21.5C20.1417 21.6333 19.8875 21.6625 19.6125 21.5875C19.3375 21.5125 19.1333 21.3583 19 21.125Z" fill="black"/>
<path d="M21.1845 10C20.171 10 19.269 9.68981 18.4788 9.06944C17.6886 8.44907 17.1302 7.64815 16.8038 6.66667H15.5154C15.3694 6.66667 15.247 6.61343 15.1482 6.50694C15.0494 6.40046 15 6.26852 15 6.11111C15 5.9537 15.0494 5.82176 15.1482 5.71528C15.247 5.6088 15.3694 5.55556 15.5154 5.55556H16.5719C16.5547 5.4537 16.5461 5.36111 16.5461 5.27778V4.72222C16.5461 4.63889 16.5547 4.5463 16.5719 4.44444H15.5154C15.3694 4.44444 15.247 4.3912 15.1482 4.28472C15.0494 4.17824 15 4.0463 15 3.88889C15 3.73148 15.0494 3.59954 15.1482 3.49306C15.247 3.38657 15.3694 3.33333 15.5154 3.33333H16.8038C17.1302 2.35185 17.6886 1.55093 18.4788 0.930556C19.269 0.310185 20.171 0 21.1845 0C21.6741 0 22.1337 0.0763889 22.5632 0.229167C22.9926 0.381944 23.3964 0.592593 23.7743 0.861111C23.9203 0.962963 23.9955 1.10648 23.9998 1.29167C24.0041 1.47685 23.9461 1.63426 23.8258 1.76389C23.7056 1.89352 23.5553 1.96991 23.3749 1.99306C23.1945 2.0162 23.027 1.97685 22.8724 1.875C22.6233 1.71759 22.3549 1.59722 22.0671 1.51389C21.7794 1.43056 21.4852 1.38889 21.1845 1.38889C20.5403 1.38889 19.9541 1.56713 19.4258 1.92361C18.8975 2.28009 18.496 2.75 18.2211 3.33333H20.6692C20.8152 3.33333 20.9376 3.38657 21.0364 3.49306C21.1351 3.59954 21.1845 3.73148 21.1845 3.88889C21.1845 4.0463 21.1351 4.17824 21.0364 4.28472C20.9376 4.3912 20.8152 4.44444 20.6692 4.44444H17.8861C17.8689 4.5463 17.856 4.63889 17.8475 4.72222C17.8389 4.80556 17.8346 4.89815 17.8346 5C17.8346 5.10185 17.8389 5.19444 17.8475 5.27778C17.856 5.36111 17.8689 5.4537 17.8861 5.55556H20.6692C20.8152 5.55556 20.9376 5.6088 21.0364 5.71528C21.1351 5.82176 21.1845 5.9537 21.1845 6.11111C21.1845 6.26852 21.1351 6.40046 21.0364 6.50694C20.9376 6.61343 20.8152 6.66667 20.6692 6.66667H18.2211C18.496 7.25 18.8975 7.71991 19.4258 8.07639C19.9541 8.43287 20.5403 8.61111 21.1845 8.61111C21.4852 8.61111 21.7794 8.57176 22.0671 8.49306C22.3549 8.41435 22.6233 8.2963 22.8724 8.13889C23.027 8.03704 23.1945 7.99537 23.3749 8.01389C23.5553 8.03241 23.7056 8.10648 23.8258 8.23611C23.9461 8.36574 24.0041 8.52315 23.9998 8.70833C23.9955 8.89352 23.9203 9.03704 23.7743 9.13889C23.3964 9.40741 22.9926 9.61806 22.5632 9.77083C22.1337 9.92361 21.6741 10 21.1845 10Z" fill="black"/>
</svg>
