<?xml version="1.0" encoding="UTF-8" standalone="no"?>
<svg
   width="24"
   height="24"
   viewBox="0 0 24 24"
   fill="none"
   version="1.1"
   id="svg5"
   sodipodi:docname="remarkalternative-trip.svg"
   inkscape:version="1.3 (0e150ed6c4, 2023-07-21)"
   xmlns:inkscape="http://www.inkscape.org/namespaces/inkscape"
   xmlns:sodipodi="http://sodipodi.sourceforge.net/DTD/sodipodi-0.dtd"
   xmlns="http://www.w3.org/2000/svg"
   xmlns:svg="http://www.w3.org/2000/svg">
  <defs
     id="defs5" />
  <sodipodi:namedview
     id="namedview5"
     pagecolor="#ffffff"
     bordercolor="#000000"
     borderopacity="0.25"
     inkscape:showpageshadow="2"
     inkscape:pageopacity="0.0"
     inkscape:pagecheckerboard="0"
     inkscape:deskcolor="#d1d1d1"
     inkscape:zoom="22.892582"
     inkscape:cx="12.318401"
     inkscape:cy="10.418222"
     inkscape:window-width="1920"
     inkscape:window-height="991"
     inkscape:window-x="-9"
     inkscape:window-y="-9"
     inkscape:window-maximized="1"
     inkscape:current-layer="svg5" />
  <path
     d="m 10.443547,12.659366 c 0,-0.3208 0.2644,-0.5747 0.5747,-0.5747 0.3102,0 0.5746,0.2539 0.5746,0.5747 -9e-4,0.1521 -0.0618,0.2977 -0.1694,0.4053 -0.1075,0.1075 -0.2531,0.1684 -0.4052,0.1694 -0.1521,-10e-4 -0.2977,-0.0619 -0.4053,-0.1694 -0.1076,-0.1076 -0.1684,-0.2532 -0.1694,-0.4053 z m 4.5635,0 c 0,-0.3208 0.263,-0.5747 0.5747,-0.5747 0.3103,0 0.5747,0.2539 0.5747,0.5747 5e-4,0.0756 -0.0141,0.1505 -0.0428,0.2205 -0.0287,0.0699 -0.071,0.1335 -0.1244,0.1869 -0.0535,0.0535 -0.1171,0.0958 -0.187,0.1245 -0.0699,0.0287 -0.1449,0.0432 -0.2205,0.0428 -0.0756,4e-4 -0.1505,-0.0141 -0.2205,-0.0428 -0.07,-0.0287 -0.1335,-0.071 -0.1869,-0.1245 -0.0535,-0.0534 -0.0958,-0.117 -0.1245,-0.1869 -0.0287,-0.07 -0.0433,-0.1449 -0.0428,-0.2205 z m -4.4471,-5.3575701 h 5.4718 v 3.8341701 c -1.0404,0.1555 -1.9494,0.2291 -2.7359,0.2291 -0.7865,0 -1.7037,-0.0654 -2.7359,-0.2291 z"
     fill="white"
     id="path1"
     style="fill:#000000" />
  <path
     d="m 18.161847,16.014566 c 0.0154,-0.016 0.0338,-0.0287 0.0544,-0.0374 0.0204,-0.0088 0.0424,-0.0133 0.0646,-0.0133 0.0223,0 0.0443,0.0045 0.0647,0.0133 0.0205,0.0087 0.039,0.0214 0.0544,0.0374 l 1.6827,1.7233 c 0.0157,0.0157 0.0281,0.0344 0.0364,0.0551 0.0084,0.0205 0.0124,0.0426 0.012,0.0649 -4e-4,0.0222 -0.0053,0.0441 -0.0144,0.0644 -0.0091,0.0203 -0.0222,0.0386 -0.0385,0.0537 l -0.3238,0.3035 c -0.0316,0.0301 -0.0739,0.0464 -0.1175,0.0454 -0.0436,-0.0011 -0.0851,-0.0192 -0.1154,-0.0506 l -0.8496,-0.8699 v 1.0637 c 0,1.1944 -0.951,2.1694 -2.1492,2.2378 l -0.1344,0.0038 H 9.4907068 c -0.04327,0 -0.08466,-0.0173 -0.11523,-0.0478 -0.03057,-0.0306 -0.04778,-0.0721 -0.04778,-0.1153 v -0.4454 c 0,-0.0902 0.07287,-0.163 0.16301,-0.163 h 6.8975402 c 0.8301,0 1.5024,-0.6588 1.5024,-1.4701 l -8e-4,-1.0637 -0.8488,0.8699 c -0.024,0.025 -0.0552,0.042 -0.0893,0.0483 -0.0341,0.0063 -0.0694,0.0018 -0.1008,-0.013 l -0.0435,-0.0301 -0.3231,-0.3035 c -0.0163,-0.0151 -0.0295,-0.0332 -0.0386,-0.0535 -0.0092,-0.0203 -0.0142,-0.0422 -0.0147,-0.0645 -4e-4,-0.0222 0.0035,-0.0443 0.0118,-0.065 0.0083,-0.0206 0.0206,-0.0394 0.0363,-0.0551 z m -9.8933402,3.9236 c 0.09014,0 0.16301,0.0736 0.16301,0.163 v 0.4454 c 0,0.0902 -0.07287,0.1631 -0.16301,0.1631 h -4.97445 c -0.04323,0 -0.0847,-0.0173 -0.11526,-0.0478 -0.03058,-0.0306 -0.04775,-0.0721 -0.04775,-0.1153 v -0.4454 c 0,-0.0902 0.07287,-0.163 0.16301,-0.163 z"
     fill="white"
     id="path2"
     style="fill:#000000" />
  <path
     fill-rule="evenodd"
     clip-rule="evenodd"
     d="m 8.1766768,18.031966 v -3.1385 c -0.55371,-0.6153 -0.99849,-1.3206 -1.31535,-2.0854 -0.14768,-0.038 -0.29965,-0.0572 -0.45222,-0.057 h -1.31983 c -0.94276,0.0232 -1.70823,0.791 -1.70823,1.736 v 3.6027 c 0.03531,0.7437 0.62425,1.3469 1.37845,1.3822 0.02329,-0.2005 0.17654,-0.3072 0.3418,-0.2832 0.44983,0.0585 0.90533,0.0585 1.35513,0 0.04155,-0.0069 0.08414,-0.0049 0.12485,0.006 0.04072,0.0109 0.0785,0.0305 0.11096,0.0574 0.03245,0.0268 0.05874,0.0604 0.07699,0.0984 0.01833,0.0379 0.02825,0.0794 0.029,0.1214 0.37049,-0.0182 0.71988,-0.1777 0.97626,-0.4457 0.25646,-0.268 0.40039,-0.6234 0.40219,-0.9943 z m -3.86489,0.2464 c 0,-0.1803 0.10592,-0.3456 0.27043,-0.3456 h 0.48377 c 0.16527,0 0.27043,0.1653 0.27043,0.3456 0,0.1803 -0.10516,0.3455 -0.27043,0.3455 h -0.48302 c -0.16526,0 -0.27118,-0.1652 -0.27118,-0.3455 z m 1.90877,0 c 0,-0.1953 0.11794,-0.3456 0.27043,-0.3456 h 0.48377 c 0.16527,0 0.27044,0.1653 0.27044,0.3456 0,0.1953 -0.11719,0.3455 -0.27044,0.3455 h -0.48302 c -0.16526,0 -0.27118,-0.1652 -0.27118,-0.3455 z m -1.24922,-4.656 h 1.60303 c 0.35307,0 0.64754,0.284 0.64754,0.6235 l -0.15325,2.5203 c 0,0.2945 -0.24789,0.5446 -0.55363,0.5446 h -1.48434 c -0.07225,0.0012 -0.144,-0.0121 -0.21108,-0.0389 -0.06707,-0.0269 -0.12814,-0.0669 -0.17965,-0.1175 -0.05151,-0.0507 -0.09244,-0.1111 -0.12041,-0.1778 -0.02796,-0.0666 -0.04241,-0.1381 -0.0425,-0.2104 l -0.14198,-2.5195 c 0.00178,-0.1671 0.06978,-0.3266 0.18906,-0.4437 0.11928,-0.117 0.28011,-0.1819 0.44721,-0.1806 z"
     fill="white"
     id="path3"
     style="fill:#000000" />
  <path
     d="m 7.5243068,20.203966 h -3.5006 v -0.4259 c 0,-0.0278 0.02254,-0.0503 0.05033,-0.0503 h 0.35757 c 0.0278,0 0.05109,0.0225 0.05109,0.0503 v 0.4259 h 2.58113 v -0.4259 c 0,-0.0278 0.02253,-0.0503 0.05033,-0.0503 h 0.35982 c 0.0278,0 0.05033,0.0225 0.05033,0.0503 z m -1.15985,-8.6268 0.10892,0.0842 c 0.01856,0.0686 0.04004,0.1437 0.06461,0.2253 l 0.07061,0.2276 0.04657,0.1465 h -1.97791 c -0.05166,0.0015 -0.10157,0.0191 -0.14273,0.0504 l -0.13973,0.1014 c -0.0676,0.0676 -0.1585,0.0488 -0.22686,-0.0211 l -0.11268,-0.1525 -0.10141,-0.1397 c -0.06686,-0.0676 -0.04808,-0.1585 0.02103,-0.2268 l 0.151,-0.1112 c 0.15842,-0.1206 0.3523,-0.1853 0.55138,-0.1841 z"
     fill="white"
     id="path4"
     style="fill:#000000" />
  <path
     fill-rule="evenodd"
     clip-rule="evenodd"
     d="m 13.339447,3.3447659 c -0.878,-4.9e-4 -1.7474,0.17206 -2.5586,0.50778 -0.8112402,0.33573 -1.5483902,0.82806 -2.1691802,1.44883 -0.62087,0.62077 -1.11328,1.35784 -1.44907,2.16898 -0.33586,0.81122 -0.50849,1.68066 -0.50811,2.5586101 -4.5e-4,0.878 0.1721,1.7475 0.50788,2.5588 0.33579,0.8113 0.82813,1.5484 1.449,2.1692 0.62086,0.6209 1.35802,1.1133 2.1692802,1.449 0.8113,0.3358 1.6808,0.5084 2.5588,0.5079 0.8779,4e-4 1.7473,-0.1722 2.5586,-0.508 0.8111,-0.3359 1.5482,-0.8283 2.169,-1.4491 0.6207,-0.6209 1.113,-1.3579 1.4488,-2.1692 0.3357,-0.8113 0.5083,-1.6807 0.5078,-2.5586 3e-4,-0.8778701 -0.1723,-1.7472301 -0.508,-2.5583801 -0.3358,-0.81115 -0.8281,-1.54819 -1.4489,-2.16895 -0.6207,-0.62076 -1.3578,-1.1131 -2.1689,-1.44887 -0.8111,-0.33577 -1.6805,-0.50839 -2.5584,-0.508 z m 2.8019,2.41661 c -0.2216,-0.12319 -0.4432,-0.16376 -0.8608,-0.16376 0,0 -4.0467,0 -4.0302,0.00751 -0.3606,0.00902 -0.5649,0.04958 -0.77,0.16452 -0.2133,0.12244 -0.38536,0.27794 -0.4912802,0.49128 -0.1232,0.22161 -0.16376,0.44246 -0.16376,0.86013 v 0.31926 c -0.0583,-0.03847 -0.12696,-0.05837 -0.19682,-0.0571 -0.09968,9.8e-4 -0.19509,0.04102 -0.26555,0.11156 -0.07054,0.07046 -0.11058,0.16586 -0.11155,0.26555 v 1.32662 c 0,0.20507 0.17277,0.37712 0.3771,0.37712 0.06934,-0.0025 0.13694,-0.0222 0.19682,-0.0571 v 3.0874001 c 0.00751,0.3606 0.04882,0.5657 0.16376,0.7708 0.06535,0.1472 0.1719802,0.2621 0.2944802,0.368 v 0.3606 c 0,0.2464 0.1968,0.4432 0.4432,0.4432 h 0.2614 c 0.2457,0 0.4425,-0.1803 0.4425,-0.5085 h 3.7515 c 0,0.344 0.1968,0.5078 0.4432,0.5078 h 0.2614 c 0.0583,3e-4 0.116,-0.0108 0.1699,-0.0329 0.0539,-0.022 0.1029,-0.0546 0.1441,-0.0958 0.0412,-0.0412 0.0739,-0.0901 0.0961,-0.1439 0.0221,-0.0539 0.0334,-0.1117 0.0331,-0.1699 v -0.3606 c 0.1227,-0.0976 0.2209,-0.2203 0.2945,-0.368 0.1224,-0.2217 0.1637,-0.4425 0.1637,-0.8602 V 9.4069659 c 0.0574,0.0355 0.1232,0.0552 0.1906,0.0569 0.0675,0.0018 0.1342,-0.0143 0.1934,-0.0468 0.0591,-0.0325 0.1085,-0.08012 0.1432,-0.13797 0.0348,-0.05784 0.0535,-0.12394 0.0543,-0.1914 v -1.33639 c 0.0165,-0.2216 -0.1803,-0.3771 -0.3771,-0.3771 -0.0718,0.0027 -0.1418,0.02254 -0.2044,0.05784 v -0.41842 c -0.0082,-0.36057 -0.0495,-0.5649 -0.1637,-0.76998 -0.1061,-0.20812 -0.2755,-0.37723 -0.4838,-0.48302 z"
     fill="white"
     id="path5"
     style="fill:#000000" />
</svg>
