<svg width="24" height="24" viewBox="0 0 24 24" fill="none" xmlns="http://www.w3.org/2000/svg">
<path d="M8.50001 6C7.95001 6 7.47918 5.80417 7.08751 5.4125C6.69585 5.02083 6.50001 4.55 6.50001 4C6.50001 3.45 6.69585 2.97917 7.08751 2.5875C7.47918 2.19583 7.95001 2 8.50001 2C9.05001 2 9.52085 2.19583 9.91251 2.5875C10.3042 2.97917 10.5 3.45 10.5 4C10.5 4.55 10.3042 5.02083 9.91251 5.4125C9.52085 5.80417 9.05001 6 8.50001 6ZM13 20H7.55001C7.00001 20 6.49585 19.8042 6.03751 19.4125C5.57918 19.0208 5.29168 18.55 5.17501 18L3.22501 8.2C3.15835 7.88333 3.22501 7.60417 3.42501 7.3625C3.62501 7.12083 3.89168 7 4.22501 7C4.45835 7 4.66668 7.075 4.85001 7.225C5.03335 7.375 5.15001 7.56667 5.20001 7.8L7.25001 18H13C13.2833 18 13.5208 18.0958 13.7125 18.2875C13.9042 18.4792 14 18.7167 14 19C14 19.2833 13.9042 19.5208 13.7125 19.7125C13.5208 19.9042 13.2833 20 13 20ZM19 21.125L16.6 17H9.65001C9.16668 17 8.74585 16.8542 8.38751 16.5625C8.02918 16.2708 7.80001 15.8833 7.70001 15.4L6.60001 10.05C6.41668 9.25 6.60418 8.54167 7.16251 7.925C7.72085 7.30833 8.40001 7 9.20001 7C9.78335 7 10.3125 7.175 10.7875 7.525C11.2625 7.875 11.5667 8.35 11.7 8.95L12.8 14H16.05C16.4 14 16.725 14.0917 17.025 14.275C17.325 14.4583 17.5667 14.7 17.75 15L20.75 20.125C20.8833 20.3583 20.9125 20.6125 20.8375 20.8875C20.7625 21.1625 20.6083 21.3667 20.375 21.5C20.1417 21.6333 19.8875 21.6625 19.6125 21.5875C19.3375 21.5125 19.1333 21.3583 19 21.125Z" fill="black"/>
<path d="M17.5166 9.02778V6.69444L15.4657 7.86111C15.2315 7.99074 14.9834 8.02315 14.7211 7.95833C14.4589 7.89352 14.2622 7.74074 14.1311 7.5C14 7.26852 13.9672 7.02315 14.0328 6.76389C14.0983 6.50463 14.2482 6.31019 14.4823 6.18056L16.5333 5L14.4823 3.83333C14.2482 3.7037 14.0983 3.50694 14.0328 3.24306C13.9672 2.97917 14 2.73148 14.1311 2.5C14.2622 2.26852 14.4589 2.12037 14.7211 2.05556C14.9834 1.99074 15.2315 2.02315 15.4657 2.15278L17.5166 3.31944V0.972222C17.5166 0.703704 17.6126 0.474537 17.8046 0.284722C17.9966 0.0949074 18.2284 0 18.5 0C18.7716 0 19.0034 0.0949074 19.1954 0.284722C19.3874 0.474537 19.4834 0.703704 19.4834 0.972222V3.31944L21.5343 2.15278C21.7685 2.02315 22.0166 1.99074 22.2789 2.05556C22.5411 2.12037 22.7378 2.26852 22.8689 2.5C23 2.73148 23.0304 2.97917 22.9602 3.24306C22.89 3.50694 22.7378 3.7037 22.5036 3.83333L20.4667 5L22.5177 6.18056C22.7518 6.31019 22.9017 6.50463 22.9672 6.76389C23.0328 7.02315 23 7.27315 22.8689 7.51389C22.7378 7.74537 22.5411 7.89352 22.2789 7.95833C22.0166 8.02315 21.7685 7.99074 21.5343 7.86111L19.4834 6.69444V9.02778C19.4834 9.2963 19.3874 9.52546 19.1954 9.71528C19.0034 9.90509 18.7716 10 18.5 10C18.2284 10 17.9966 9.90509 17.8046 9.71528C17.6126 9.52546 17.5166 9.2963 17.5166 9.02778Z" fill="black"/>
</svg>
