<svg width="24" height="24" viewBox="0 0 24 24" fill="none" xmlns="http://www.w3.org/2000/svg">
<path d="M4.58333 22C3.28472 22 2.19618 21.5807 1.31771 20.7422C0.439236 19.9036 0 18.8646 0 17.625C0 16.3854 0.446875 15.3464 1.34063 14.5078C2.23438 13.6693 3.31528 13.25 4.58333 13.25C5.75972 13.25 6.74896 13.5854 7.55104 14.2562C8.35313 14.9271 8.86111 15.7583 9.075 16.75H9.67083L8.02083 12.375H7.33333C7.07361 12.375 6.8559 12.2911 6.68021 12.1234C6.50451 11.9557 6.41667 11.7479 6.41667 11.5C6.41667 11.2521 6.50451 11.0443 6.68021 10.8766C6.8559 10.7089 7.07361 10.625 7.33333 10.625H10.0833C10.3431 10.625 10.5608 10.7089 10.7365 10.8766C10.9122 11.0443 11 11.2521 11 11.5C11 11.7479 10.9122 11.9557 10.7365 12.1234C10.5608 12.2911 10.3431 12.375 10.0833 12.375H9.99167L10.3125 13.25H14.7125L13.3833 9.75H11.9167C11.6569 9.75 11.4392 9.66615 11.2635 9.49844C11.0878 9.33073 11 9.12292 11 8.875C11 8.62708 11.0878 8.41927 11.2635 8.25156C11.4392 8.08385 11.6569 8 11.9167 8H13.3833C13.7806 8 14.1358 8.10208 14.449 8.30625C14.7622 8.51042 14.9875 8.7875 15.125 9.1375L16.6833 13.2062H17.4167C18.6847 13.2062 19.7656 13.6328 20.6594 14.4859C21.5531 15.3391 22 16.3708 22 17.5812C22 18.8062 21.5569 19.849 20.6708 20.7094C19.7847 21.5698 18.7 22 17.4167 22C16.3167 22 15.3503 21.6719 14.5177 21.0156C13.6851 20.3594 13.1542 19.5208 12.925 18.5H9.075C8.86111 19.5062 8.34167 20.3411 7.51667 21.0047C6.69167 21.6682 5.71389 22 4.58333 22ZM4.58333 20.25C5.20972 20.25 5.74826 20.0859 6.19896 19.7578C6.64965 19.4297 6.96667 19.0104 7.15 18.5H5.5C5.24028 18.5 5.02257 18.4161 4.84688 18.2484C4.67118 18.0807 4.58333 17.8729 4.58333 17.625C4.58333 17.3771 4.67118 17.1693 4.84688 17.0016C5.02257 16.8339 5.24028 16.75 5.5 16.75H7.15C6.96667 16.225 6.64965 15.8021 6.19896 15.4812C5.74826 15.1604 5.20972 15 4.58333 15C3.80417 15 3.15104 15.2516 2.62396 15.7547C2.09688 16.2578 1.83333 16.8812 1.83333 17.625C1.83333 18.3542 2.09688 18.974 2.62396 19.4844C3.15104 19.9948 3.80417 20.25 4.58333 20.25ZM11.6417 16.75H12.925C13.0014 16.4146 13.1045 16.101 13.2344 15.8094C13.3642 15.5177 13.5361 15.2479 13.75 15H10.9542L11.6417 16.75ZM17.4167 20.25C18.1958 20.25 18.849 19.9948 19.376 19.4844C19.9031 18.974 20.1667 18.3542 20.1667 17.625C20.1667 16.8812 19.9031 16.2578 19.376 15.7547C18.849 15.2516 18.1958 15 17.4167 15H17.325L17.9208 16.5094C18.0125 16.7427 18.0049 16.9651 17.8979 17.1766C17.791 17.388 17.6153 17.5375 17.3708 17.625C17.1264 17.7125 16.8896 17.7052 16.6604 17.6031C16.4313 17.501 16.2708 17.3333 16.1792 17.1L15.6292 15.6125C15.3236 15.8604 15.0868 16.1521 14.9188 16.4875C14.7507 16.8229 14.6667 17.2021 14.6667 17.625C14.6667 18.3542 14.9302 18.974 15.4573 19.4844C15.9844 19.9948 16.6375 20.25 17.4167 20.25Z" fill="black"/>
<path d="M21.1845 10C20.171 10 19.269 9.68981 18.4788 9.06944C17.6886 8.44907 17.1302 7.64815 16.8038 6.66667H15.5154C15.3694 6.66667 15.247 6.61343 15.1482 6.50694C15.0494 6.40046 15 6.26852 15 6.11111C15 5.9537 15.0494 5.82176 15.1482 5.71528C15.247 5.6088 15.3694 5.55556 15.5154 5.55556H16.5719C16.5547 5.4537 16.5461 5.36111 16.5461 5.27778V4.72222C16.5461 4.63889 16.5547 4.5463 16.5719 4.44444H15.5154C15.3694 4.44444 15.247 4.3912 15.1482 4.28472C15.0494 4.17824 15 4.0463 15 3.88889C15 3.73148 15.0494 3.59954 15.1482 3.49306C15.247 3.38657 15.3694 3.33333 15.5154 3.33333H16.8038C17.1302 2.35185 17.6886 1.55093 18.4788 0.930556C19.269 0.310185 20.171 0 21.1845 0C21.6741 0 22.1337 0.0763889 22.5632 0.229167C22.9926 0.381944 23.3964 0.592593 23.7743 0.861111C23.9203 0.962963 23.9955 1.10648 23.9998 1.29167C24.0041 1.47685 23.9461 1.63426 23.8258 1.76389C23.7056 1.89352 23.5553 1.96991 23.3749 1.99306C23.1945 2.0162 23.027 1.97685 22.8724 1.875C22.6233 1.71759 22.3549 1.59722 22.0671 1.51389C21.7794 1.43056 21.4852 1.38889 21.1845 1.38889C20.5403 1.38889 19.9541 1.56713 19.4258 1.92361C18.8975 2.28009 18.496 2.75 18.2211 3.33333H20.6692C20.8152 3.33333 20.9376 3.38657 21.0364 3.49306C21.1351 3.59954 21.1845 3.73148 21.1845 3.88889C21.1845 4.0463 21.1351 4.17824 21.0364 4.28472C20.9376 4.3912 20.8152 4.44444 20.6692 4.44444H17.8861C17.8689 4.5463 17.856 4.63889 17.8475 4.72222C17.8389 4.80556 17.8346 4.89815 17.8346 5C17.8346 5.10185 17.8389 5.19444 17.8475 5.27778C17.856 5.36111 17.8689 5.4537 17.8861 5.55556H20.6692C20.8152 5.55556 20.9376 5.6088 21.0364 5.71528C21.1351 5.82176 21.1845 5.9537 21.1845 6.11111C21.1845 6.26852 21.1351 6.40046 21.0364 6.50694C20.9376 6.61343 20.8152 6.66667 20.6692 6.66667H18.2211C18.496 7.25 18.8975 7.71991 19.4258 8.07639C19.9541 8.43287 20.5403 8.61111 21.1845 8.61111C21.4852 8.61111 21.7794 8.57176 22.0671 8.49306C22.3549 8.41435 22.6233 8.2963 22.8724 8.13889C23.027 8.03704 23.1945 7.99537 23.3749 8.01389C23.5553 8.03241 23.7056 8.10648 23.8258 8.23611C23.9461 8.36574 24.0041 8.52315 23.9998 8.70833C23.9955 8.89352 23.9203 9.03704 23.7743 9.13889C23.3964 9.40741 22.9926 9.61806 22.5632 9.77083C22.1337 9.92361 21.6741 10 21.1845 10Z" fill="black"/>
</svg>
