<svg width="24" height="24" viewBox="0 0 24 24" fill="none" xmlns="http://www.w3.org/2000/svg">
<path d="M8.83008 7.5459C8.27675 7.86537 8 8.34997 8 9V13.5C8 14.05 8.19622 14.5204 8.58789 14.9121C8.97956 15.3038 9.45 15.5 10 15.5L9.27539 15.8496C9.19206 15.8829 9.1252 15.9421 9.0752 16.0254C9.02531 16.1086 9.00003 16.2 9 16.2998V16.5C9 16.6333 9.05039 16.7496 9.15039 16.8496C9.25039 16.9496 9.36667 17 9.5 17H14.5498C14.6831 17 14.7917 16.9583 14.875 16.875C14.9583 16.7917 15 16.6831 15 16.5498V16.2754C15 16.1921 14.9792 16.1121 14.9375 16.0371C14.9063 15.9811 14.8631 15.937 14.8086 15.9043L14 15.5C14.55 15.5 15.0204 15.3038 15.4121 14.9121C15.5502 14.774 15.6626 14.6255 15.752 14.4678L21.0098 19.7256C20.7091 19.9065 20.3738 20 20 20H4C3.45 20 2.97956 19.8038 2.58789 19.4121C2.19622 19.0204 2 18.55 2 18V14.625C2 14.4418 2.05832 14.2837 2.1748 14.1504C2.29146 14.0171 2.4417 13.9337 2.625 13.9004C3.025 13.7671 3.35397 13.5248 3.6123 13.1748C3.87062 12.8248 4 12.4333 4 12C4 11.5667 3.87062 11.1752 3.6123 10.8252C3.35397 10.4752 3.025 10.2329 2.625 10.0996C2.4417 10.0663 2.29146 9.98293 2.1748 9.84961C2.05832 9.71634 2 9.55819 2 9.375V6C2 5.45 2.19622 4.97956 2.58789 4.58789C2.97956 4.19622 3.45 4 4 4H5.28418L8.83008 7.5459ZM20 4C20.55 4 21.0204 4.19622 21.4121 4.58789C21.8038 4.97956 22 5.45 22 6V9.375C22 9.55819 21.9417 9.71634 21.8252 9.84961C21.7085 9.98293 21.5583 10.0663 21.375 10.0996C20.975 10.2329 20.646 10.4752 20.3877 10.8252C20.1294 11.1752 20 11.5667 20 12C20 12.4333 20.1294 12.8248 20.3877 13.1748C20.646 13.5248 20.975 13.7671 21.375 13.9004C21.5583 13.9337 21.7085 14.0171 21.8252 14.1504C21.9417 14.2837 22 14.4418 22 14.625V18C22 18.0226 21.9968 18.045 21.9961 18.0674L16 12.0713V9C16 8.28345 15.6917 7.77124 15.0752 7.46289C14.4585 7.15456 13.4333 7 12 7C11.6278 7 11.2824 7.01223 10.9639 7.03516L7.92871 4H20ZM10.25 13C10.4667 13 10.6454 13.0712 10.7871 13.2129C10.9288 13.3546 11 13.5333 11 13.75C11 13.9667 10.9288 14.1454 10.7871 14.2871C10.6454 14.4288 10.4667 14.5 10.25 14.5C10.0333 14.5 9.85456 14.4288 9.71289 14.2871C9.57122 14.1454 9.5 13.9667 9.5 13.75C9.5 13.5333 9.57122 13.3546 9.71289 13.2129C9.85456 13.0712 10.0333 13 10.25 13ZM13.75 13C13.9667 13 14.1454 13.0712 14.2871 13.2129C14.4288 13.3546 14.5 13.5333 14.5 13.75C14.5 13.9667 14.4288 14.1454 14.2871 14.2871C14.1454 14.4288 13.9667 14.5 13.75 14.5C13.5333 14.5 13.3546 14.4288 13.2129 14.2871C13.0712 14.1454 13 13.9667 13 13.75C13 13.5333 13.0712 13.3546 13.2129 13.2129C13.3546 13.0712 13.5333 13 13.75 13ZM13.2842 12H9.5V9H10.2842L13.2842 12ZM14.5 10.5713L12.9287 9H14.5V10.5713Z" fill="black"/>
<rect width="29.4391" height="1.87031" rx="0.935156" transform="matrix(-0.707107 -0.707107 -0.707107 0.707107 23.1391 21.8165)" fill="black"/>
</svg>
