<?xml version="1.0" encoding="UTF-8" standalone="no"?>
<svg
   width="24"
   height="24"
   viewBox="0 0 24 24"
   fill="none"
   version="1.1"
   id="svg2"
   sodipodi:docname="remarkintercity-2.svg"
   inkscape:version="1.3 (0e150ed6c4, 2023-07-21)"
   xmlns:inkscape="http://www.inkscape.org/namespaces/inkscape"
   xmlns:sodipodi="http://sodipodi.sourceforge.net/DTD/sodipodi-0.dtd"
   xmlns="http://www.w3.org/2000/svg"
   xmlns:svg="http://www.w3.org/2000/svg">
  <defs
     id="defs2" />
  <sodipodi:namedview
     id="namedview2"
     pagecolor="#ffffff"
     bordercolor="#000000"
     borderopacity="0.25"
     inkscape:showpageshadow="2"
     inkscape:pageopacity="0.0"
     inkscape:pagecheckerboard="0"
     inkscape:deskcolor="#d1d1d1"
     inkscape:zoom="16.1875"
     inkscape:cx="16.864865"
     inkscape:cy="6.5173745"
     inkscape:window-width="1920"
     inkscape:window-height="991"
     inkscape:window-x="-9"
     inkscape:window-y="-9"
     inkscape:window-maximized="1"
     inkscape:current-layer="svg2" />
  <path
     fill-rule="evenodd"
     clip-rule="evenodd"
     d="m 15.54714,18.701118 v -0.02347 H 8.0863029 v 0.02347 H 7.6666273 L 5.2010065,21.61716 h 1.816759 l 0.5454913,-0.744271 h 8.4912912 l 0.545308,0.744271 h 1.817445 l -2.46578,-2.916042 z M 8.0897372,20.15505 8.6465001,19.395605 h 6.3251609 l 0.556714,0.759445 z"
     fill="white"
     id="path1"
     style="fill:#000000;stroke-width:1.20575" />
  <path
     fill-rule="evenodd"
     clip-rule="evenodd"
     d="m 11.803212,2.6525096 c -5.7107273,0 -7.3591966,1.9268808 -7.3591966,3.3977869 v 9.5858995 c 0,1.293557 1.1277658,2.343289 2.5203845,2.343289 h 9.6776481 c 1.39295,0 2.520114,-1.049732 2.520114,-2.343289 V 6.0502965 c 0,-1.4709061 -1.648187,-3.3977869 -7.35895,-3.3977869 z M 9.1358049,4.7649191 h 5.3344571 c 0.35434,0 0.641957,0.2672575 0.641957,0.5967214 0,0.3303529 -0.287617,0.5973141 -0.641957,0.5973141 H 9.1358049 c -0.3543516,0 -0.6417357,-0.2669612 -0.6417357,-0.5973141 C 8.4940324,5.0321766 8.7814165,4.7649191 9.1358049,4.7649191 Z M 7.9870781,15.939168 c -0.442219,0 -0.8006426,-0.333198 -0.8006426,-0.74439 0,-0.411312 0.3584236,-0.744509 0.8006426,-0.744509 0.442219,0 0.8006304,0.333197 0.8006304,0.744509 -3.68e-5,0.411192 -0.3584114,0.74439 -0.8006304,0.74439 z M 11.242696,11.522135 H 6.9687909 V 7.8870681 h 4.2739051 z m 4.376931,4.417033 c -0.44228,0 -0.800667,-0.333198 -0.800667,-0.74439 0,-0.411312 0.358387,-0.744509 0.800667,-0.744509 0.442158,0 0.800545,0.333197 0.800545,0.744509 0,0.411192 -0.358387,0.74439 -0.800545,0.74439 z m 1.208237,-4.417033 H 12.363605 V 7.8870681 h 4.464259 z"
     fill="white"
     id="path2"
     style="fill:#000000;stroke-width:1.20575" />
</svg>
