<svg width="24" height="24" viewBox="0 0 24 24" fill="none" xmlns="http://www.w3.org/2000/svg">
<path d="M11.737 22C10.8236 22 10.0451 21.675 9.40131 21.025C8.75755 20.375 8.43567 19.5889 8.43567 18.6667C8.43567 17.9 8.67227 17.2167 9.14546 16.6167C9.61865 16.0167 10.2239 15.6222 10.9612 15.4333C11.1373 15.3889 11.3023 15.4139 11.4564 15.5083C11.6105 15.6028 11.7095 15.7389 11.7535 15.9167C11.7975 16.0944 11.7728 16.2611 11.6792 16.4167C11.5857 16.5722 11.4509 16.6722 11.2748 16.7167C10.8236 16.8278 10.4577 17.0639 10.1771 17.425C9.89652 17.7861 9.75621 18.2 9.75621 18.6667C9.75621 19.2222 9.94879 19.6944 10.3339 20.0833C10.7191 20.4722 11.1868 20.6667 11.737 20.6667C12.1882 20.6667 12.5899 20.5278 12.942 20.25C13.2942 19.9722 13.5308 19.6167 13.6518 19.1833C13.7068 19.0056 13.8114 18.8694 13.9654 18.775C14.1195 18.6806 14.2846 18.6611 14.4606 18.7167C14.6367 18.7722 14.7715 18.8778 14.8651 19.0333C14.9586 19.1889 14.9779 19.3556 14.9228 19.5333C14.7247 20.2667 14.3313 20.8611 13.7426 21.3167C13.1539 21.7722 12.4853 22 11.737 22ZM17.0192 11.6667C16.656 11.6667 16.3452 11.5361 16.0866 11.275C15.8279 11.0139 15.6986 10.7 15.6986 10.3333C15.6986 9.96667 15.8279 9.65278 16.0866 9.39167C16.3452 9.13056 16.656 9 17.0192 9C17.3823 9 17.6932 9.13056 17.9518 9.39167C18.2104 9.65278 18.3397 9.96667 18.3397 10.3333C18.3397 10.7 18.2104 11.0139 17.9518 11.275C17.6932 11.5361 17.3823 11.6667 17.0192 11.6667ZM13.7178 18C13.2336 18 12.8595 17.7917 12.5954 17.375C12.3313 16.9583 12.2983 16.5222 12.4963 16.0667L13.7178 13.3333H12.2157L12.0341 13.8C11.9791 13.9556 11.8746 14.075 11.7205 14.1583C11.5665 14.2417 11.4069 14.2556 11.2418 14.2C11.0547 14.1444 10.9172 14.0306 10.8292 13.8583C10.7411 13.6861 10.7356 13.5056 10.8126 13.3167L11.0107 12.8C11.1098 12.5444 11.2721 12.3472 11.4977 12.2083C11.7233 12.0694 11.9681 12 12.2322 12H15.6656C16.1608 12 16.5377 12.2028 16.7963 12.6083C17.055 13.0139 17.0852 13.4444 16.8871 13.9L15.7977 16.3333H17.6795C18.0426 16.3333 18.3535 16.4639 18.6121 16.725C18.8707 16.9861 19 17.3 19 17.6667V20.6667C19 20.8556 18.9367 21.0139 18.8102 21.1417C18.6836 21.2694 18.5268 21.3333 18.3397 21.3333C18.1527 21.3333 17.9958 21.2694 17.8693 21.1417C17.7427 21.0139 17.6795 20.8556 17.6795 20.6667V18H13.7178Z" fill="black"/>
<path d="M19.5176 5.90415C19.5176 6.08138 19.4733 6.2738 19.3847 6.48142C19.2986 6.6865 19.1619 6.88905 18.9745 7.08906C18.7872 7.28655 18.5479 7.44732 18.2567 7.57139C17.9656 7.69545 17.6263 7.75748 17.2389 7.75748C16.9452 7.75748 16.6781 7.72963 16.4376 7.67393C16.197 7.61823 15.978 7.53214 15.7806 7.41568C15.5856 7.29668 15.4058 7.14097 15.2413 6.94855C15.0944 6.77385 14.9691 6.57889 14.8653 6.36368C14.7615 6.14594 14.683 5.91428 14.6298 5.66868C14.5792 5.42309 14.5539 5.16231 14.5539 4.88634C14.5539 4.43819 14.6184 4.03689 14.7476 3.68243C14.8792 3.32797 15.0666 3.02541 15.3096 2.77475C15.5527 2.52157 15.8375 2.32914 16.1641 2.19749C16.4907 2.06583 16.8389 2 17.2085 2C17.6592 2 18.0605 2.08988 18.4124 2.26964C18.7644 2.44941 19.034 2.67221 19.2214 2.93806C19.4087 3.20137 19.5024 3.45076 19.5024 3.68623C19.5024 3.81535 19.4568 3.92929 19.3657 4.02803C19.2745 4.12677 19.1644 4.17614 19.0353 4.17614C18.891 4.17614 18.7821 4.14196 18.7087 4.0736C18.6378 4.00524 18.558 3.88751 18.4694 3.72041C18.3226 3.44443 18.1491 3.23809 17.9491 3.10136C17.7516 2.96464 17.5073 2.89628 17.2161 2.89628C16.7528 2.89628 16.3831 3.07225 16.1072 3.42418C15.8337 3.77611 15.697 4.27615 15.697 4.92431C15.697 5.35726 15.7578 5.71806 15.8793 6.00669C16.0008 6.29279 16.173 6.50673 16.3958 6.64852C16.6186 6.7903 16.8794 6.8612 17.1781 6.8612C17.5022 6.8612 17.7757 6.78144 17.9985 6.62193C18.2238 6.45989 18.3934 6.22316 18.5074 5.91174C18.5555 5.7649 18.615 5.6459 18.6859 5.55475C18.7568 5.46107 18.8707 5.41423 19.0277 5.41423C19.1619 5.41423 19.2771 5.46107 19.3733 5.55475C19.4695 5.64843 19.5176 5.7649 19.5176 5.90415Z" fill="black"/>
<path d="M11.4169 6.78524L10.5168 3.44697L9.6053 6.78524C9.5344 7.03843 9.47744 7.22072 9.4344 7.33212C9.39389 7.441 9.32173 7.53974 9.21792 7.62835C9.11411 7.71444 8.97613 7.75748 8.80396 7.75748C8.66471 7.75748 8.54951 7.73089 8.45836 7.67773C8.36974 7.62709 8.29758 7.55493 8.24188 7.46125C8.18618 7.36504 8.14061 7.25237 8.10516 7.12325C8.06972 6.99159 8.03807 6.87006 8.01022 6.75866L7.08355 3.01022C7.02785 2.79248 7 2.62664 7 2.5127C7 2.36839 7.05064 2.24686 7.15191 2.14811C7.25319 2.04937 7.37852 2 7.5279 2C7.73298 2 7.87096 2.06583 7.94186 2.19749C8.01275 2.32914 8.07478 2.5203 8.12795 2.77096L8.85713 6.02188L9.67366 2.97983C9.73442 2.7469 9.78886 2.56967 9.83696 2.44814C9.88507 2.32661 9.96356 2.22154 10.0724 2.13292C10.1813 2.04431 10.3294 2 10.5168 2C10.7067 2 10.8535 2.04684 10.9573 2.14052C11.0637 2.23167 11.1371 2.33168 11.1776 2.44055C11.2181 2.54942 11.2725 2.72918 11.3409 2.97983L12.165 6.02188L12.8942 2.77096C12.9296 2.60132 12.9626 2.4684 12.9929 2.37219C13.0259 2.27597 13.0803 2.18989 13.1562 2.11393C13.2347 2.03798 13.3474 2 13.4943 2C13.6411 2 13.7652 2.04937 13.8664 2.14811C13.9702 2.24433 14.0221 2.36586 14.0221 2.5127C14.0221 2.61651 13.9943 2.78235 13.9386 3.01022L13.0119 6.75866C12.9486 7.01184 12.8955 7.19794 12.8524 7.31693C12.8119 7.4334 12.741 7.53594 12.6397 7.62456C12.541 7.71317 12.4005 7.75748 12.2182 7.75748C12.046 7.75748 11.908 7.71444 11.8042 7.62835C11.7004 7.54227 11.6283 7.44606 11.5878 7.33972C11.5472 7.23085 11.4903 7.04602 11.4169 6.78524Z" fill="black"/>
</svg>
