<svg width="24" height="24" viewBox="0 0 24 24" fill="none" xmlns="http://www.w3.org/2000/svg">
<path d="M14.9654 19.73C15.3246 19.7301 15.6157 20.021 15.6158 20.3804C15.6158 20.7398 15.3246 21.0306 14.9654 21.0308H7.77786C7.41857 21.0306 7.12747 20.7397 7.12747 20.3804C7.12752 20.021 7.4186 19.7302 7.77786 19.73H14.9654ZM17.4605 17.561C17.8198 17.5613 18.1109 17.8532 18.1109 18.2124C18.1108 18.5717 17.8197 18.8626 17.4605 18.8628H8.6431C8.28392 18.8625 7.99279 18.5716 7.99271 18.2124C7.99271 17.8532 8.28387 17.5613 8.6431 17.561H17.4605ZM15.2359 15.3911C15.5951 15.3913 15.886 15.6823 15.8863 16.0415C15.8863 16.4009 15.5952 16.6927 15.2359 16.6929H6.30228C5.94288 16.6928 5.65189 16.4009 5.65189 16.0415C5.65211 15.6823 5.94302 15.3912 6.30228 15.3911H15.2359ZM13.8384 13.2231C14.1978 13.2231 14.4897 13.5142 14.4898 13.8735C14.4898 14.233 14.1979 14.5249 13.8384 14.5249H5.8013C5.44191 14.5248 5.14993 14.233 5.14993 13.8735C5.15003 13.5143 5.44196 13.2232 5.8013 13.2231H13.8384ZM18.7193 11.0552C19.0787 11.0552 19.3706 11.3461 19.3706 11.7056C19.3706 12.0649 19.0788 12.3569 18.7193 12.3569H5.41849C5.05914 12.3568 4.7681 12.0649 4.7681 11.7056C4.76817 11.3462 5.05919 11.0553 5.41849 11.0552H18.7193ZM18.1382 8.88623C18.4977 8.88623 18.7896 9.1781 18.7896 9.5376C18.7895 9.89705 18.4977 10.188 18.1382 10.188H6.57571C6.21637 10.1879 5.9244 9.89699 5.92435 9.5376C5.92435 9.17816 6.21633 8.88632 6.57571 8.88623H18.1382ZM17.148 6.71436C17.5073 6.71453 17.7983 7.00542 17.7984 7.36475C17.7984 7.72411 17.5073 8.01496 17.148 8.01514H7.28568C6.92648 8.01481 6.63528 7.72402 6.63528 7.36475C6.63531 7.00551 6.9265 6.71468 7.28568 6.71436H17.148ZM16.6216 4.54346C16.9811 4.54346 17.273 4.83536 17.273 5.19482C17.2727 5.5541 16.981 5.84521 16.6216 5.84521H7.55911C7.1998 5.84496 6.90895 5.55394 6.90872 5.19482C6.90872 4.83552 7.19965 4.54372 7.55911 4.54346H16.6216ZM11.5581 2.37744C11.9176 2.37748 12.2085 2.66938 12.2085 3.02881C12.2084 3.38813 11.9175 3.67916 11.5581 3.6792H9.72708C9.36777 3.67887 9.07684 3.38795 9.07669 3.02881C9.07669 2.66955 9.36768 2.37777 9.72708 2.37744H11.5581Z" fill="black"/>
</svg>
