<?xml version="1.0" encoding="UTF-8" standalone="no"?>
<svg
   height="24px"
   viewBox="0 -960 960 960"
   width="24px"
   fill="#000000"
   version="1.1"
   id="svg1"
   sodipodi:docname="remarkCK.svg"
   inkscape:version="1.3 (0e150ed6c4, 2023-07-21)"
   xmlns:inkscape="http://www.inkscape.org/namespaces/inkscape"
   xmlns:sodipodi="http://sodipodi.sourceforge.net/DTD/sodipodi-0.dtd"
   xmlns="http://www.w3.org/2000/svg"
   xmlns:svg="http://www.w3.org/2000/svg">
  <defs
     id="defs1" />
  <sodipodi:namedview
     id="namedview1"
     pagecolor="#ffffff"
     bordercolor="#000000"
     borderopacity="0.25"
     inkscape:showpageshadow="2"
     inkscape:pageopacity="0.0"
     inkscape:pagecheckerboard="0"
     inkscape:deskcolor="#d1d1d1"
     inkscape:zoom="32.375"
     inkscape:cx="11.984556"
     inkscape:cy="12"
     inkscape:window-width="1920"
     inkscape:window-height="991"
     inkscape:window-x="-9"
     inkscape:window-y="-9"
     inkscape:window-maximized="1"
     inkscape:current-layer="svg1" />
  <path
     d="m 480,-80 c -55.33333,0 -107.33333,-10.5 -156,-31.5 -48.66667,-21 -91,-49.5 -127,-85.5 -36,-36 -64.5,-78.33333 -85.5,-127 -21,-48.66667 -31.5,-100.66667 -31.5,-156 0,-55.33333 10.5,-107.33333 31.5,-156 21,-48.66667 49.5,-91 85.5,-127 36,-36 78.33333,-64.5 127,-85.5 48.66667,-21 100.66667,-31.5 156,-31.5 32,0 63.16667,3.66667 93.5,11 30.33333,7.33333 59.5,18 87.5,32 10,5.33333 16.5,13.33333 19.5,24 3,10.66667 1.16667,20.66667 -5.5,30 -6.66667,9.33333 -15.5,15.33333 -26.5,18 -11,2.66667 -21.83333,1.33333 -32.5,-4 -21.33333,-10 -43.5,-17.66667 -66.5,-23 -23,-5.33333 -46.16667,-8 -69.5,-8 -89.33333,0 -165,31 -227,93 -62,62 -93,137.66667 -93,227 0,89.33333 31,165 93,227 62,62 137.66667,93 227,93 17.33333,0 34.33333,-1.33333 51,-4 16.66667,-2.66667 33.33333,-6.66667 50,-12 11.33333,-3.33333 22.33333,-3.5 33,-0.5 10.66667,3 19,9.5 25,19.5 5.33333,9.33333 6.5,19.33333 3.5,30 -3,10.66667 -9.83333,18 -20.5,22 -22.66667,8.666667 -46,15 -70,19 -24,4 -48,6 -72,6 z m -42.40927,-297.11197 372,-373 c 7.33333,-7.33333 16.66667,-11 28,-11 11.33333,0 20.66667,3.66667 28,11 7.33333,7.33333 11,16.66667 11,28 0,11.33333 -3.66667,20.66667 -11,28 l -400,401 c -8,8 -17.33333,12 -28,12 -10.66667,0 -20,-4 -28,-12 l -114,-114 c -7.33333,-7.33333 -11,-16.66667 -11,-28 0,-11.33333 3.66667,-20.66667 11,-28 7.33333,-7.33333 16.66667,-11 28,-11 11.33333,0 20.66667,3.66667 28,11 z"
     id="path1"
     sodipodi:nodetypes="sssssssssscssscssssssscscscssccsssccsssssssc" />
</svg>
