<svg width="24" height="24" viewBox="0 0 24 24" fill="none" xmlns="http://www.w3.org/2000/svg">
<path d="M8.50001 6C7.95001 6 7.47918 5.80417 7.08751 5.4125C6.69585 5.02083 6.50001 4.55 6.50001 4C6.50001 3.45 6.69585 2.97917 7.08751 2.5875C7.47918 2.19583 7.95001 2 8.50001 2C9.05001 2 9.52085 2.19583 9.91251 2.5875C10.3042 2.97917 10.5 3.45 10.5 4C10.5 4.55 10.3042 5.02083 9.91251 5.4125C9.52085 5.80417 9.05001 6 8.50001 6ZM13 20H7.55001C7.00001 20 6.49585 19.8042 6.03751 19.4125C5.57918 19.0208 5.29168 18.55 5.17501 18L3.22501 8.2C3.15835 7.88333 3.22501 7.60417 3.42501 7.3625C3.62501 7.12083 3.89168 7 4.22501 7C4.45835 7 4.66668 7.075 4.85001 7.225C5.03335 7.375 5.15001 7.56667 5.20001 7.8L7.25001 18H13C13.2833 18 13.5208 18.0958 13.7125 18.2875C13.9042 18.4792 14 18.7167 14 19C14 19.2833 13.9042 19.5208 13.7125 19.7125C13.5208 19.9042 13.2833 20 13 20ZM19 21.125L16.6 17H9.65001C9.16668 17 8.74585 16.8542 8.38751 16.5625C8.02918 16.2708 7.80001 15.8833 7.70001 15.4L6.60001 10.05C6.41668 9.25 6.60418 8.54167 7.16251 7.925C7.72085 7.30833 8.40001 7 9.20001 7C9.78335 7 10.3125 7.175 10.7875 7.525C11.2625 7.875 11.5667 8.35 11.7 8.95L12.8 14H16.05C16.4 14 16.725 14.0917 17.025 14.275C17.325 14.4583 17.5667 14.7 17.75 15L20.75 20.125C20.8833 20.3583 20.9125 20.6125 20.8375 20.8875C20.7625 21.1625 20.6083 21.3667 20.375 21.5C20.1417 21.6333 19.8875 21.6625 19.6125 21.5875C19.3375 21.5125 19.1333 21.3583 19 21.125Z" fill="black"/>
<path d="M24 4.59548C24 3.14518 22.8243 1.96948 21.374 1.96948C19.9237 1.96948 18.748 3.14518 18.748 4.59548C18.748 6.04578 19.9237 7.22149 21.374 7.22149C22.8243 7.22149 24 6.04578 24 4.59548Z" fill="black"/>
<path d="M19.3981 8.53383C19.3981 7.80868 18.8102 7.22083 18.0851 7.22083C17.3599 7.22083 16.7721 7.80868 16.7721 8.53383C16.7721 9.25898 17.3599 9.84683 18.0851 9.84683C18.8102 9.84683 19.3981 9.25898 19.3981 8.53383Z" fill="black"/>
<path d="M16.7743 0H16.7742C15.6865 0 14.8047 0.881774 14.8047 1.9695V1.96951C14.8047 3.05723 15.6865 3.93901 16.7742 3.93901H16.7743C17.862 3.93901 18.7438 3.05723 18.7438 1.96951V1.9695C18.7438 0.881774 17.862 0 16.7743 0Z" fill="black"/>
</svg>
