<?xml version="1.0" encoding="UTF-8" standalone="no"?>
<svg
   width="33"
   height="35"
   viewBox="0 0 33 35"
   fill="none"
   version="1.1"
   id="svg5"
   sodipodi:docname="sevlogo.svg"
   inkscape:version="1.3 (0e150ed6c4, 2023-07-21)"
   xmlns:inkscape="http://www.inkscape.org/namespaces/inkscape"
   xmlns:sodipodi="http://sodipodi.sourceforge.net/DTD/sodipodi-0.dtd"
   xmlns="http://www.w3.org/2000/svg"
   xmlns:svg="http://www.w3.org/2000/svg">
  <defs
     id="defs5" />
  <sodipodi:namedview
     id="namedview5"
     pagecolor="#ffffff"
     bordercolor="#000000"
     borderopacity="0.25"
     inkscape:showpageshadow="2"
     inkscape:pageopacity="0.0"
     inkscape:pagecheckerboard="0"
     inkscape:deskcolor="#d1d1d1"
     inkscape:zoom="11.1"
     inkscape:cx="18.468468"
     inkscape:cy="15.27027"
     inkscape:window-width="1920"
     inkscape:window-height="991"
     inkscape:window-x="-9"
     inkscape:window-y="-9"
     inkscape:window-maximized="1"
     inkscape:current-layer="svg5" />
  <path
     d="m 14.129848,18.583504 c 0,-0.541917 0.446732,-0.970882 0.970882,-0.970882 0.524148,0 0.970881,0.428965 0.970881,0.970882 -0.0017,0.256998 -0.104449,0.502954 -0.286188,0.684693 -0.181739,0.181613 -0.427695,0.284539 -0.684693,0.286189 -0.256999,-0.0017 -0.502956,-0.104576 -0.684695,-0.286189 -0.181738,-0.181739 -0.284538,-0.427695 -0.286187,-0.684693 z m 7.709942,0 c 0,-0.541917 0.444194,-0.970882 0.970882,-0.970882 0.524148,0 0.970881,0.428965 0.970881,0.970882 8.78e-4,0.127674 -0.02373,0.254333 -0.07221,0.372489 -0.04848,0.118155 -0.119932,0.225524 -0.210294,0.315885 -0.09036,0.09036 -0.19773,0.161813 -0.315885,0.210294 -0.118156,0.04848 -0.244815,0.07298 -0.372488,0.07221 -0.127802,7.61e-4 -0.254333,-0.02373 -0.372489,-0.07221 -0.118283,-0.04848 -0.225651,-0.119932 -0.315885,-0.210294 -0.09036,-0.09036 -0.161814,-0.19773 -0.210295,-0.315885 -0.04848,-0.118156 -0.0731,-0.244815 -0.07221,-0.372489 z M 14.326562,9.5320967 h 9.244316 v 6.4776193 c -1.75774,0.262709 -3.293383,0.387083 -4.622158,0.387083 -1.328775,0 -2.878378,-0.110414 -4.622158,-0.387083 z"
     fill="#fbba00"
     id="path1"
     style="stroke-width:1.26913;fill:#000000" />
  <path
     d="m 27.159713,24.25231 c 0.02602,-0.02716 0.05724,-0.04861 0.09188,-0.06333 0.03452,-0.01472 0.0717,-0.02234 0.109272,-0.02234 0.03757,0 0.07475,0.0076 0.109272,0.02234 0.03465,0.01472 0.06587,0.03617 0.09188,0.06333 l 2.842843,2.911376 c 0.02652,0.02653 0.04747,0.05813 0.06156,0.09303 0.01408,0.03477 0.02094,0.07209 0.02017,0.109654 -6.34e-4,0.03757 -0.0089,0.07462 -0.02424,0.108891 -0.01548,0.03426 -0.03757,0.0651 -0.0651,0.09074 l -0.546994,0.512727 c -0.05343,0.05076 -0.124881,0.0783 -0.198491,0.07666 -0.07373,-0.0018 -0.143792,-0.03249 -0.194937,-0.08554 L 28.021445,26.6002 v 1.797083 c 0,2.01791 -1.606713,3.665236 -3.63097,3.780727 l -0.227173,0.0063 H 12.510189 c -0.0731,0 -0.143031,-0.02906 -0.194685,-0.08072 -0.05165,-0.05165 -0.08072,-0.121709 -0.08072,-0.194684 v -0.752592 c 0,-0.152295 0.123105,-0.2754 0.2754,-0.2754 h 11.653121 c 1.402385,0 2.538253,-1.113024 2.538253,-2.48368 l -0.0012,-1.797083 -1.434113,1.469648 c -0.04048,0.04239 -0.09328,0.07095 -0.150899,0.08161 -0.05762,0.01066 -0.11714,0.0031 -0.170189,-0.02196 l -0.07361,-0.05076 -0.545725,-0.512727 c -0.02766,-0.02551 -0.04988,-0.05622 -0.06536,-0.09049 -0.01548,-0.03426 -0.02386,-0.07133 -0.02474,-0.108891 -7.61e-4,-0.03757 0.006,-0.07488 0.01993,-0.109779 0.01396,-0.0349 0.03477,-0.06663 0.0613,-0.09315 z M 10.44532,30.880957 c 0.152295,0 0.2754,0.124374 0.2754,0.2754 v 0.752592 c 0,0.152295 -0.123105,0.2754 -0.2754,0.2754 H 2.0411662 c -0.073038,0 -0.143094,-0.02906 -0.1947348,-0.08072 -0.051653,-0.05165 -0.080666,-0.121709 -0.080666,-0.194685 v -0.752591 c 0,-0.152296 0.1231052,-0.2754 0.2754003,-0.2754 z"
     fill="#ffffff"
     id="path2"
     style="stroke-width:1.26913;fill:#000000" />
  <path
     fill-rule="evenodd"
     clip-rule="evenodd"
     d="M 10.294167,27.662579 V 22.36017 C 9.3586943,21.320628 8.6072446,20.129173 8.0719272,18.837075 7.822417,18.772731 7.5656727,18.740368 7.3079132,18.740622 H 5.0781091 c -1.5927534,0.03934 -2.8859931,1.336389 -2.8859931,2.93295 v 6.08673 c 0.059649,1.256436 1.054644,2.275544 2.3288468,2.335192 0.039343,-0.338856 0.2982446,-0.519072 0.5774524,-0.47846 0.7599655,0.09874 1.5295255,0.09874 2.2894529,0 0.070183,-0.0118 0.1421422,-0.0083 0.2109288,0.01003 0.068786,0.0184 0.1326237,0.05153 0.18745,0.09696 0.054826,0.04531 0.099246,0.102037 0.1300854,0.166255 0.030967,0.06409 0.047719,0.134146 0.048989,0.205217 0.6259331,-0.03084 1.2162038,-0.300275 1.6493565,-0.753099 0.4332792,-0.452824 0.6764442,-1.05439 0.6794902,-1.681085 z m -6.5296036,0.416273 c 0,-0.304589 0.1789469,-0.583797 0.4568855,-0.583797 h 0.8173173 c 0.2792078,0 0.4568855,0.279208 0.4568855,0.583797 0,0.304591 -0.1776777,0.583798 -0.4568855,0.583798 H 4.222718 c -0.2792077,0 -0.4581546,-0.279207 -0.4581546,-0.583798 z m 3.2247991,0 c 0,-0.329972 0.1992528,-0.583797 0.4568854,-0.583797 h 0.8173173 c 0.2792078,0 0.4568855,0.279208 0.4568855,0.583797 0,0.329974 -0.1979836,0.583798 -0.4568855,0.583798 H 7.4475171 c -0.2792078,0 -0.4581546,-0.279207 -0.4581546,-0.583798 z M 4.8788564,20.212808 H 7.587121 c 0.5964893,0 1.0939868,0.47973 1.0939868,1.053375 l -0.2589017,4.257919 c 0,0.497497 -0.4188117,0.920116 -0.9353461,0.920116 H 4.9791173 C 4.8570527,26.446122 4.7358385,26.423658 4.6225182,26.37835 4.5091979,26.332916 4.4060306,26.265398 4.3190067,26.179859 4.2319827,26.094194 4.162828,25.992156 4.1155784,25.879584 4.0683288,25.767012 4.0439236,25.646191 4.0437713,25.524102 L 3.8039064,21.267453 c 0.00301,-0.282255 0.1178764,-0.551816 0.319401,-0.749546 0.2015246,-0.19773 0.4732445,-0.307383 0.755549,-0.305099 z"
     fill="#ffffff"
     id="path3"
     style="stroke-width:1.26913;fill:#000000" />
  <path
     d="m 9.1967538,31.327436 h -5.914141 v -0.719595 c 0,-0.04696 0.038074,-0.08503 0.085031,-0.08503 h 0.6041041 c 0.046958,0 0.086301,0.03807 0.086301,0.08503 v 0.719595 h 4.3607308 v -0.719595 c 0,-0.04696 0.038074,-0.08503 0.085031,-0.08503 h 0.6079115 c 0.046958,0 0.085031,0.03807 0.085031,0.08503 z M 7.2372229,16.75279 7.4212462,16.894932 c 0.031348,0.115871 0.067645,0.242784 0.1091449,0.380738 l 0.1192978,0.384545 0.078686,0.24748 H 4.3867526 c -0.087278,0.0024 -0.1715859,0.03223 -0.241134,0.08503 l -0.2360575,0.171336 c -0.1142213,0.114221 -0.2677856,0.08249 -0.383276,-0.03554 L 3.3359161,17.870889 3.164584,17.634832 C 3.0516318,17.520611 3.0833603,17.367047 3.2001196,17.251556 L 3.455214,17.063725 C 3.7228727,16.860031 4.0504214,16.750632 4.3867526,16.75279 Z"
     fill="#ffffff"
     id="path4"
     style="stroke-width:1.26913;fill:#000000" />
  <path
     fill-rule="evenodd"
     clip-rule="evenodd"
     d="M 19.018649,2.8468473 C 17.535421,2.8460097 16.066534,3.1375279 14.696005,3.7047258 13.325475,4.2719237 12.080082,5.1036964 11.031275,6.1524642 9.9823429,7.2012321 9.1504307,8.4464861 8.5831313,9.8168886 8.0157049,11.187418 7.7240596,12.656304 7.7246943,14.139531 c -7.615e-4,1.483355 0.2907568,2.952369 0.8580562,4.323025 0.5672994,1.370657 1.3990848,2.615923 2.4480175,3.664856 1.048933,1.048933 2.294326,1.880846 3.664856,2.448017 1.370656,0.567301 2.83967,0.858946 4.323025,0.858057 1.483228,6.35e-4 2.952115,-0.29101 4.322644,-0.85831 1.370402,-0.567426 2.615669,-1.399338 3.664475,-2.448145 1.048679,-1.048932 1.880464,-2.294199 2.447764,-3.664855 0.567172,-1.37053 0.858691,-2.839416 0.857802,-4.322645 6.35e-4,-1.4831 -0.29101,-2.951859 -0.858183,-4.3222616 C 28.885852,8.4468669 28.054066,7.2016637 27.00526,6.1529084 25.956581,5.1041533 24.711315,4.2723679 23.341039,3.7050939 21.970636,3.1378199 20.501877,2.8461873 19.018649,2.8468473 Z M 23.75249,6.9296264 C 23.378097,6.7214897 23.003706,6.6529569 22.298071,6.6529569 c 0,0 -6.836783,0 -6.808862,0.012691 -0.609181,0.015229 -0.954383,0.083762 -1.300855,0.2779386 -0.360432,0.2068676 -0.651062,0.4695767 -0.830008,0.8300086 -0.208137,0.3743922 -0.27667,0.7475153 -0.27667,1.4531495 v 0.539379 c -0.09848,-0.064979 -0.214482,-0.098611 -0.332511,-0.096454 -0.168413,0.00165 -0.329592,0.069294 -0.448636,0.1884653 -0.119171,0.1190441 -0.186815,0.2802227 -0.188465,0.4486367 v 2.241276 c 0,0.346472 0.291899,0.637101 0.637101,0.637101 0.117141,-0.0042 0.231362,-0.03744 0.332511,-0.09645 v 5.216108 c 0.01269,0.609181 0.08249,0.955652 0.27667,1.302124 0.110414,0.248748 0.290629,0.442925 0.497497,0.621871 v 0.609181 c 0,0.416273 0.332511,0.748784 0.748785,0.748784 h 0.441656 c 0.415004,0 0.747515,-0.30459 0.747515,-0.859198 h 6.338017 c 0,0.581259 0.332511,0.857929 0.748784,0.857929 h 0.441656 c 0.09848,6.35e-4 0.195953,-0.01815 0.287077,-0.05546 0.091,-0.03731 0.17387,-0.09239 0.243418,-0.16194 0.06967,-0.06955 0.124882,-0.152168 0.162321,-0.243165 0.03744,-0.091 0.05648,-0.188592 0.05597,-0.28695 v -0.60918 c 0.207248,-0.164987 0.373123,-0.372235 0.497498,-0.621872 0.206867,-0.374392 0.276669,-0.747515 0.276669,-1.45315 v -5.065082 c 0.09696,0.06003 0.20801,0.09328 0.321978,0.0962 0.113967,0.0031 0.226665,-0.02424 0.326672,-0.07919 0.09988,-0.05482 0.183389,-0.135289 0.242023,-0.233012 0.05876,-0.09772 0.09036,-0.209405 0.09163,-0.323373 v -2.257783 c 0.02792,-0.3743914 -0.304591,-0.6371005 -0.637102,-0.6371005 -0.121201,0.00457 -0.239484,0.038074 -0.345202,0.097723 V 9.0452599 C 24.831247,8.4360792 24.761445,8.0908769 24.568538,7.7444055 24.389337,7.3927813 24.10315,7.1070757 23.751221,6.9283573 Z"
     fill="#fbbb02"
     id="path5"
     style="stroke-width:1.26913;fill:#000000" />
</svg>
