<?xml version="1.0" encoding="UTF-8" standalone="no"?>
<svg
   height="24px"
   viewBox="0 -960 960 960"
   width="24px"
   fill="#fff"
   version="1.1"
   id="svg1"
   sodipodi:docname="speed.svg"
   inkscape:version="1.3 (0e150ed6c4, 2023-07-21)"
   xmlns:inkscape="http://www.inkscape.org/namespaces/inkscape"
   xmlns:sodipodi="http://sodipodi.sourceforge.net/DTD/sodipodi-0.dtd"
   xmlns="http://www.w3.org/2000/svg"
   xmlns:svg="http://www.w3.org/2000/svg">
  <defs
     id="defs1" />
  <sodipodi:namedview
     id="namedview1"
     pagecolor="#ffffff"
     bordercolor="#000000"
     borderopacity="0.25"
     inkscape:showpageshadow="2"
     inkscape:pageopacity="0.0"
     inkscape:pagecheckerboard="0"
     inkscape:deskcolor="#d1d1d1"
     inkscape:zoom="16.1875"
     inkscape:cx="7.1660232"
     inkscape:cy="14.11583"
     inkscape:window-width="1920"
     inkscape:window-height="991"
     inkscape:window-x="-9"
     inkscape:window-y="-9"
     inkscape:window-maximized="1"
     inkscape:current-layer="svg1" />
  <path
     d="m 479.99485,-291.24903 q 43.86873,-0.57722 64.64865,-31.74711 L 739.74389,-615.0695 q 10.38996,-16.16216 -2.8861,-29.43822 -13.27607,-13.27606 -29.43823,-2.8861 L 415.3462,-452.29344 q -31.16988,20.77993 -32.90154,63.49421 -1.73166,42.71429 25.9749,70.42085 27.70657,27.70657 71.57529,27.12935 z m 0,-558.17182 q 41.55985,0 81.96525,6.92664 40.40541,6.92664 78.50193,21.93436 18.47105,6.92665 39.25097,25.97491 20.77992,19.04826 11.5444,36.36486 -9.23552,17.31661 -41.55985,23.08881 -32.32432,5.7722 -51.9498,-1.15444 -28.86101,-10.38997 -58.29923,-15.58495 -29.43822,-5.19498 -59.45367,-5.19498 -153.54054,0 -261.48069,107.94016 -107.94016,107.94015 -107.94016,261.48069 0,48.48649 13.27606,95.81854 13.27607,47.33204 37.51931,88.89189 h 637.25096 q 26.55213,-43.86873 38.67375,-91.20078 12.12162,-47.33204 12.12162,-98.12741 0,-30.01544 -5.19498,-58.87645 -5.19498,-28.861 -15.58494,-56.56756 -6.92664,-19.62549 -2.30888,-38.09653 4.61776,-18.47104 20.77992,-31.16988 15.00772,-11.5444 32.90155,-6.92664 17.89382,4.61776 24.82046,20.77992 17.3166,40.4054 26.55212,82.54247 9.23552,42.13707 10.38996,86.00579 1.15444,65.80309 -15.00772,125.83398 -16.16216,60.03089 -47.33204,114.28957 -12.69885,20.77993 -34.63321,32.32433 -21.93436,11.5444 -46.17761,11.5444 H 161.36937 q -24.24324,0 -46.17761,-11.5444 -21.93436,-11.5444 -34.633201,-32.32433 -30.015444,-51.9498 -46.177607,-110.24903 -16.162162,-58.29923 -16.162162,-122.94788 0,-95.81853 36.364865,-179.51544 36.364865,-83.69691 99.281855,-146.6139 62.91699,-62.91699 147.19112,-99.28185 84.27413,-36.36487 178.93822,-36.36487 z m 8.08108,361.33977 z"
     id="path1"
     style="stroke-width:1.15444" />
</svg>
