<?xml version="1.0" encoding="UTF-8" standalone="no"?>
<svg
   height="24px"
   viewBox="0 -960 960 960"
   width="24px"
   fill="#FFFFFF"
   version="1.1"
   id="svg1"
   sodipodi:docname="TOTALSPERRUNG.svg"
   inkscape:version="1.3 (0e150ed6c4, 2023-07-21)"
   xmlns:inkscape="http://www.inkscape.org/namespaces/inkscape"
   xmlns:sodipodi="http://sodipodi.sourceforge.net/DTD/sodipodi-0.dtd"
   xmlns="http://www.w3.org/2000/svg"
   xmlns:svg="http://www.w3.org/2000/svg">
  <defs
     id="defs1" />
  <sodipodi:namedview
     id="namedview1"
     pagecolor="#ffffff"
     bordercolor="#000000"
     borderopacity="0.25"
     inkscape:showpageshadow="2"
     inkscape:pageopacity="0.0"
     inkscape:pagecheckerboard="0"
     inkscape:deskcolor="#d1d1d1"
     inkscape:zoom="32.375"
     inkscape:cx="11.984556"
     inkscape:cy="12"
     inkscape:window-width="1920"
     inkscape:window-height="991"
     inkscape:window-x="-9"
     inkscape:window-y="-9"
     inkscape:window-maximized="1"
     inkscape:current-layer="svg1" />
  <path
     d="M363-120q-16 0-30.5-6T307-143L143-307q-11-11-17-25.5t-6-30.5v-234q0-16 6-30.5t17-25.5l164-164q11-11 25.5-17t30.5-6h234q16 0 30.5 6t25.5 17l164 164q11 11 17 25.5t6 30.5v234q0 16-6 30.5T817-307L653-143q-11 11-25.5 17t-30.5 6H363Zm117-304 86 86q11 11 28 11t28-11q11-11 11-28t-11-28l-86-86 86-86q11-11 11-28t-11-28q-11-11-28-11t-28 11l-86 86-86-86q-11-11-28-11t-28 11q-11 11-11 28t11 28l86 86-86 86q-11 11-11 28t11 28q11 11 28 11t28-11l86-86Z"
     id="path1"
     style="fill:#000000" />
</svg>
