<?xml version="1.0" encoding="UTF-8" standalone="no"?>
<svg
   height="24px"
   viewBox="0 -960 960 960"
   width="24px"
   fill="fffff"
   version="1.1"
   id="svg1"
   sodipodi:docname="weatherwarning.svg"
   inkscape:version="1.3 (0e150ed6c4, 2023-07-21)"
   xmlns:inkscape="http://www.inkscape.org/namespaces/inkscape"
   xmlns:sodipodi="http://sodipodi.sourceforge.net/DTD/sodipodi-0.dtd"
   xmlns="http://www.w3.org/2000/svg"
   xmlns:svg="http://www.w3.org/2000/svg">
  <defs
     id="defs1" />
  <sodipodi:namedview
     id="namedview1"
     pagecolor="#ffffff"
     bordercolor="#000000"
     borderopacity="0.25"
     inkscape:showpageshadow="2"
     inkscape:pageopacity="0.0"
     inkscape:pagecheckerboard="0"
     inkscape:deskcolor="#d1d1d1"
     inkscape:zoom="32.375"
     inkscape:cx="11.984556"
     inkscape:cy="12"
     inkscape:window-width="1920"
     inkscape:window-height="991"
     inkscape:window-x="-9"
     inkscape:window-y="-9"
     inkscape:window-maximized="1"
     inkscape:current-layer="svg1" />
  <path
     d="M109-120q-11 0-20-5.5T75-140q-5-9-5.5-19.5T75-180l370-640q6-10 15.5-15t19.5-5q10 0 19.5 5t15.5 15l370 640q6 10 5.5 20.5T885-140q-5 9-14 14.5t-20 5.5H109Zm69-80h604L480-720 178-200Zm302-40q17 0 28.5-11.5T520-280q0-17-11.5-28.5T480-320q-17 0-28.5 11.5T440-280q0 17 11.5 28.5T480-240Zm0-120q17 0 28.5-11.5T520-400v-120q0-17-11.5-28.5T480-560q-17 0-28.5 11.5T440-520v120q0 17 11.5 28.5T480-360Zm0-100Z"
     id="path1"
     style="fill:#ffffff" />
</svg>
