<svg width="24" height="24" viewBox="0 0 24 24" fill="none" xmlns="http://www.w3.org/2000/svg">
<path d="M4.6123 14.0785C3.71851 14.0785 2.95663 13.7635 2.32666 13.1335C1.6967 12.5036 1.38171 11.7417 1.38171 10.8479C1.38171 10.1049 1.61324 9.44259 2.07629 8.86109C2.53934 8.27958 3.13162 7.89729 3.85312 7.71423C4.02541 7.67115 4.18694 7.69538 4.3377 7.78692C4.48847 7.87845 4.58538 8.01036 4.62846 8.18266C4.67153 8.35496 4.6473 8.51649 4.55577 8.66725C4.46424 8.81801 4.33232 8.91493 4.16002 8.958C3.71851 9.06569 3.36045 9.29452 3.08585 9.64451C2.81125 9.99449 2.67395 10.3956 2.67395 10.8479C2.67395 11.3863 2.8624 11.844 3.2393 12.2209C3.61621 12.5978 4.07387 12.7863 4.6123 12.7863C5.05382 12.7863 5.44687 12.6516 5.79147 12.3824C6.13607 12.1132 6.36759 11.7686 6.48605 11.3486C6.53989 11.1763 6.64219 11.0444 6.79295 10.9529C6.94371 10.8614 7.10524 10.8425 7.27754 10.8964C7.44984 10.9502 7.58176 11.0525 7.67329 11.2033C7.76482 11.354 7.78367 11.5156 7.72982 11.6879C7.53599 12.3986 7.15101 12.9747 6.57489 13.4162C5.99877 13.8577 5.34457 14.0785 4.6123 14.0785ZM9.78125 4.06366C9.42588 4.06366 9.12167 3.93713 8.86861 3.68407C8.61554 3.431 8.48901 3.12679 8.48901 2.77142C8.48901 2.41606 8.61554 2.11184 8.86861 1.85878C9.12167 1.60572 9.42588 1.47919 9.78125 1.47919C10.1366 1.47919 10.4408 1.60572 10.6939 1.85878C10.947 2.11184 11.0735 2.41606 11.0735 2.77142C11.0735 3.12679 10.947 3.431 10.6939 3.68407C10.4408 3.93713 10.1366 4.06366 9.78125 4.06366ZM6.55066 10.2018C6.07684 10.2018 5.71071 9.99987 5.45226 9.59605C5.19381 9.19222 5.16151 8.76955 5.35534 8.32804L6.55066 5.67895H5.08074L4.90306 6.13124C4.84921 6.282 4.74691 6.39776 4.59615 6.47853C4.44539 6.55929 4.28925 6.57275 4.12772 6.51891C3.94465 6.46507 3.81004 6.35469 3.72389 6.18777C3.63774 6.02086 3.63236 5.84587 3.70774 5.6628L3.90157 5.16206C3.99849 4.91438 4.15733 4.72324 4.37809 4.58863C4.59884 4.45402 4.83845 4.38672 5.09689 4.38672H8.45671C8.9413 4.38672 9.31012 4.58325 9.56318 4.9763C9.81625 5.36936 9.84586 5.78664 9.65203 6.22816L8.58593 8.58649H10.4274C10.7827 8.58649 11.0869 8.71302 11.34 8.96608C11.5931 9.21914 11.7196 9.52336 11.7196 9.87872V12.7863C11.7196 12.9693 11.6577 13.1228 11.5338 13.2466C11.41 13.3705 11.2566 13.4324 11.0735 13.4324C10.8904 13.4324 10.737 13.3705 10.6131 13.2466C10.4893 13.1228 10.4274 12.9693 10.4274 12.7863V10.2018H6.55066Z" fill="black"/>
<path d="M9.89809 22.5208C8.94965 22.5208 8.15464 22.2 7.51305 21.5584C6.87146 20.9168 6.55066 20.1218 6.55066 19.1734C6.55066 18.2249 6.87703 17.4299 7.52978 16.7883C8.18253 16.1467 8.97197 15.8259 9.89809 15.8259C10.7573 15.8259 11.4798 16.0826 12.0656 16.5959C12.6514 17.1091 13.0224 17.7451 13.1786 18.5039H13.6137L12.4087 15.1565H11.9066C11.7169 15.1565 11.5579 15.0923 11.4295 14.964C11.3012 14.8357 11.2371 14.6767 11.2371 14.487C11.2371 14.2973 11.3012 14.1383 11.4295 14.01C11.5579 13.8816 11.7169 13.8175 11.9066 13.8175H13.915C14.1047 13.8175 14.2637 13.8816 14.392 14.01C14.5203 14.1383 14.5845 14.2973 14.5845 14.487C14.5845 14.6767 14.5203 14.8357 14.392 14.964C14.2637 15.0923 14.1047 15.1565 13.915 15.1565H13.8481L14.0824 15.8259H17.2959L16.3252 13.148H15.254C15.0643 13.148 14.9053 13.0838 14.777 12.9555C14.6487 12.8272 14.5845 12.6682 14.5845 12.4785C14.5845 12.2888 14.6487 12.1298 14.777 12.0015C14.9053 11.8732 15.0643 11.809 15.254 11.809H16.3252C16.6153 11.809 16.8747 11.8871 17.1034 12.0433C17.3322 12.1996 17.4968 12.4116 17.5972 12.6794L18.7353 15.7925H19.2709C20.197 15.7925 20.9865 16.1188 21.6392 16.7716C22.292 17.4243 22.6183 18.2138 22.6183 19.1399C22.6183 20.0772 22.2948 20.875 21.6476 21.5333C21.0004 22.1916 20.2082 22.5208 19.2709 22.5208C18.4675 22.5208 17.7618 22.2698 17.1537 21.7676C16.5455 21.2655 16.1578 20.6239 15.9904 19.8429H13.1786C13.0224 20.6128 12.643 21.2516 12.0405 21.7593C11.4379 22.267 10.7238 22.5208 9.89809 22.5208ZM9.89809 21.1818C10.3556 21.1818 10.7489 21.0563 11.0781 20.8053C11.4072 20.5542 11.6388 20.2334 11.7727 19.8429H10.5676C10.3779 19.8429 10.2189 19.7787 10.0906 19.6504C9.96225 19.5221 9.89809 19.3631 9.89809 19.1734C9.89809 18.9837 9.96225 18.8247 10.0906 18.6964C10.2189 18.568 10.3779 18.5039 10.5676 18.5039H11.7727C11.6388 18.1022 11.4072 17.7786 11.0781 17.5331C10.7489 17.2877 10.3556 17.1649 9.89809 17.1649C9.32903 17.1649 8.85202 17.3574 8.46707 17.7423C8.08211 18.1273 7.88963 18.6043 7.88963 19.1734C7.88963 19.7313 8.08211 20.2055 8.46707 20.596C8.85202 20.9866 9.32903 21.1818 9.89809 21.1818ZM15.0531 18.5039H15.9904C16.0462 18.2473 16.1215 18.0074 16.2164 17.7842C16.3112 17.561 16.4368 17.3546 16.593 17.1649H14.551L15.0531 18.5039ZM19.2709 21.1818C19.84 21.1818 20.317 20.9866 20.7019 20.596C21.0869 20.2055 21.2794 19.7313 21.2794 19.1734C21.2794 18.6043 21.0869 18.1273 20.7019 17.7423C20.317 17.3574 19.84 17.1649 19.2709 17.1649H19.204L19.6391 18.3198C19.7061 18.4983 19.7005 18.6685 19.6224 18.8303C19.5443 18.9921 19.416 19.1064 19.2374 19.1734C19.0589 19.2403 18.886 19.2347 18.7186 19.1566C18.5512 19.0785 18.4341 18.9502 18.3671 18.7717L17.9654 17.6336C17.7422 17.8232 17.5693 18.0464 17.4466 18.303C17.3238 18.5597 17.2625 18.8498 17.2625 19.1734C17.2625 19.7313 17.4549 20.2055 17.8399 20.596C18.2248 20.9866 18.7018 21.1818 19.2709 21.1818Z" fill="black"/>
</svg>
