<svg width="24" height="24" viewBox="0 0 24 24" fill="none" xmlns="http://www.w3.org/2000/svg">
<path d="M16.8228 18.1618L15.6686 16.987C15.5175 16.8221 15.4419 16.6263 15.4419 16.3996C15.4419 16.1729 15.5175 15.984 15.6686 15.8329C15.8197 15.6817 16.0087 15.6061 16.2354 15.6061C16.4621 15.6061 16.6579 15.6817 16.8228 15.8329L17.9975 16.987C18.1624 17.1519 18.2449 17.3477 18.2449 17.5744C18.2449 17.8011 18.1624 17.9969 17.9975 18.1618C17.8327 18.3267 17.6369 18.4091 17.4102 18.4091C17.1834 18.4091 16.9876 18.3267 16.8228 18.1618ZM6.64137 18.3473C5.73452 18.3473 4.95821 18.0244 4.31243 17.3786C3.66664 16.7328 3.34375 15.9565 3.34375 15.0497C3.34375 14.1428 3.66664 13.3665 4.31243 12.7207C4.95821 12.0749 5.73452 11.752 6.64137 11.752C7.30089 11.752 7.90889 11.9307 8.46536 12.2879C9.02184 12.6452 9.42373 13.1329 9.67106 13.7512L9.87716 14.2253H10.3718C10.9489 14.2253 11.4332 14.4245 11.8248 14.823C12.2164 15.2214 12.4122 15.7092 12.4122 16.2863C12.4122 16.8634 12.213 17.3511 11.8145 17.7496C11.416 18.1481 10.9283 18.3473 10.3512 18.3473H6.64137ZM14.0404 16.039C13.9854 15.1733 13.6729 14.4245 13.1026 13.7924C12.5324 13.1604 11.8145 12.7688 10.9489 12.6177C10.5229 11.8757 9.94929 11.2883 9.22794 10.8555C8.50658 10.4227 7.7131 10.1719 6.84747 10.1032C7.20471 9.10021 7.81615 8.29985 8.68177 7.70216C9.5474 7.10446 10.5161 6.80562 11.5878 6.80562C12.9618 6.80562 14.1297 7.28652 15.0915 8.24833C16.0533 9.21013 16.5342 10.378 16.5342 11.752C16.5342 12.6452 16.3144 13.473 15.8747 14.2356C15.435 14.9981 14.8236 15.5993 14.0404 16.039ZM18.183 12.5765C17.9495 12.5765 17.7537 12.4974 17.5956 12.3394C17.4376 12.1814 17.3586 11.9856 17.3586 11.752C17.3586 11.5185 17.4376 11.3227 17.5956 11.1647C17.7537 11.0066 17.9495 10.9276 18.183 10.9276H19.8318C20.0654 10.9276 20.2612 11.0066 20.4192 11.1647C20.5772 11.3227 20.6562 11.5185 20.6562 11.752C20.6562 11.9856 20.5772 12.1814 20.4192 12.3394C20.2612 12.4974 20.0654 12.5765 19.8318 12.5765H18.183ZM6.35283 7.67124L5.17805 6.49647C5.02691 6.34533 4.95134 6.15296 4.95134 5.91938C4.95134 5.6858 5.02691 5.49344 5.17805 5.3423C5.34293 5.17742 5.53873 5.09498 5.76544 5.09498C5.99215 5.09498 6.18795 5.17742 6.35283 5.3423L7.50699 6.51708C7.65813 6.68196 7.73371 6.87775 7.73371 7.10446C7.73371 7.33118 7.65813 7.5201 7.50699 7.67124C7.35585 7.82238 7.16349 7.89795 6.92991 7.89795C6.69633 7.89795 6.50397 7.82238 6.35283 7.67124ZM15.6686 7.67124C15.5175 7.5201 15.4419 7.33118 15.4419 7.10446C15.4419 6.87775 15.5175 6.68196 15.6686 6.51708L16.8228 5.3423C16.9876 5.17742 17.1834 5.09498 17.4102 5.09498C17.6369 5.09498 17.8327 5.17742 17.9975 5.3423C18.1487 5.49344 18.2243 5.6858 18.2243 5.91938C18.2243 6.15296 18.1487 6.34533 17.9975 6.49647L16.8228 7.67124C16.6716 7.82238 16.4793 7.89795 16.2457 7.89795C16.0121 7.89795 15.8197 7.82238 15.6686 7.67124ZM11.5878 5.98121C11.3542 5.98121 11.1584 5.90221 11.0004 5.7442C10.8424 5.58619 10.7634 5.39039 10.7634 5.15681V3.508C10.7634 3.27442 10.8424 3.07862 11.0004 2.92061C11.1584 2.7626 11.3542 2.68359 11.5878 2.68359C11.8214 2.68359 12.0172 2.7626 12.1752 2.92061C12.3332 3.07862 12.4122 3.27442 12.4122 3.508V5.15681C12.4122 5.39039 12.3332 5.58619 12.1752 5.7442C12.0172 5.90221 11.8214 5.98121 11.5878 5.98121Z" fill="black"/>
<path d="M7.16593 21.2918C7.03957 21.3366 6.91525 21.3264 6.79297 21.2612C6.67069 21.196 6.58713 21.1002 6.54229 20.9739C6.49746 20.8475 6.50765 20.7232 6.57286 20.6009L7.30655 19.1335C7.37177 19.0113 7.46755 18.9277 7.59391 18.8829C7.72027 18.838 7.84459 18.8482 7.96687 18.9134C8.08915 18.9787 8.17271 19.0744 8.21754 19.2008C8.26238 19.3272 8.25219 19.4515 8.18697 19.5738L7.45329 21.0411C7.38807 21.1634 7.29228 21.247 7.16593 21.2918Z" fill="black"/>
<path d="M4.23118 21.2918C4.10483 21.3366 3.98051 21.3264 3.85823 21.2612C3.73595 21.196 3.65239 21.1002 3.60755 20.9739C3.56271 20.8475 3.5729 20.7232 3.63812 20.6009L4.37181 19.1335C4.43702 19.0113 4.53281 18.9277 4.65917 18.8829C4.78552 18.838 4.90984 18.8482 5.03212 18.9134C5.15441 18.9787 5.23796 19.0744 5.2828 19.2008C5.32764 19.3272 5.31745 19.4515 5.25223 19.5738L4.51854 21.0411C4.45333 21.1634 4.35754 21.247 4.23118 21.2918Z" fill="black"/>
<path d="M10.1007 21.2918C9.97431 21.3366 9.84999 21.3264 9.72771 21.2612C9.60543 21.196 9.52187 21.1002 9.47704 20.9739C9.4322 20.8475 9.44239 20.7232 9.50761 20.6009L10.2413 19.1335C10.3065 19.0113 10.4023 18.9277 10.5287 18.8829C10.655 18.838 10.7793 18.8482 10.9016 18.9134C11.0239 18.9787 11.1075 19.0744 11.1523 19.2008C11.1971 19.3272 11.1869 19.4515 11.1217 19.5738L10.388 21.0411C10.3228 21.1634 10.227 21.247 10.1007 21.2918Z" fill="black"/>
</svg>
