<svg width="24" height="24" viewBox="0 0 24 24" fill="none" xmlns="http://www.w3.org/2000/svg">
<path d="M7.34561 21.1277C7.21926 21.1726 7.09494 21.1624 6.97266 21.0972C6.85038 21.032 6.76682 20.9362 6.72198 20.8098C6.67715 20.6835 6.68734 20.5591 6.75255 20.4369L7.48624 18.9695C7.55145 18.8472 7.64724 18.7636 7.7736 18.7188C7.89996 18.674 8.02427 18.6842 8.14656 18.7494C8.26884 18.8146 8.35239 18.9104 8.39723 19.0367C8.44207 19.1631 8.43188 19.2874 8.36666 19.4097L7.63298 20.8771C7.56776 20.9993 7.47197 21.0829 7.34561 21.1277Z" fill="black"/>
<path d="M4.41087 21.1277C4.28451 21.1726 4.16019 21.1624 4.03791 21.0972C3.91563 21.032 3.83207 20.9362 3.78724 20.8098C3.7424 20.6835 3.75259 20.5591 3.81781 20.4369L4.55149 18.9695C4.61671 18.8472 4.7125 18.7636 4.83885 18.7188C4.96521 18.674 5.08953 18.6842 5.21181 18.7494C5.33409 18.8146 5.41765 18.9104 5.46249 19.0367C5.50732 19.1631 5.49713 19.2874 5.43192 19.4097L4.69823 20.8771C4.63301 20.9993 4.53723 21.0829 4.41087 21.1277Z" fill="black"/>
<path d="M10.2804 21.1277C10.154 21.1726 10.0297 21.1624 9.9074 21.0972C9.78512 21.032 9.70156 20.9362 9.65673 20.8098C9.61189 20.6835 9.62208 20.5591 9.6873 20.4369L10.421 18.9695C10.4862 18.8472 10.582 18.7636 10.7083 18.7188C10.8347 18.674 10.959 18.6842 11.0813 18.7494C11.2036 18.8146 11.2871 18.9104 11.332 19.0367C11.3768 19.1631 11.3666 19.2874 11.3014 19.4097L10.5677 20.8771C10.5025 20.9993 10.4067 21.0829 10.2804 21.1277Z" fill="black"/>
<path d="M6.80183 11.5481C7.45907 11.5481 8.06155 11.7261 8.60925 12.0821C9.15695 12.4381 9.56088 12.9242 9.82104 13.5404L10.0264 14.0127H10.5399C11.115 14.0127 11.5942 14.2147 11.9776 14.6186C12.361 15.0226 12.5527 15.5052 12.5527 16.0666C12.5527 16.6417 12.3542 17.1278 11.9571 17.5249C11.56 17.922 11.0739 18.1205 10.4988 18.1205H6.80183C5.89813 18.1205 5.1245 17.7987 4.48095 17.1552C3.8374 16.5116 3.51562 15.738 3.51562 14.8343C3.51562 13.9169 3.8374 13.1398 4.48095 12.5031C5.1245 11.8664 5.89813 11.5481 6.80183 11.5481ZM13.3948 9.88445C14.2163 10.706 15.1645 11.3256 16.2394 11.7432C17.3143 12.1608 18.4336 12.3286 19.5975 12.2464C19.7481 12.2327 19.8816 12.2533 19.998 12.308C20.1144 12.3628 20.2137 12.445 20.2958 12.5545C20.378 12.664 20.4327 12.7804 20.4601 12.9037C20.4875 13.0269 20.4807 13.157 20.4396 13.2939C19.9604 14.9507 18.9985 16.2994 17.5539 17.34C16.1093 18.3807 14.5313 18.9147 12.8197 18.9421C13.2579 18.5861 13.5968 18.1582 13.8364 17.6584C14.076 17.1586 14.1958 16.628 14.1958 16.0666C14.1958 15.1355 13.9048 14.3311 13.3229 13.6533C12.741 12.9755 11.9981 12.5682 11.0944 12.4313C10.6563 11.6508 10.0572 11.0346 9.2973 10.5828C8.53736 10.1309 7.70554 9.90499 6.80183 9.90499C6.36367 9.90499 5.93578 9.95976 5.51816 10.0693C5.10054 10.1788 4.70688 10.3431 4.33718 10.5622C4.36456 8.76851 4.8883 7.18017 5.90839 5.79723C6.92849 4.41428 8.28063 3.44211 9.96481 2.88072C10.1017 2.83964 10.2352 2.8328 10.3653 2.86018C10.4954 2.88757 10.6152 2.94234 10.7247 3.02449C10.8343 3.10665 10.9199 3.20592 10.9815 3.3223C11.0431 3.43869 11.0671 3.57219 11.0534 3.72281C10.9849 4.90037 11.1492 6.01289 11.5463 7.06036C11.9434 8.10784 12.5595 9.0492 13.3948 9.88445Z" fill="black"/>
</svg>
